<svg width="26" height="26" viewBox="0 0 26 26" fill="none" xmlns="http://www.w3.org/2000/svg">
<path d="M4.98229 19.4673C4.6889 19.7597 4.68809 20.2346 4.98049 20.528C5.27289 20.8214 5.74776 20.8222 6.04115 20.5298L21.03 5.59178C21.3233 5.29938 21.3242 4.82451 21.0318 4.53112C20.7394 4.23773 20.2645 4.23692 19.9711 4.52932L4.98229 19.4673Z" fill="black"/>
<path d="M6.75 11.7505H11.3107L12.8158 10.2505H6.75V9.75053H13.3175L14.8226 8.25053H6.75V7.75053H15.3243L16.8294 6.25053H6C5.58579 6.25053 5.25 6.58632 5.25 7.00053V12.2505H4.5C4.08579 12.2505 3.75 12.5863 3.75 13.0005C3.75 13.4147 4.08579 13.7505 4.5 13.7505H5.25V17.7907L6.75 16.2958V13.7505H9.30388L10.809 12.2505H6.75V11.7505Z" fill="black"/>
<path d="M19.25 13.7505H14.262L15.7671 12.2505H19.25V11.7505H16.2688L17.7739 10.2505H19.25V9.75053H18.2756L20.75 7.28456V12.2505H21.5C21.9142 12.2505 22.25 12.5863 22.25 13.0005C22.25 13.4147 21.9142 13.7505 21.5 13.7505H20.75V18.0005C20.75 18.4147 20.4142 18.7505 20 18.7505C19.5858 18.7505 19.25 18.4147 19.25 18.0005V13.7505Z" fill="black"/>
</svg>
