<svg width="26" height="26" viewBox="0 0 26 26" fill="none" xmlns="http://www.w3.org/2000/svg">
<path fill-rule="evenodd" clip-rule="evenodd" d="M5.25 7C5.25 6.58579 5.58579 6.25 6 6.25H20C20.4142 6.25 20.75 6.58579 20.75 7V12.25H21.5C21.9142 12.25 22.25 12.5858 22.25 13C22.25 13.4142 21.9142 13.75 21.5 13.75H20.75V18C20.75 18.4142 20.4142 18.75 20 18.75C19.5858 18.75 19.25 18.4142 19.25 18V13.75H6.75V18C6.75 18.4142 6.41421 18.75 6 18.75C5.58579 18.75 5.25 18.4142 5.25 18V13.75H4.5C4.08579 13.75 3.75 13.4142 3.75 13C3.75 12.5858 4.08579 12.25 4.5 12.25H5.25V7ZM6.75 12.25H19.25V11.75H6.75V12.25ZM6.75 10.25H19.25V9.75H6.75V10.25ZM6.75 8.25H19.25V7.75H6.75V8.25Z" fill="black"/>
</svg>
