<svg width="16" height="16" viewBox="0 0 16 16" fill="none" xmlns="http://www.w3.org/2000/svg">
<path d="M12.243 5.17195C12.6335 4.78143 12.6335 4.14826 12.243 3.75774C11.8525 3.36721 11.2193 3.36721 10.8288 3.75774L8.00038 6.58616L5.17195 3.75774C4.78143 3.36721 4.14826 3.36721 3.75774 3.75774C3.36721 4.14826 3.36721 4.78143 3.75774 5.17195L6.58616 8.00038L3.75774 10.8288C3.36721 11.2193 3.36721 11.8525 3.75774 12.243C4.14826 12.6335 4.78143 12.6335 5.17195 12.243L8.00038 9.41459L10.8288 12.243C11.2193 12.6335 11.8525 12.6335 12.243 12.243C12.6335 11.8525 12.6335 11.2193 12.243 10.8288L9.41459 8.00038L12.243 5.17195Z" fill="#fff" fill-opacity="0.95"/>
</svg>
