<svg width="32" height="32" viewBox="0 0 32 32" fill="none" xmlns="http://www.w3.org/2000/svg">
<path d="M16 21C18.7614 21 21 18.7614 21 16C21 13.2386 18.7614 11 16 11C13.2386 11 11 13.2386 11 16C11 18.7614 13.2386 21 16 21Z" fill="#262524"/>
<path fill-rule="evenodd" clip-rule="evenodd" d="M24 16C24 20.4183 20.4183 24 16 24C11.5817 24 8 20.4183 8 16C8 11.5817 11.5817 8 16 8C20.4183 8 24 11.5817 24 16ZM22.5 16C22.5 19.5899 19.5899 22.5 16 22.5C12.4101 22.5 9.5 19.5899 9.5 16C9.5 12.4101 12.4101 9.5 16 9.5C19.5899 9.5 22.5 12.4101 22.5 16Z" fill="#262524"/>
</svg>
