<svg width="32" height="32" viewBox="0 0 32 32" fill="none" xmlns="http://www.w3.org/2000/svg">
<path fill-rule="evenodd" clip-rule="evenodd" d="M16.75 8C16.75 7.58579 17.0858 7.25 17.5 7.25H20C20.3154 7.25 20.5971 7.4473 20.7048 7.74369L23.0151 14.097C23.3335 14.0334 23.6629 14 24 14C26.7614 14 29 16.2386 29 19C29 21.7614 26.7614 24 24 24C21.2386 24 19 21.7614 19 19C19 17.1061 20.053 15.4581 21.6054 14.6096L21.1788 13.4365L17.7201 17.979C17.8979 18.2778 18 18.627 18 19C18 20.1046 17.1046 21 16 21C15.1607 21 14.4421 20.483 14.1454 19.75H12.9441C12.5823 22.1556 10.5065 24 8 24C5.23858 24 3 21.7614 3 19C3 16.2386 5.23858 14 8 14C9.02482 14 9.97762 14.3083 10.7707 14.8373L12.1464 13.324L11.0484 11.25H10.5C10.0858 11.25 9.75 10.9142 9.75 10.5C9.75 10.0858 10.0858 9.75 10.5 9.75H11.4844C11.4944 9.7498 11.5044 9.7498 11.5143 9.75H13C13.4142 9.75 13.75 10.0858 13.75 10.5C13.75 10.9142 13.4142 11.25 13 11.25H12.7457L13.4873 12.6509L20.4406 11.4062L19.4747 8.75H17.5C17.0858 8.75 16.75 8.41421 16.75 8ZM9.74512 15.9654C9.23142 15.6694 8.63549 15.5 8 15.5C6.067 15.5 4.5 17.067 4.5 19C4.5 20.933 6.067 22.5 8 22.5C9.67556 22.5 11.0761 21.3226 11.4195 19.75H8.66146C8.48517 19.9056 8.25361 20 8 20C7.44772 20 7 19.5523 7 19C7 18.4849 7.3895 18.0607 7.89006 18.006L9.74512 15.9654ZM11.4195 18.25H9.69541L10.8548 16.9747C11.1225 17.3513 11.3176 17.7833 11.4195 18.25ZM12.9441 18.25C12.8083 17.3472 12.4311 16.5234 11.8804 15.8465L12.8925 14.7332L14.4696 17.7123C14.335 17.8721 14.225 18.0533 14.1454 18.25H12.9441ZM16.5268 17.0701C16.359 17.0244 16.1823 17 16 17C15.9309 17 15.8626 17.0035 15.7953 17.0103L14.2242 14.0428L19.5589 13.0879L16.5268 17.0701ZM22.1267 16.043C21.1489 16.6637 20.5 17.7561 20.5 19C20.5 20.933 22.067 22.5 24 22.5C25.933 22.5 27.5 20.933 27.5 19C27.5 17.067 25.933 15.5 24 15.5C23.8428 15.5 23.6881 15.5104 23.5364 15.5304L24.4787 18.1218C24.7893 18.2915 25 18.6211 25 19C25 19.5523 24.5523 20 24 20C23.4477 20 23 19.5523 23 19C23 18.8709 23.0245 18.7476 23.069 18.6343L22.1267 16.043ZM16 19.5C16.2761 19.5 16.5 19.2761 16.5 19C16.5 18.7239 16.2761 18.5 16 18.5C15.7239 18.5 15.5 18.7239 15.5 19C15.5 19.2761 15.7239 19.5 16 19.5Z" fill="black" fill-opacity="0.75"/>
</svg>
