<svg width="32" height="32" viewBox="0 0 32 32" fill="none" xmlns="http://www.w3.org/2000/svg">
<path d="M8.11232 24.1835C8.7894 24.1876 9.46009 24.0524 10.0827 23.7862C11.3089 23.2624 12.2858 22.2856 12.8095 21.0593C13.0718 20.4327 13.2068 19.7602 13.2068 19.081C13.2068 18.4017 13.0718 17.7292 12.8095 17.1026C12.5499 16.4953 12.177 15.9431 11.7107 15.4754C11.2466 15.0068 10.6952 14.6335 10.0877 14.3766C9.46194 14.1126 8.78895 13.9789 8.10979 13.9835C7.42784 13.9783 6.75198 14.1121 6.1234 14.3766C5.515 14.6341 4.96239 15.0073 4.49624 15.4754C4.02921 15.9425 3.65618 16.4949 3.39739 17.1026C3.13507 17.7307 3 18.4045 3 19.0852C3 19.7658 3.13507 20.4397 3.39739 21.0678C3.65557 21.6746 4.02871 22.2257 4.49624 22.6907C4.96388 23.157 5.51611 23.53 6.1234 23.7896C6.75232 24.0559 7.42934 24.19 8.11232 24.1835V24.1835ZM8.11232 22.8454C7.44438 22.853 6.78685 22.6795 6.20961 22.3433C5.6458 22.0165 5.17724 21.5479 4.85041 20.9841C4.51424 20.4069 4.34073 19.7493 4.34832 19.0814C4.34125 18.4166 4.51667 17.7625 4.85548 17.1905C5.18628 16.6283 5.6557 16.1603 6.21891 15.8313C6.79266 15.4929 7.44792 15.3175 8.11402 15.3241C8.77883 15.3171 9.43285 15.4925 10.0049 15.8313C10.5663 16.1613 11.0341 16.6291 11.3641 17.1905C11.6956 17.7661 11.8702 18.4188 11.8702 19.0831C11.8702 19.7474 11.6956 20.4 11.3641 20.9756C11.035 21.5388 10.5671 22.0083 10.0049 22.3391C9.43227 22.6779 8.77763 22.853 8.11232 22.8454V22.8454ZM23.9139 24.1835C24.591 24.1876 25.2616 24.0524 25.8842 23.7862C27.1075 23.2653 28.0818 22.2911 28.6026 21.0678C28.8649 20.4397 29 19.7658 29 19.0852C29 18.4045 28.8649 17.7307 28.6026 17.1026C28.0818 15.8793 27.1075 14.905 25.8842 14.3842C25.2616 14.118 24.591 13.9828 23.9139 13.9869C23.2302 13.982 22.5527 14.1172 21.9233 14.3842C21.3143 14.643 20.7605 15.016 20.2919 15.483C19.8243 15.9481 19.4512 16.4992 19.193 17.106C18.9307 17.734 18.7956 18.4079 18.7956 19.0886C18.7956 19.7692 18.9307 20.4431 19.193 21.0712C19.4518 21.6789 19.8248 22.2312 20.2919 22.6983C20.7667 23.1742 21.3315 23.551 21.9533 23.8067C22.5751 24.0624 23.2416 24.1919 23.9139 24.1877V24.1835ZM23.9139 22.8454C23.2459 22.853 22.5884 22.6795 22.0112 22.3433C21.4467 22.0158 20.977 21.5475 20.6477 20.9841C20.3087 20.4078 20.1334 19.7499 20.1406 19.0814C20.1335 18.4166 20.3089 17.7625 20.6477 17.1905C20.9785 16.6283 21.448 16.1603 22.0112 15.8313C22.5874 15.4923 23.2453 15.3169 23.9139 15.3241C24.5775 15.3156 25.2306 15.4912 25.8005 15.8313C26.3587 16.1649 26.8239 16.6339 27.153 17.1947C27.4845 17.7696 27.659 18.4216 27.659 19.0852C27.659 19.7488 27.4845 20.4008 27.153 20.9756C26.8245 21.5359 26.3591 22.0036 25.8005 22.3348C25.2307 22.6749 24.5783 22.8515 23.9147 22.8454H23.9139ZM16.5701 8.67352C16.5692 8.75926 16.5858 8.84429 16.6189 8.92338C16.6521 9.00246 16.701 9.07392 16.7629 9.13335C16.8236 9.19576 16.8965 9.24507 16.977 9.27821C17.0576 9.31136 17.1441 9.32765 17.2311 9.32607H19.3054C19.3285 9.32346 19.3517 9.32862 19.3714 9.34072C19.3912 9.35281 19.4063 9.37116 19.4145 9.39285L23.2791 19.3722L24.5259 18.9495L20.4601 8.56532C20.3913 8.38428 20.2645 8.23111 20.0995 8.12972C19.9345 8.02834 19.7406 7.98445 19.548 8.00491H17.2311C17.1437 8.00347 17.0569 8.02023 16.9763 8.05414C16.8957 8.08804 16.823 8.13835 16.7629 8.20186C16.7007 8.2635 16.6516 8.33704 16.6185 8.41807C16.5854 8.49911 16.5689 8.58599 16.5701 8.67352ZM21.6477 13.6606V12.4308L13.1485 13.6606V14.8905L21.6477 13.6606ZM15.0723 19.859V18.6207H8.20446V19.859H15.0723ZM15.9675 20.8125C16.271 20.8163 16.57 20.7384 16.833 20.5868C17.2203 20.3565 17.5016 19.9833 17.6166 19.5477C17.7315 19.112 17.6708 18.6486 17.4475 18.2572C17.3 18.0011 17.0882 17.7878 16.833 17.6385C16.5708 17.4877 16.2737 17.4084 15.9713 17.4084C15.6688 17.4084 15.3717 17.4877 15.1095 17.6385C14.8538 17.7881 14.6397 17.9994 14.4865 18.253C14.3296 18.5126 14.2485 18.811 14.2524 19.1143C14.2439 19.4152 14.3206 19.7124 14.4739 19.9715C14.624 20.2274 14.8388 20.4394 15.0968 20.586C15.3617 20.7376 15.6623 20.8158 15.9675 20.8125ZM15.9675 19.6832C15.8919 19.6838 15.8171 19.6691 15.7474 19.6401C15.6776 19.611 15.6145 19.5682 15.5617 19.5142C15.5079 19.4639 15.465 19.403 15.4359 19.3354C15.4068 19.2677 15.3921 19.1948 15.3927 19.1211C15.3909 19.0448 15.405 18.9689 15.4341 18.8983C15.4632 18.8278 15.5067 18.764 15.5617 18.7111C15.6145 18.6571 15.6776 18.6143 15.7474 18.5853C15.8171 18.5562 15.8919 18.5415 15.9675 18.5421C16.0431 18.5405 16.1183 18.5547 16.1882 18.5838C16.258 18.6129 16.3211 18.6563 16.3732 18.7111C16.4265 18.765 16.4684 18.8291 16.4965 18.8995C16.5245 18.97 16.538 19.0453 16.5363 19.1211C16.5377 19.195 16.5239 19.2683 16.4959 19.3366C16.4678 19.405 16.4261 19.4668 16.3732 19.5184C16.3204 19.5721 16.2572 19.6145 16.1874 19.6428C16.1176 19.6712 16.0428 19.6849 15.9675 19.6832V19.6832ZM8.11232 20.1599C8.25375 20.1618 8.39408 20.135 8.52484 20.0811C8.6556 20.0272 8.77407 19.9474 8.87307 19.8464C9.02572 19.6961 9.13011 19.5038 9.17289 19.2939C9.21566 19.0841 9.19489 18.8662 9.11323 18.6682C9.03156 18.4702 8.89271 18.3011 8.71442 18.1824C8.53613 18.0637 8.3265 18.0009 8.11232 18.002C7.96979 17.9983 7.82801 18.0239 7.69572 18.0771C7.56344 18.1303 7.44344 18.21 7.34313 18.3113C7.24165 18.412 7.16128 18.5318 7.1067 18.6639C7.05213 18.796 7.02446 18.9376 7.0253 19.0805C7.02322 19.2236 7.05 19.3656 7.10404 19.498C7.15808 19.6305 7.23828 19.7507 7.33983 19.8514C7.44138 19.9522 7.5622 20.0315 7.69508 20.0845C7.82795 20.1375 7.97015 20.1631 8.11317 20.1599H8.11232ZM23.9139 20.1684C24.0558 20.171 24.1967 20.1441 24.3276 20.0894C24.4586 20.0347 24.5768 19.9534 24.6746 19.8506C24.875 19.6453 24.9871 19.3699 24.9871 19.0831C24.9871 18.7963 24.875 18.5208 24.6746 18.3156C24.5763 18.2137 24.4579 18.1333 24.327 18.0793C24.1961 18.0253 24.0554 17.999 23.9139 18.002C23.7704 17.9987 23.6277 18.0248 23.4947 18.0787C23.3617 18.1327 23.2411 18.2133 23.1405 18.3156C23.0385 18.4153 22.9574 18.5345 22.9021 18.666C22.8468 18.7975 22.8184 18.9387 22.8184 19.0814C22.8171 19.2255 22.8448 19.3685 22.8997 19.5017C22.9546 19.635 23.0357 19.7559 23.1381 19.8574C23.2405 19.9588 23.3623 20.0386 23.4961 20.0922C23.6299 20.1458 23.7731 20.172 23.9173 20.1692L23.9139 20.1684ZM15.6657 17.86L16.7646 18.4787L21.7813 13.1163L20.2336 13.0689L15.6657 17.86ZM7.58487 18.6968L8.68373 19.3155L13.435 14.4129L12.3556 13.7105L7.58487 18.6968ZM14.8204 18.63L15.9193 17.8439L12.3624 11.1502L11.0826 11.4342L14.8204 18.63ZM9.54337 10.9828C9.54193 11.0703 9.5587 11.157 9.5926 11.2377C9.62651 11.3183 9.67681 11.391 9.74032 11.4511C9.80207 11.5133 9.87574 11.5625 9.95693 11.5956C10.0381 11.6287 10.1252 11.6451 10.2128 11.6438H13.4671C13.5978 11.6445 13.7257 11.6062 13.8345 11.5338C13.9433 11.4615 14.028 11.3583 14.0778 11.2375C14.1277 11.1167 14.1403 10.9838 14.1142 10.8557C14.0881 10.7277 14.0244 10.6104 13.9312 10.5188C13.8714 10.456 13.7994 10.4061 13.7196 10.3722C13.6397 10.3384 13.5538 10.3212 13.4671 10.3218H10.2128C10.1255 10.3214 10.0391 10.3387 9.9586 10.3725C9.87813 10.4063 9.80532 10.4561 9.74455 10.5188C9.68072 10.578 9.62988 10.6498 9.59525 10.7297C9.56062 10.8095 9.54296 10.8957 9.54337 10.9828V10.9828Z" fill="black" fill-opacity="0.75"/>
</svg>
