<svg width="32" height="32" viewBox="0 0 32 32" fill="none" xmlns="http://www.w3.org/2000/svg">
<path fill-rule="evenodd" clip-rule="evenodd" d="M20.0021 8C20.0021 10.2091 18.2112 12 16.0021 12C13.793 12 12.0021 10.2091 12.0021 8C12.0021 5.79086 13.793 4 16.0021 4C18.2112 4 20.0021 5.79086 20.0021 8ZM18.6021 8C18.6021 9.43594 17.438 10.6 16.0021 10.6C14.5662 10.6 13.4021 9.43594 13.4021 8C13.4021 6.56406 14.5662 5.4 16.0021 5.4C17.438 5.4 18.6021 6.56406 18.6021 8Z" fill="black"/>
<path fill-rule="evenodd" clip-rule="evenodd" d="M11.1977 16.5313C10.8476 15.258 11.8056 14.001 13.1261 14.001H18.8777C20.1982 14.001 21.1562 15.258 20.8061 16.5313L17.9303 26.9886C17.3914 28.9481 14.6124 28.9481 14.0735 26.9886L11.1977 16.5313ZM13.1261 15.401H18.8777C19.2738 15.401 19.5612 15.7781 19.4562 16.1601L16.5804 26.6173C16.4188 27.2052 15.585 27.2052 15.4234 26.6173L12.5476 16.1601C12.4426 15.7781 12.73 15.401 13.1261 15.401Z" fill="black"/>
</svg>
