<svg width="40" height="40" viewBox="0 0 40 40" fill="none" xmlns="http://www.w3.org/2000/svg">
<path d="M20 15.5C20.8284 15.5 21.5 14.8284 21.5 14C21.5 13.1716 20.8284 12.5 20 12.5C19.1716 12.5 18.5 13.1716 18.5 14C18.5 14.8284 19.1716 15.5 20 15.5Z" fill="black" fill-opacity="0.75"/>
<path d="M18 18C17.4477 18 17 18.4477 17 19C17 19.5523 17.4477 20 18 20H18.9997L19.0004 26.0001C19.0005 26.5524 19.4482 27 20.0004 27H22C22.5523 27 23 26.5523 23 26C23 25.4477 22.5523 25 22 25H21.0003L20.9996 18.9999C20.9995 18.4476 20.5518 18 19.9996 18H18Z" fill="black" fill-opacity="0.75"/>
</svg>
