<svg width="32" height="32" viewBox="0 0 32 32" fill="none" xmlns="http://www.w3.org/2000/svg">
<path fill-rule="evenodd" clip-rule="evenodd" d="M22.5689 8.01199C22.8285 7.97749 23.0925 8.01781 23.3299 8.12823C23.5673 8.23864 23.7683 8.41455 23.9091 8.63527C24.05 8.85598 24.1249 9.11233 24.125 9.37416V21.5359C24.1249 21.7977 24.05 22.0544 23.9091 22.2751C23.7683 22.4959 23.5673 22.6718 23.3299 22.7822C23.0925 22.8926 22.8285 22.9329 22.5689 22.8984C22.3098 22.864 22.0659 22.7564 21.8658 22.5883C19.9183 20.9549 17.935 20.1399 16.4416 19.733C15.7551 19.546 15.1738 19.4457 14.75 19.3919V21.9956C14.75 22.222 14.6941 22.4448 14.5873 22.6444C14.4805 22.844 14.3261 23.0141 14.1377 23.1397L13.279 23.7122C13.0956 23.8344 12.8856 23.9108 12.6666 23.9349C12.4475 23.9589 12.2259 23.93 12.0204 23.8506C11.8149 23.7711 11.6315 23.6434 11.4856 23.4783C11.3398 23.3131 11.2357 23.1153 11.1823 22.9016L10.2779 19.2839C9.4713 19.1582 8.7194 18.7797 8.13496 18.1952C7.40826 17.4685 7 16.4829 7 15.4552C7 14.4275 7.40826 13.4419 8.13496 12.7152C8.86166 11.9885 9.84729 11.5802 10.875 11.5802H13.986C13.9906 11.5801 13.9953 11.5801 14 11.5801C14.0019 11.5801 14.0039 11.5801 14.0058 11.5801L14.0292 11.5796C14.0547 11.579 14.0954 11.5776 14.1504 11.5746C14.2604 11.5687 14.4272 11.5565 14.6423 11.5315C15.0728 11.4816 15.695 11.3808 16.4416 11.1774C17.9348 10.7706 19.918 9.95563 21.8653 8.32257C22.0655 8.15421 22.3096 8.04646 22.5689 8.01199ZM14.75 13.0289C14.7713 13.0266 14.7929 13.0241 14.815 13.0216C15.3101 12.9642 16.0073 12.8504 16.8359 12.6247C18.4403 12.1875 20.5448 11.3284 22.625 9.64032V21.2701C20.5448 19.5821 18.4403 18.7229 16.8359 18.2858C16.0073 18.06 15.3101 17.9462 14.815 17.8888C14.7929 17.8863 14.7713 17.8838 14.75 17.8815V13.0289ZM13.25 19.3302V21.9287L12.5945 22.3657L11.8356 19.3302H13.25ZM10.8969 17.8302H13.25V13.0802H10.875C10.2451 13.0802 9.64102 13.3304 9.19562 13.7758C8.75022 14.2212 8.5 14.8253 8.5 15.4552C8.5 16.0851 8.75022 16.6892 9.19562 17.1346C9.63673 17.5757 10.2335 17.8254 10.8568 17.8301C10.8702 17.8298 10.8836 17.8298 10.8969 17.8302Z" fill="black" fill-opacity="0.75"/>
</svg>
