<svg width="32" height="32" viewBox="0 0 32 32" fill="none" xmlns="http://www.w3.org/2000/svg">
<path fill-rule="evenodd" clip-rule="evenodd" d="M24 16C24 20.4183 20.4183 24 16 24C11.5817 24 8 20.4183 8 16C8 11.5817 11.5817 8 16 8C20.4183 8 24 11.5817 24 16ZM22.5 16C22.5 19.5899 19.5899 22.5 16 22.5C14.4863 22.5 13.0935 21.9826 11.9887 21.115L21.115 11.9887C21.9826 13.0935 22.5 14.4863 22.5 16ZM10.923 20.0593L20.0593 10.923C18.947 10.0326 17.5357 9.5 16 9.5C12.4101 9.5 9.5 12.4101 9.5 16C9.5 17.5357 10.0326 18.947 10.923 20.0593Z" fill="black" fill-opacity="0.75"/>
</svg>
