<svg width="26" height="26" viewBox="0 0 26 26" fill="none" xmlns="http://www.w3.org/2000/svg">
<path fill-rule="evenodd" clip-rule="evenodd" d="M5.91872 6.03046C5.96543 5.65494 6.28457 5.37305 6.66298 5.37305H19.4037C19.7821 5.37305 20.1013 5.65494 20.148 6.03046L21.7406 18.8329C21.7917 19.244 21.4999 19.6186 21.0889 19.6698C20.6779 19.7209 20.3032 19.4291 20.2521 19.0181L18.7412 6.87305H17.9936L17.5469 15.7744L17.5467 15.7779L17.4986 16.8361C17.4804 17.2367 17.1504 17.5521 16.7494 17.5521H14.6259C14.225 17.5521 13.8949 17.2367 13.8767 16.8361L13.8286 15.7779L13.8285 15.7744L13.3818 6.87305H12.6849L12.2382 15.7744L12.2381 15.7779L12.19 16.8361C12.1718 17.2367 11.8417 17.5521 11.4408 17.5521H9.3173C8.91633 17.5521 8.58629 17.2367 8.56808 16.8361L8.51999 15.7779L8.51982 15.7744L8.07313 6.87305H7.32547L5.81465 19.0181C5.76352 19.4291 5.38885 19.7209 4.97781 19.6698C4.56676 19.6186 4.27499 19.244 4.32613 18.8329L5.91872 6.03046ZM9.57502 6.87305L9.98235 14.9903H10.7757L11.183 6.87305H9.57502ZM14.8837 6.87305L15.291 14.9903H16.0844L16.4917 6.87305H14.8837Z" fill="black"/>
</svg>
