<svg width="26" height="26" viewBox="0 0 26 26" fill="none" xmlns="http://www.w3.org/2000/svg">
<path d="M4.47057 19.4673C4.17718 19.7597 4.17638 20.2346 4.46877 20.528C4.76117 20.8214 5.23604 20.8222 5.52943 20.5298L20.5182 5.59178C20.8116 5.29938 20.8124 4.82451 20.52 4.53112C20.2276 4.23773 19.7528 4.23692 19.4594 4.52932L4.47057 19.4673Z" fill="black"/>
<path d="M11.4462 17.5526H9.93698L12.2712 15.2262L12.2437 15.7749L12.2435 15.7784L12.1954 16.8366C12.1772 17.2372 11.8472 17.5526 11.4462 17.5526Z" fill="black"/>
<path d="M13.3872 6.87358L13.4971 9.06315L14.9275 7.63764L14.8891 6.87358H15.6941L17.1992 5.37358H6.66844C6.29003 5.37358 5.97089 5.65547 5.92418 6.03099L4.42188 18.1076L6.14735 16.388L7.33092 6.87358H8.07859L8.44132 14.1018L9.87166 12.6763L9.58048 6.87358H11.1885L10.9513 11.6003L12.5323 10.0247L12.6904 6.87358H13.3872Z" fill="black"/>
<path d="M13.8339 15.7749L13.7333 13.7692L15.1636 12.3437L15.2965 14.9909H16.0898L16.2784 11.2326L17.8594 9.65705L17.5523 15.7749L17.5522 15.7784L17.5041 16.8366C17.4859 17.2372 17.1558 17.5526 16.7549 17.5526H14.6314C14.2304 17.5526 13.9004 17.2372 13.8822 16.8366L13.8341 15.7784L13.8339 15.7749Z" fill="black"/>
<path d="M20.2575 19.0186L18.9569 8.56324L20.3017 7.22296L21.746 18.8335C21.7972 19.2445 21.5054 19.6192 21.0944 19.6703C20.6833 19.7214 20.3086 19.4297 20.2575 19.0186Z" fill="black"/>
</svg>
