<svg width="15" height="15" viewBox="0 0 15 15" fill="none" xmlns="http://www.w3.org/2000/svg">
<path d="M8.02039 3.46596C7.51619 3.36567 6.99357 3.41714 6.51862 3.61387C6.04367 3.8106 5.63772 4.14375 5.35211 4.5712C5.06651 4.99864 4.91406 5.50118 4.91406 6.01526C4.91406 6.34663 5.18269 6.61526 5.51406 6.61526C5.84543 6.61526 6.11406 6.34663 6.11406 6.01526C6.11406 5.73852 6.19613 5.46799 6.34988 5.23788C6.50363 5.00778 6.72216 4.82843 6.97784 4.72253C7.23352 4.61662 7.51486 4.58891 7.78628 4.6429C8.05771 4.69689 8.30703 4.83016 8.50272 5.02585C8.6984 5.22153 8.83167 5.47085 8.88566 5.74228C8.93965 6.01371 8.91194 6.29505 8.80603 6.55073C8.70013 6.8064 8.52079 7.02493 8.29068 7.17869C8.06058 7.33244 7.79005 7.4145 7.5133 7.4145H6.9133L6.9133 8.51431C6.9133 8.84568 7.18193 9.11431 7.51331 9.11431C7.83456 9.11431 8.09684 8.86183 8.11256 8.54448C8.41228 8.47346 8.69859 8.34936 8.95737 8.17645C9.38481 7.89084 9.71796 7.4849 9.91469 7.00995C10.1114 6.535 10.1629 6.01238 10.0626 5.50817C9.96231 5.00397 9.71476 4.54083 9.35124 4.17732C8.98773 3.81381 8.52459 3.56625 8.02039 3.46596Z" fill="black" fill-opacity="0.75"/>
<path d="M8.25131 10.4994C8.25131 10.9148 7.91457 11.2515 7.49917 11.2515C7.08378 11.2515 6.74703 10.9148 6.74703 10.4994C6.74703 10.084 7.08378 9.74725 7.49917 9.74725C7.91457 9.74725 8.25131 10.084 8.25131 10.4994Z" fill="black" fill-opacity="0.75"/>
</svg>
