<svg width="26" height="26" viewBox="0 0 26 26" fill="none" xmlns="http://www.w3.org/2000/svg">
<path d="M4.17045 17.5007H5.99006L8.03338 10.3565H8.11293L10.1513 17.5007H11.9709L14.8445 7.31889H12.8608L11.0263 14.8061H10.9368L8.97301 7.31889H7.16832L5.20952 14.8011H5.11506L3.28054 7.31889H1.29688L4.17045 17.5007Z" fill="black"/>
<path d="M24.2917 10.7543C23.9785 8.49219 22.2385 7.17969 19.9814 7.17969C17.3216 7.17969 15.318 9.11861 15.318 12.4098C15.318 15.696 17.2967 17.6399 19.9814 17.6399C22.4025 17.6399 24.0083 16.0739 24.2917 14.13L22.4324 14.12C22.1987 15.3132 21.2243 15.9844 20.0062 15.9844C18.3556 15.9844 17.1724 14.7464 17.1724 12.4098C17.1724 10.1129 18.3457 8.83523 20.0112 8.83523C21.2491 8.83523 22.2186 9.53622 22.4324 10.7543H24.2917Z" fill="black"/>
</svg>
