<svg width="26" height="26" viewBox="0 0 26 26" fill="none" xmlns="http://www.w3.org/2000/svg">
<path d="M4.97057 19.4673C4.67718 19.7597 4.67637 20.2346 4.96877 20.528C5.26117 20.8214 5.73604 20.8222 6.02943 20.5298L21.0182 5.59178C21.3116 5.29938 21.3124 4.82451 21.02 4.53112C20.7276 4.23773 20.2528 4.23692 19.9594 4.52932L4.97057 19.4673Z" fill="black"/>
<path d="M11.9709 17.5016H10.4869L12.5516 15.4438L11.9709 17.5016Z" fill="black"/>
<path d="M19.9814 17.6408C17.3715 17.6408 15.4288 15.8038 15.3226 12.6823L17.5297 10.4827C17.2996 11.0087 17.1724 11.6545 17.1724 12.4107C17.1724 14.7473 18.3556 15.9853 20.0062 15.9853C21.2243 15.9853 22.1987 15.3141 22.4324 14.1209L24.2917 14.1309C24.0083 16.0748 22.4025 17.6408 19.9814 17.6408Z" fill="black"/>
<path d="M20.7846 7.23881L19.0033 9.01404C19.3114 8.89631 19.6497 8.83613 20.0112 8.83613C21.2491 8.83613 22.2186 9.53712 22.4324 10.7552H24.2917C24.0168 8.76972 22.6427 7.5158 20.7846 7.23881Z" fill="black"/>
<path d="M11.9289 11.1231L14.492 8.56869L14.8445 7.31979H12.8608L11.9289 11.1231Z" fill="black"/>
<path d="M8.97301 7.31979L10.3764 12.6704L9.12786 13.9146L8.11293 10.3574H8.03338L6.174 16.8585L5.5287 17.5016H4.17046L1.29688 7.31979H3.28054L5.11506 14.802H5.20952L7.16832 7.31979H8.97301Z" fill="black"/>
</svg>
