<svg width="32" height="32" viewBox="0 0 32 32" fill="none" xmlns="http://www.w3.org/2000/svg">
<path fill-rule="evenodd" clip-rule="evenodd" d="M16.5304 7.46967C16.2375 7.17678 15.7626 7.17678 15.4697 7.46967L10.4697 12.4697C10.2552 12.6842 10.191 13.0068 10.3071 13.287C10.4232 13.5673 10.6967 13.75 11 13.75H12.1894L9.46969 16.4697C9.25519 16.6842 9.19103 17.0068 9.30711 17.287C9.4232 17.5673 9.69668 17.75 10 17.75H11.1894L8.46969 20.4697C8.25519 20.6842 8.19103 21.0068 8.30711 21.287C8.4232 21.5673 8.69668 21.75 9.00002 21.75H13.25V24C13.25 24.4142 13.5858 24.75 14 24.75H18C18.4142 24.75 18.75 24.4142 18.75 24V21.75H23C23.3034 21.75 23.5768 21.5673 23.6929 21.287C23.809 21.0068 23.7449 20.6842 23.5304 20.4697L20.8107 17.75H22C22.3034 17.75 22.5768 17.5673 22.6929 17.287C22.809 17.0068 22.7449 16.6842 22.5304 16.4697L19.8107 13.75H21C21.3034 13.75 21.5768 13.5673 21.6929 13.287C21.809 13.0068 21.7449 12.6842 21.5304 12.4697L16.5304 7.46967ZM17.25 21.75H14.75V23.25H17.25V21.75ZM14 12.25H12.8107L16 9.06066L19.1894 12.25H18C17.6967 12.25 17.4232 12.4327 17.3071 12.713C17.191 12.9932 17.2552 13.3158 17.4697 13.5303L20.1894 16.25H19C18.6967 16.25 18.4232 16.4327 18.3071 16.713C18.191 16.9932 18.2552 17.3158 18.4697 17.5303L21.1894 20.25H10.8107L13.5304 17.5303C13.7449 17.3158 13.809 16.9932 13.6929 16.713C13.5768 16.4327 13.3034 16.25 13 16.25H11.8107L14.5304 13.5303C14.7449 13.3158 14.809 12.9932 14.6929 12.713C14.5768 12.4327 14.3034 12.25 14 12.25Z" fill="white"/>
</svg>
