<svg width="32" height="32" viewBox="0 0 32 32" fill="none" xmlns="http://www.w3.org/2000/svg">
<path fill-rule="evenodd" clip-rule="evenodd" d="M8 17.5C8 15.7022 9.05426 14.1506 10.5783 13.4298C10.5268 13.1276 10.5 12.8169 10.5 12.5C10.5 9.46243 12.9624 7 16 7C19.0376 7 21.5 9.46243 21.5 12.5C21.5 12.8169 21.4732 13.1276 21.4217 13.4298C22.9457 14.1506 24 15.7022 24 17.5C24 19.9853 21.9853 22 19.5 22H16.75L16.75 25C16.75 25.4142 16.4142 25.75 16 25.75C15.5858 25.75 15.25 25.4142 15.25 25L15.25 22H12.5C10.0147 22 8 19.9853 8 17.5ZM19.943 13.178C19.8301 13.8411 20.1724 14.4982 20.7804 14.7858C21.7999 15.268 22.5 16.3037 22.5 17.5C22.5 19.1569 21.1569 20.5 19.5 20.5H12.5C10.8431 20.5 9.5 19.1569 9.5 17.5C9.5 16.3037 10.2001 15.268 11.2196 14.7858C11.8276 14.4982 12.1699 13.8411 12.057 13.178C12.0196 12.9586 12 12.7322 12 12.5C12 10.2909 13.7909 8.5 16 8.5C18.2091 8.5 20 10.2909 20 12.5C20 12.7322 19.9804 12.9586 19.943 13.178Z" fill="black" fill-opacity="0.75"/>
</svg>
