<svg width="32" height="32" viewBox="0 0 32 32" fill="none" xmlns="http://www.w3.org/2000/svg">
<path d="M19.2714 25.4502C19.4931 25.4497 19.7065 25.3657 19.869 25.2149C19.9597 25.1292 20.0304 25.0246 20.0761 24.9085C20.1218 24.7925 20.1414 24.6677 20.1335 24.5432C20.1241 24.3176 20.0638 24.0971 19.9572 23.8981L18.2217 20.3918C18.14 20.2349 18.0572 20.0851 17.9731 19.9423C17.8959 19.8104 17.8099 19.6838 17.7158 19.5633L16.6457 18.0191L16.7065 17.8093C16.8394 17.4115 16.9501 17.0066 17.0379 16.5965C17.1142 16.2019 17.1636 15.8026 17.186 15.4013L17.3694 12.8628C17.4024 12.4809 17.3441 12.0966 17.1992 11.7417C17.0659 11.4129 16.8383 11.1308 16.5452 10.9308C16.2225 10.7219 15.8435 10.617 15.4593 10.6302C15.0106 10.6238 14.5702 10.7515 14.1945 10.9969C13.7574 11.2938 13.3504 11.6327 12.9791 12.0087L11.6358 13.3308C11.4338 13.5156 11.2695 13.7377 11.1519 13.9849C11.0565 14.2179 11.0019 14.4657 10.9906 14.7173L10.8275 16.8062C10.8104 16.925 10.8171 17.046 10.8474 17.1621C10.8777 17.2782 10.9309 17.387 11.0038 17.4823C11.0765 17.5683 11.1665 17.6381 11.268 17.687C11.3694 17.7359 11.48 17.7628 11.5926 17.7661C11.7005 17.7776 11.8095 17.7669 11.9131 17.7346C12.0166 17.7023 12.1124 17.6491 12.1946 17.5784C12.2828 17.491 12.3529 17.3871 12.4008 17.2726C12.4488 17.1581 12.4736 17.0353 12.474 16.9111L12.675 14.6195L13.4603 13.9302C13.4898 13.897 13.5287 13.8735 13.5719 13.863C13.615 13.8524 13.6603 13.8553 13.7018 13.8712C13.7436 13.8864 13.778 13.9168 13.7983 13.9564C13.8186 13.9959 13.8231 14.0417 13.8111 14.0845L13.6533 16.1364C13.6096 16.5809 13.6832 17.0292 13.8666 17.4364C14.0381 17.7994 14.2501 18.1418 14.4986 18.4571L16.2517 20.6465C16.3175 20.7244 16.3746 20.8092 16.4218 20.8995C16.4483 20.9583 16.4818 21.0282 16.5223 21.1093L18.3891 24.8773C18.4727 25.0625 18.6092 25.2189 18.7814 25.3268C18.9313 25.4098 19.1001 25.4523 19.2714 25.4502ZM11.3599 25.4502C11.4966 25.4535 11.6323 25.4253 11.7563 25.3678C11.8804 25.3104 11.9897 25.2252 12.0756 25.1188L14.6925 21.996C14.7884 21.8843 14.8745 21.7646 14.9499 21.6381C15.0083 21.5222 15.0593 21.4027 15.1024 21.2803C15.1429 21.1698 15.1779 21.0608 15.2073 20.9533C15.2366 20.8457 15.266 20.7367 15.2954 20.6263L13.8023 18.7868L13.3616 20.8537L10.8936 23.7755C10.7871 23.8956 10.6921 24.0255 10.6098 24.1634C10.5346 24.2978 10.4969 24.45 10.5005 24.6041C10.4964 24.7177 10.5164 24.8309 10.5592 24.9362C10.6021 25.0415 10.6668 25.1365 10.7491 25.2149C10.9137 25.3708 11.1333 25.4553 11.3599 25.4502V25.4502ZM19.6293 15.8032H21.5834C21.8258 15.8159 22.0641 15.7366 22.2506 15.5811C22.3334 15.5058 22.3986 15.4133 22.4415 15.31C22.4845 15.2067 22.5042 15.0952 22.4992 14.9835C22.5044 14.8698 22.4849 14.7562 22.442 14.6508C22.3991 14.5453 22.3338 14.4504 22.2506 14.3727C22.0622 14.214 21.8205 14.1331 21.5746 14.1462H19.5244L18.0912 12.5931L17.9361 14.8143L18.5531 15.4163C18.6784 15.5541 18.8359 15.6589 19.0114 15.7212C19.2116 15.7803 19.4197 15.808 19.6284 15.8032H19.6293ZM16.48 9.91539C16.825 9.91841 17.1643 9.82697 17.461 9.65097C17.756 9.47829 18.0022 9.23354 18.1767 8.93967C18.3516 8.65016 18.4431 8.31801 18.4412 7.97982C18.4457 7.62905 18.3543 7.28371 18.1767 6.98118C18.0033 6.68506 17.7569 6.43834 17.461 6.26459C17.1643 6.08859 16.825 5.99715 16.48 6.00017C16.1345 5.99548 15.7945 6.08704 15.4981 6.26459C15.2059 6.43909 14.9631 6.68547 14.793 6.9803C14.6166 7.28331 14.5252 7.62832 14.5286 7.97893C14.5278 8.31697 14.6193 8.64881 14.793 8.93879C14.9641 9.23169 15.2067 9.47642 15.4981 9.65009C15.7945 9.82795 16.1344 9.91982 16.48 9.91539Z" fill="black" fill-opacity="0.75"/>
</svg>
