<svg width="32" height="32" viewBox="0 0 32 32" fill="none" xmlns="http://www.w3.org/2000/svg">
<path d="M18.703 5.44747C16.8874 7.96953 17.7768 14.5503 17.7768 14.5503L21.8427 15.0937C23.4234 11.0387 23.9933 8.32717 22.9508 5.75247C22.1275 3.71927 19.7221 4.0318 18.703 5.44747Z" fill="black" fill-opacity="0.75"/>
<path d="M21.2087 16.6914L17.9619 15.9802C16.3455 18.4521 17.8035 20.3616 18.8589 20.3896C19.9143 20.4175 21.6407 20.0295 21.2087 16.6914Z" fill="black" fill-opacity="0.75"/>
<path d="M13.2087 11.5459C15.0927 14.0195 14.3803 20.6257 14.3803 20.6257L10.3282 21.2787C8.63793 17.2655 7.99486 14.5687 8.96827 11.9654C9.73696 9.90955 12.1512 10.1574 13.2087 11.5459Z" fill="black" fill-opacity="0.75"/>
<path d="M11.0054 22.8597L14.2338 22.0609C15.9171 24.4897 14.5102 26.4389 13.4553 26.4953C12.4004 26.5517 10.6633 26.2101 11.0054 22.8597Z" fill="black" fill-opacity="0.75"/>
</svg>
