<svg width="350" height="55" viewBox="0 0 350 55" fill="none" xmlns="http://www.w3.org/2000/svg">
<g clip-path="url(#clip0)">
<path d="M70 0L70 55" stroke="black" stroke-opacity="0.15"/>
<path d="M140 0L140 55" stroke="black" stroke-opacity="0.15"/>
<path d="M210 0L210 55" stroke="black" stroke-opacity="0.15"/>
<path d="M280 0V55" stroke="black" stroke-opacity="0.15"/>
<circle cx="105" cy="9" r="7" fill="#F6C281"/>
<circle cx="175" cy="9" r="7" fill="#F2A257"/>
<circle cx="245" cy="9" r="7" fill="#E9803A"/>
<circle cx="35" cy="9" r="7" fill="#F6D59E"/>
<circle cx="315" cy="9" r="7" fill="#DE5920"/>
<path d="M22.6133 33.4418L28.6133 36.0838V34.358L24.5607 32.7301V32.6534L28.6133 31.0256V29.2997L22.6133 31.9418V33.4418ZM36.3636 37.1193C38.3068 37.1193 39.6278 35.8537 39.6236 34.0895C39.6278 32.419 38.4602 31.2173 36.8878 31.2173C36.1207 31.2173 35.4602 31.5369 35.1534 31.9673H35.1023L35.3281 29.7812H39.142V28.2727H33.8068L33.3935 32.875L35.0341 33.169C35.3026 32.8068 35.8224 32.581 36.3381 32.581C37.2159 32.5852 37.8466 33.2202 37.8466 34.1364C37.8466 35.044 37.2287 35.6705 36.3636 35.6705C35.6307 35.6705 35.0384 35.2102 34.9957 34.5327H33.206C33.2401 36.0412 34.5568 37.1193 36.3636 37.1193ZM44.3324 37.1918C46.527 37.1918 47.8523 35.5213 47.8565 32.6449C47.8608 29.7898 46.5185 28.1534 44.3324 28.1534C42.142 28.1534 40.8125 29.7855 40.8082 32.6449C40.7997 35.5128 42.1335 37.1875 44.3324 37.1918ZM44.3324 35.6619C43.331 35.6619 42.6832 34.6562 42.6875 32.6449C42.6918 30.6634 43.3352 29.6662 44.3324 29.6662C45.3253 29.6662 45.973 30.6634 45.973 32.6449C45.9773 34.6562 45.3295 35.6619 44.3324 35.6619ZM27.8373 52.1278C29.0305 52.1278 29.4992 51.3991 29.7293 50.9815H29.8359V52H31.0802V43.2727H29.806V46.5156H29.7293C29.4992 46.1108 29.0646 45.3693 27.8458 45.3693C26.2648 45.3693 25.1015 46.6179 25.1015 48.7401C25.1015 50.858 26.2478 52.1278 27.8373 52.1278ZM28.1185 51.0412C26.9808 51.0412 26.3884 50.0398 26.3884 48.7273C26.3884 47.4276 26.968 46.4517 28.1185 46.4517C29.2308 46.4517 29.8273 47.3594 29.8273 48.7273C29.8273 50.1037 29.218 51.0412 28.1185 51.0412ZM33.001 52H36.3462C38.3746 52 39.2908 50.9901 39.2908 49.652C39.2908 48.3011 38.3447 47.5384 37.4797 47.4915V47.4062C38.2808 47.2017 38.9499 46.6562 38.9499 45.5653C38.9499 44.2741 38.055 43.2727 36.197 43.2727H33.001V52ZM34.3178 50.8707V48.0753H36.2652C37.322 48.0753 37.9825 48.7571 37.9825 49.5881C37.9825 50.321 37.4839 50.8707 36.2183 50.8707H34.3178ZM34.3178 47.0483V44.3935H36.1161C37.1601 44.3935 37.6587 44.9432 37.6587 45.6676C37.6587 46.5114 36.9683 47.0483 36.082 47.0483H34.3178Z" fill="black" fill-opacity="0.85"/>
<path d="M83.39 37.1193C85.3331 37.1193 86.6542 35.8537 86.6499 34.0895C86.6542 32.419 85.4866 31.2173 83.9141 31.2173C83.1471 31.2173 82.4866 31.5369 82.1797 31.9673H82.1286L82.3545 29.7812H86.1684V28.2727H80.8331L80.4198 32.875L82.0604 33.169C82.3289 32.8068 82.8488 32.581 83.3644 32.581C84.2422 32.5852 84.8729 33.2202 84.8729 34.1364C84.8729 35.044 84.255 35.6705 83.39 35.6705C82.657 35.6705 82.0647 35.2102 82.0221 34.5327H80.2323C80.2664 36.0412 81.5831 37.1193 83.39 37.1193ZM91.3587 37.1918C93.5533 37.1918 94.8786 35.5213 94.8829 32.6449C94.8871 29.7898 93.5448 28.1534 91.3587 28.1534C89.1684 28.1534 87.8388 29.7855 87.8346 32.6449C87.826 35.5128 89.1599 37.1875 91.3587 37.1918ZM91.3587 35.6619C90.3573 35.6619 89.7096 34.6562 89.7138 32.6449C89.7181 30.6634 90.3616 29.6662 91.3587 29.6662C92.3516 29.6662 92.9993 30.6634 92.9993 32.6449C93.0036 34.6562 92.3559 35.6619 91.3587 35.6619ZM102.451 31.9162H96.4512V33.3565H102.451V31.9162ZM107.306 37.1193C109.249 37.1193 110.57 35.8537 110.566 34.0895C110.57 32.419 109.403 31.2173 107.83 31.2173C107.063 31.2173 106.403 31.5369 106.096 31.9673H106.045L106.271 29.7812H110.084V28.2727H104.749L104.336 32.875L105.977 33.169C106.245 32.8068 106.765 32.581 107.28 32.581C108.158 32.5852 108.789 33.2202 108.789 34.1364C108.789 35.044 108.171 35.6705 107.306 35.6705C106.573 35.6705 105.981 35.2102 105.938 34.5327H104.148C104.182 36.0412 105.499 37.1193 107.306 37.1193ZM111.721 35.4659H115.91V37H117.674V35.4659H118.756V33.9872H117.674V28.2727H115.364L111.721 34.0128V35.4659ZM115.944 33.9872H113.579V33.919L115.876 30.2841H115.944V33.9872ZM121.812 35.8068H120.312L120.29 36.2841C120.239 37.4432 119.907 38.6321 119.783 39.1307H120.959C121.164 38.6151 121.65 37.4048 121.765 36.2756L121.812 35.8068ZM126.448 28.1534C124.496 28.1449 123.18 29.4233 123.188 31.179C123.192 32.8068 124.322 33.9872 125.869 33.9872C126.827 33.9872 127.68 33.5227 128.067 32.7557H128.127C128.123 34.4858 127.522 35.5384 126.384 35.5384C125.715 35.5384 125.234 35.1719 125.093 34.5369H123.273C123.444 36.0071 124.637 37.1193 126.384 37.1193C128.545 37.1193 129.938 35.3722 129.934 32.4105C129.93 29.2486 128.242 28.1619 126.448 28.1534ZM126.461 29.6023C127.309 29.6023 127.935 30.2926 127.944 31.1236C127.948 31.9588 127.288 32.6491 126.444 32.6491C125.592 32.6491 124.982 31.9844 124.978 31.1278C124.969 30.2756 125.604 29.6023 126.461 29.6023ZM99.0373 52.1278C100.23 52.1278 100.699 51.3991 100.929 50.9815H101.036V52H102.28V43.2727H101.006V46.5156H100.929C100.699 46.1108 100.265 45.3693 99.0458 45.3693C97.4648 45.3693 96.3015 46.6179 96.3015 48.7401C96.3015 50.858 97.4478 52.1278 99.0373 52.1278ZM99.3185 51.0412C98.1808 51.0412 97.5884 50.0398 97.5884 48.7273C97.5884 47.4276 98.168 46.4517 99.3185 46.4517C100.431 46.4517 101.027 47.3594 101.027 48.7273C101.027 50.1037 100.418 51.0412 99.3185 51.0412ZM104.201 52H107.546C109.575 52 110.491 50.9901 110.491 49.652C110.491 48.3011 109.545 47.5384 108.68 47.4915V47.4062C109.481 47.2017 110.15 46.6562 110.15 45.5653C110.15 44.2741 109.255 43.2727 107.397 43.2727H104.201V52ZM105.518 50.8707V48.0753H107.465C108.522 48.0753 109.183 48.7571 109.183 49.5881C109.183 50.321 108.684 50.8707 107.418 50.8707H105.518ZM105.518 47.0483V44.3935H107.316C108.36 44.3935 108.859 44.9432 108.859 45.6676C108.859 46.5114 108.168 47.0483 107.282 47.0483H105.518Z" fill="black" fill-opacity="0.85"/>
<path d="M153.859 37.1193C155.802 37.1193 157.123 35.8537 157.119 34.0895C157.123 32.419 155.955 31.2173 154.383 31.2173C153.616 31.2173 152.955 31.5369 152.648 31.9673H152.597L152.823 29.7812H156.637V28.2727H151.302L150.889 32.875L152.529 33.169C152.798 32.8068 153.318 32.581 153.833 32.581C154.711 32.5852 155.342 33.2202 155.342 34.1364C155.342 35.044 154.724 35.6705 153.859 35.6705C153.126 35.6705 152.533 35.2102 152.491 34.5327H150.701C150.735 36.0412 152.052 37.1193 153.859 37.1193ZM161.593 37.1193C163.536 37.1193 164.857 35.8537 164.853 34.0895C164.857 32.419 163.69 31.2173 162.117 31.2173C161.35 31.2173 160.69 31.5369 160.383 31.9673H160.332L160.558 29.7812H164.372V28.2727H159.036L158.623 32.875L160.264 33.169C160.532 32.8068 161.052 32.581 161.568 32.581C162.445 32.5852 163.076 33.2202 163.076 34.1364C163.076 35.044 162.458 35.6705 161.593 35.6705C160.86 35.6705 160.268 35.2102 160.225 34.5327H158.435C158.47 36.0412 159.786 37.1193 161.593 37.1193ZM172.393 31.9162H166.393V33.3565H172.393V31.9162ZM177.247 37.1193C179.191 37.1193 180.512 35.8537 180.507 34.0895C180.512 32.419 179.344 31.2173 177.772 31.2173C177.005 31.2173 176.344 31.5369 176.037 31.9673H175.986L176.212 29.7812H180.026V28.2727H174.691L174.277 32.875L175.918 33.169C176.186 32.8068 176.706 32.581 177.222 32.581C178.1 32.5852 178.73 33.2202 178.73 34.1364C178.73 35.044 178.113 35.6705 177.247 35.6705C176.515 35.6705 175.922 35.2102 175.88 34.5327H174.09C174.124 36.0412 175.441 37.1193 177.247 37.1193ZM184.952 28.1534C183 28.1449 181.684 29.4233 181.692 31.179C181.696 32.8068 182.826 33.9872 184.372 33.9872C185.331 33.9872 186.184 33.5227 186.571 32.7557H186.631C186.627 34.4858 186.026 35.5384 184.888 35.5384C184.219 35.5384 183.738 35.1719 183.597 34.5369H181.777C181.948 36.0071 183.141 37.1193 184.888 37.1193C187.049 37.1193 188.442 35.3722 188.438 32.4105C188.434 29.2486 186.746 28.1619 184.952 28.1534ZM184.965 29.6023C185.813 29.6023 186.439 30.2926 186.448 31.1236C186.452 31.9588 185.791 32.6491 184.948 32.6491C184.095 32.6491 183.486 31.9844 183.482 31.1278C183.473 30.2756 184.108 29.6023 184.965 29.6023ZM191.343 35.8068H189.843L189.822 36.2841C189.771 37.4432 189.438 38.6321 189.315 39.1307H190.491C190.695 38.6151 191.181 37.4048 191.296 36.2756L191.343 35.8068ZM195.979 28.1534C194.028 28.1449 192.711 29.4233 192.719 31.179C192.724 32.8068 193.853 33.9872 195.4 33.9872C196.359 33.9872 197.211 33.5227 197.599 32.7557H197.658C197.654 34.4858 197.053 35.5384 195.915 35.5384C195.246 35.5384 194.765 35.1719 194.624 34.5369H192.805C192.975 36.0071 194.168 37.1193 195.915 37.1193C198.076 37.1193 199.469 35.3722 199.465 32.4105C199.461 29.2486 197.773 28.1619 195.979 28.1534ZM195.992 29.6023C196.84 29.6023 197.467 30.2926 197.475 31.1236C197.479 31.9588 196.819 32.6491 195.975 32.6491C195.123 32.6491 194.513 31.9844 194.509 31.1278C194.501 30.2756 195.136 29.6023 195.992 29.6023ZM169.037 52.1278C170.23 52.1278 170.699 51.3991 170.929 50.9815H171.036V52H172.28V43.2727H171.006V46.5156H170.929C170.699 46.1108 170.265 45.3693 169.046 45.3693C167.465 45.3693 166.301 46.6179 166.301 48.7401C166.301 50.858 167.448 52.1278 169.037 52.1278ZM169.319 51.0412C168.181 51.0412 167.588 50.0398 167.588 48.7273C167.588 47.4276 168.168 46.4517 169.319 46.4517C170.431 46.4517 171.027 47.3594 171.027 48.7273C171.027 50.1037 170.418 51.0412 169.319 51.0412ZM174.201 52H177.546C179.575 52 180.491 50.9901 180.491 49.652C180.491 48.3011 179.545 47.5384 178.68 47.4915V47.4062C179.481 47.2017 180.15 46.6562 180.15 45.5653C180.15 44.2741 179.255 43.2727 177.397 43.2727H174.201V52ZM175.518 50.8707V48.0753H177.465C178.522 48.0753 179.183 48.7571 179.183 49.5881C179.183 50.321 178.684 50.8707 177.418 50.8707H175.518ZM175.518 47.0483V44.3935H177.316C178.36 44.3935 178.859 44.9432 178.859 45.6676C178.859 46.5114 178.168 47.0483 177.282 47.0483H175.518Z" fill="black" fill-opacity="0.85"/>
<path d="M223.364 37.1193C225.308 37.1278 226.633 35.8537 226.629 34.0767C226.633 32.4403 225.491 31.2599 223.944 31.2599C222.985 31.2599 222.137 31.7202 221.745 32.4915H221.685C221.694 30.7912 222.291 29.7344 223.428 29.7344C224.097 29.7344 224.579 30.1009 224.72 30.7102H226.539C226.364 29.2741 225.171 28.1534 223.428 28.1534C221.272 28.1534 219.887 29.9006 219.879 32.8324C219.874 36.0284 221.57 37.1108 223.364 37.1193ZM223.356 35.6705C222.504 35.6705 221.873 34.9844 221.873 34.1321C221.877 33.2841 222.521 32.5938 223.369 32.5938C224.221 32.5938 224.843 33.2628 224.839 34.1278C224.843 35.0014 224.208 35.6705 223.356 35.6705ZM231.359 37.1918C233.553 37.1918 234.879 35.5213 234.883 32.6449C234.887 29.7898 233.545 28.1534 231.359 28.1534C229.168 28.1534 227.839 29.7855 227.835 32.6449C227.826 35.5128 229.16 37.1875 231.359 37.1918ZM231.359 35.6619C230.357 35.6619 229.71 34.6562 229.714 32.6449C229.718 30.6634 230.362 29.6662 231.359 29.6662C232.352 29.6662 232.999 30.6634 232.999 32.6449C233.004 34.6562 232.356 35.6619 231.359 35.6619ZM242.451 31.9162H236.451V33.3565H242.451V31.9162ZM247.468 37.1193C249.411 37.1278 250.736 35.8537 250.732 34.0767C250.736 32.4403 249.594 31.2599 248.048 31.2599C247.089 31.2599 246.241 31.7202 245.849 32.4915H245.789C245.798 30.7912 246.394 29.7344 247.532 29.7344C248.201 29.7344 248.682 30.1009 248.823 30.7102H250.643C250.468 29.2741 249.275 28.1534 247.532 28.1534C245.376 28.1534 243.991 29.9006 243.982 32.8324C243.978 36.0284 245.674 37.1108 247.468 37.1193ZM247.459 35.6705C246.607 35.6705 245.977 34.9844 245.977 34.1321C245.981 33.2841 246.624 32.5938 247.472 32.5938C248.325 32.5938 248.947 33.2628 248.942 34.1278C248.947 35.0014 248.312 35.6705 247.459 35.6705ZM251.908 35.4659H256.097V37H257.861V35.4659H258.944V33.9872H257.861V28.2727H255.552L251.908 34.0128V35.4659ZM256.131 33.9872H253.766V33.919L256.063 30.2841H256.131V33.9872ZM261.999 35.8068H260.499L260.478 36.2841C260.427 37.4432 260.094 38.6321 259.971 39.1307H261.147C261.352 38.6151 261.837 37.4048 261.952 36.2756L261.999 35.8068ZM266.636 28.1534C264.684 28.1449 263.367 29.4233 263.376 31.179C263.38 32.8068 264.509 33.9872 266.056 33.9872C267.015 33.9872 267.867 33.5227 268.255 32.7557H268.315C268.31 34.4858 267.709 35.5384 266.572 35.5384C265.903 35.5384 265.421 35.1719 265.28 34.5369H263.461C263.631 36.0071 264.825 37.1193 266.572 37.1193C268.732 37.1193 270.126 35.3722 270.121 32.4105C270.117 29.2486 268.43 28.1619 266.636 28.1534ZM266.648 29.6023C267.496 29.6023 268.123 30.2926 268.131 31.1236C268.136 31.9588 267.475 32.6491 266.631 32.6491C265.779 32.6491 265.17 31.9844 265.165 31.1278C265.157 30.2756 265.792 29.6023 266.648 29.6023ZM239.037 52.1278C240.23 52.1278 240.699 51.3991 240.929 50.9815H241.036V52H242.28V43.2727H241.006V46.5156H240.929C240.699 46.1108 240.265 45.3693 239.046 45.3693C237.465 45.3693 236.301 46.6179 236.301 48.7401C236.301 50.858 237.448 52.1278 239.037 52.1278ZM239.319 51.0412C238.181 51.0412 237.588 50.0398 237.588 48.7273C237.588 47.4276 238.168 46.4517 239.319 46.4517C240.431 46.4517 241.027 47.3594 241.027 48.7273C241.027 50.1037 240.418 51.0412 239.319 51.0412ZM244.201 52H247.546C249.575 52 250.491 50.9901 250.491 49.652C250.491 48.3011 249.545 47.5384 248.68 47.4915V47.4062C249.481 47.2017 250.15 46.6562 250.15 45.5653C250.15 44.2741 249.255 43.2727 247.397 43.2727H244.201V52ZM245.518 50.8707V48.0753H247.465C248.522 48.0753 249.183 48.7571 249.183 49.5881C249.183 50.321 248.684 50.8707 247.418 50.8707H245.518ZM245.518 47.0483V44.3935H247.316C248.36 44.3935 248.859 44.9432 248.859 45.6676C248.859 46.5114 248.168 47.0483 247.282 47.0483H245.518Z" fill="black" fill-opacity="0.85"/>
<path d="M308.783 32.4574V30.9574L302.783 29.3381V30.7358L306.687 31.6776V31.7372L302.783 32.679V34.0767L308.783 32.4574ZM302.783 35.9474H308.783V34.5028H302.783V35.9474ZM316.695 37.1193C318.639 37.1278 319.964 35.8537 319.96 34.0767C319.964 32.4403 318.822 31.2599 317.275 31.2599C316.316 31.2599 315.468 31.7202 315.076 32.4915H315.017C315.025 30.7912 315.622 29.7344 316.759 29.7344C317.428 29.7344 317.91 30.1009 318.051 30.7102H319.87C319.695 29.2741 318.502 28.1534 316.759 28.1534C314.603 28.1534 313.218 29.9006 313.21 32.8324C313.205 36.0284 314.901 37.1108 316.695 37.1193ZM316.687 35.6705C315.835 35.6705 315.204 34.9844 315.204 34.1321C315.208 33.2841 315.852 32.5938 316.7 32.5938C317.552 32.5938 318.174 33.2628 318.17 34.1278C318.174 35.0014 317.539 35.6705 316.687 35.6705ZM324.455 37.1193C326.399 37.1193 327.72 35.8537 327.715 34.0895C327.72 32.419 326.552 31.2173 324.98 31.2173C324.213 31.2173 323.552 31.5369 323.245 31.9673H323.194L323.42 29.7812H327.234V28.2727H321.899L321.485 32.875L323.126 33.169C323.394 32.8068 323.914 32.581 324.43 32.581C325.308 32.5852 325.938 33.2202 325.938 34.1364C325.938 35.044 325.32 35.6705 324.455 35.6705C323.722 35.6705 323.13 35.2102 323.088 34.5327H321.298C321.332 36.0412 322.649 37.1193 324.455 37.1193ZM309.037 52.1278C310.23 52.1278 310.699 51.3991 310.929 50.9815H311.036V52H312.28V43.2727H311.006V46.5156H310.929C310.699 46.1108 310.265 45.3693 309.046 45.3693C307.465 45.3693 306.301 46.6179 306.301 48.7401C306.301 50.858 307.448 52.1278 309.037 52.1278ZM309.319 51.0412C308.181 51.0412 307.588 50.0398 307.588 48.7273C307.588 47.4276 308.168 46.4517 309.319 46.4517C310.431 46.4517 311.027 47.3594 311.027 48.7273C311.027 50.1037 310.418 51.0412 309.319 51.0412ZM314.201 52H317.546C319.575 52 320.491 50.9901 320.491 49.652C320.491 48.3011 319.545 47.5384 318.68 47.4915V47.4062C319.481 47.2017 320.15 46.6562 320.15 45.5653C320.15 44.2741 319.255 43.2727 317.397 43.2727H314.201V52ZM315.518 50.8707V48.0753H317.465C318.522 48.0753 319.183 48.7571 319.183 49.5881C319.183 50.321 318.684 50.8707 317.418 50.8707H315.518ZM315.518 47.0483V44.3935H317.316C318.36 44.3935 318.859 44.9432 318.859 45.6676C318.859 46.5114 318.168 47.0483 317.282 47.0483H315.518Z" fill="black" fill-opacity="0.85"/>
<path d="M40.7266 54L41.3275 52.2678H43.8843L44.4819 54H45.5302L43.1748 47.4545H42.0338L39.6783 54H40.7266ZM41.6151 51.4368L42.5803 48.6435H42.6314L43.5966 51.4368H41.6151Z" fill="black" fill-opacity="0.85"/>
<path d="M111.914 54L112.515 52.2678H115.072L115.669 54H116.718L114.362 47.4545H113.221L110.866 54H111.914ZM112.803 51.4368L113.768 48.6435H113.819L114.784 51.4368H112.803Z" fill="black" fill-opacity="0.85"/>
<path d="M181.852 54L182.452 52.2678H185.009L185.607 54H186.655L184.3 47.4545H183.159L180.803 54H181.852ZM182.74 51.4368L183.705 48.6435H183.756L184.722 51.4368H182.74Z" fill="black" fill-opacity="0.85"/>
<path d="M251.914 54L252.515 52.2678H255.072L255.669 54H256.718L254.362 47.4545H253.221L250.866 54H251.914ZM252.803 51.4368L253.768 48.6435H253.819L254.784 51.4368H252.803Z" fill="black" fill-opacity="0.85"/>
<path d="M321.914 54L322.515 52.2678H325.072L325.669 54H326.718L324.362 47.4545H323.221L320.866 54H321.914ZM322.803 51.4368L323.768 48.6435H323.819L324.784 51.4368H322.803Z" fill="black" fill-opacity="0.85"/>
</g>
<defs>
<clipPath id="clip0">
<rect width="350" height="55" fill="white"/>
</clipPath>
</defs>
</svg>
