<svg width="350" height="55" viewBox="0 0 350 55" fill="none" xmlns="http://www.w3.org/2000/svg">
<g clip-path="url(#clip0)">
<path d="M70 0L70 55" stroke="black" stroke-opacity="0.15"/>
<path d="M140 0L140 55" stroke="black" stroke-opacity="0.15"/>
<path d="M210 0L210 55" stroke="black" stroke-opacity="0.15"/>
<path d="M280 0V55" stroke="black" stroke-opacity="0.15"/>
<circle cx="315" cy="9" r="7" fill="#20664C"/>
<circle cx="245" cy="9" r="7" fill="#277C53"/>
<circle cx="175" cy="9" r="7" fill="#2F945C"/>
<circle cx="105" cy="9" r="7" fill="#36AA5F"/>
<circle cx="35" cy="9" r="7" fill="#3EC162"/>
<path d="M26.6562 33.4418L32.6562 36.0838V34.358L28.6037 32.7301V32.6534L32.6562 31.0256V29.2997L26.6562 31.9418V33.4418ZM40.445 37.1193C42.4052 37.1193 43.8072 36.0412 43.8029 34.5497C43.8072 33.4631 43.1168 32.6875 41.8342 32.5256V32.4574C42.81 32.2827 43.4833 31.5923 43.479 30.6122C43.4833 29.2358 42.2773 28.1534 40.4705 28.1534C38.6808 28.1534 37.3342 29.2017 37.3086 30.7102H39.0771C39.0984 30.0455 39.7077 29.6151 40.462 29.6151C41.2077 29.6151 41.7063 30.0668 41.7021 30.723C41.7063 31.4091 41.1225 31.8736 40.283 31.8736H39.4691V33.2287H40.283C41.2717 33.2287 41.8896 33.723 41.8853 34.4261C41.8896 35.1207 41.293 35.598 40.4492 35.598C39.6353 35.598 39.0259 35.1719 38.9918 34.5327H37.1339C37.1637 36.0582 38.5273 37.1193 40.445 37.1193ZM17.9093 52H19.1834V47.9645C19.1834 47.0824 19.8013 46.4688 20.5257 46.4688C21.2331 46.4688 21.7232 46.9375 21.7232 47.6491V52H22.9931V47.8281C22.9931 47.0398 23.4746 46.4688 24.3056 46.4688C24.9789 46.4688 25.5328 46.8438 25.5328 47.7301V52H26.807V47.6108C26.807 46.1151 25.9718 45.3693 24.7871 45.3693C23.8453 45.3693 23.138 45.821 22.8226 46.5199H22.7544C22.4689 45.804 21.8681 45.3693 20.9945 45.3693C20.1294 45.3693 19.486 45.7997 19.2132 46.5199H19.1323V45.4545H17.9093V52ZM30.2534 47.7045C31.5105 47.7045 32.4096 47.0568 32.4096 46.1705C32.4096 45.5312 31.9451 45.054 31.1099 44.9474V44.9091C31.7193 44.8153 32.2008 44.4148 32.2008 43.8011C32.2008 42.9659 31.4167 42.3352 30.2747 42.3352C29.1454 42.3352 28.2633 42.9574 28.2463 43.8651H29.2562C29.2733 43.4432 29.7207 43.1662 30.2704 43.1662C30.8074 43.1662 31.1738 43.456 31.1738 43.8608C31.1738 44.2912 30.7349 44.5767 30.1383 44.5767H29.6568V45.3523H30.1383C30.8627 45.3523 31.3187 45.6634 31.3187 46.0938C31.3187 46.5369 30.867 46.831 30.2534 46.831C29.6653 46.831 29.2179 46.5668 29.2008 46.1534H28.127C28.1483 47.0696 29.0389 47.7045 30.2534 47.7045ZM37.0534 42.8636H35.9157L33.1032 53.3125H34.2409L37.0534 42.8636ZM38.1358 52H39.41V47.9645C39.41 47.0824 40.0279 46.4688 40.7523 46.4688C41.4597 46.4688 41.9498 46.9375 41.9498 47.6491V52H43.2196V47.8281C43.2196 47.0398 43.7012 46.4688 44.5321 46.4688C45.2054 46.4688 45.7594 46.8438 45.7594 47.7301V52H47.0336V47.6108C47.0336 46.1151 46.1983 45.3693 45.0137 45.3693C44.0719 45.3693 43.3645 45.821 43.0492 46.5199H42.981C42.6955 45.804 42.0946 45.3693 41.2211 45.3693C40.356 45.3693 39.7125 45.7997 39.4398 46.5199H39.3588V45.4545H38.1358V52ZM48.4558 47.6364H52.47V46.7798H49.9728V46.7415L50.9615 45.9062C51.9245 45.1392 52.3464 44.6364 52.3464 43.9205C52.3464 43.0213 51.5623 42.3352 50.3904 42.3352C49.2271 42.3352 48.4004 42.9872 48.4004 43.9972H49.4103C49.4103 43.4901 49.7939 43.1662 50.3734 43.1662C50.9189 43.1662 51.3407 43.4602 51.3407 43.9375C51.3407 44.3636 51.0339 44.6619 50.4799 45.1435L48.4558 46.8778V47.6364Z" fill="black" fill-opacity="0.85"/>
<path d="M91.3385 37.1193C93.2987 37.1193 94.7007 36.0412 94.6964 34.5497C94.7007 33.4631 94.0103 32.6875 92.7277 32.5256V32.4574C93.7035 32.2827 94.3768 31.5923 94.3726 30.6122C94.3768 29.2358 93.1709 28.1534 91.364 28.1534C89.5743 28.1534 88.2277 29.2017 88.2021 30.7102H89.9706C89.9919 30.0455 90.6013 29.6151 91.3555 29.6151C92.1013 29.6151 92.5998 30.0668 92.5956 30.723C92.5998 31.4091 92.016 31.8736 91.1765 31.8736H90.3626V33.2287H91.1765C92.1652 33.2287 92.7831 33.723 92.7788 34.4261C92.7831 35.1207 92.1865 35.598 91.3427 35.598C90.5288 35.598 89.9194 35.1719 89.8853 34.5327H88.0274C88.0572 36.0582 89.4209 37.1193 91.3385 37.1193ZM102.275 31.9162H96.2754V33.3565H102.275V31.9162ZM103.811 35.4659H108V37H109.764V35.4659H110.846V33.9872H109.764V28.2727H107.454L103.811 34.0128V35.4659ZM108.034 33.9872H105.669V33.919L107.966 30.2841H108.034V33.9872ZM113.902 35.8068H112.402L112.38 36.2841C112.329 37.4432 111.997 38.6321 111.873 39.1307H113.049C113.254 38.6151 113.74 37.4048 113.855 36.2756L113.902 35.8068ZM118.538 28.1534C116.586 28.1449 115.269 29.4233 115.278 31.179C115.282 32.8068 116.412 33.9872 117.958 33.9872C118.917 33.9872 119.769 33.5227 120.157 32.7557H120.217C120.213 34.4858 119.612 35.5384 118.474 35.5384C117.805 35.5384 117.323 35.1719 117.183 34.5369H115.363C115.534 36.0071 116.727 37.1193 118.474 37.1193C120.635 37.1193 122.028 35.3722 122.024 32.4105C122.019 29.2486 120.332 28.1619 118.538 28.1534ZM118.551 29.6023C119.399 29.6023 120.025 30.2926 120.034 31.1236C120.038 31.9588 119.377 32.6491 118.534 32.6491C117.681 32.6491 117.072 31.9844 117.068 31.1278C117.059 30.2756 117.694 29.6023 118.551 29.6023ZM87.9093 52H89.1834V47.9645C89.1834 47.0824 89.8013 46.4688 90.5257 46.4688C91.2331 46.4688 91.7232 46.9375 91.7232 47.6491V52H92.9931V47.8281C92.9931 47.0398 93.4746 46.4688 94.3056 46.4688C94.9789 46.4688 95.5328 46.8438 95.5328 47.7301V52H96.807V47.6108C96.807 46.1151 95.9718 45.3693 94.7871 45.3693C93.8453 45.3693 93.138 45.821 92.8226 46.5199H92.7544C92.4689 45.804 91.8681 45.3693 90.9945 45.3693C90.1294 45.3693 89.486 45.7997 89.2132 46.5199H89.1323V45.4545H87.9093V52ZM100.253 47.7045C101.51 47.7045 102.41 47.0568 102.41 46.1705C102.41 45.5312 101.945 45.054 101.11 44.9474V44.9091C101.719 44.8153 102.201 44.4148 102.201 43.8011C102.201 42.9659 101.417 42.3352 100.275 42.3352C99.1454 42.3352 98.2633 42.9574 98.2463 43.8651H99.2562C99.2733 43.4432 99.7207 43.1662 100.27 43.1662C100.807 43.1662 101.174 43.456 101.174 43.8608C101.174 44.2912 100.735 44.5767 100.138 44.5767H99.6568V45.3523H100.138C100.863 45.3523 101.319 45.6634 101.319 46.0938C101.319 46.5369 100.867 46.831 100.253 46.831C99.6653 46.831 99.2179 46.5668 99.2008 46.1534H98.127C98.1483 47.0696 99.0389 47.7045 100.253 47.7045ZM107.053 42.8636H105.916L103.103 53.3125H104.241L107.053 42.8636ZM108.136 52H109.41V47.9645C109.41 47.0824 110.028 46.4688 110.752 46.4688C111.46 46.4688 111.95 46.9375 111.95 47.6491V52H113.22V47.8281C113.22 47.0398 113.701 46.4688 114.532 46.4688C115.205 46.4688 115.759 46.8438 115.759 47.7301V52H117.034V47.6108C117.034 46.1151 116.198 45.3693 115.014 45.3693C114.072 45.3693 113.365 45.821 113.049 46.5199H112.981C112.695 45.804 112.095 45.3693 111.221 45.3693C110.356 45.3693 109.713 45.7997 109.44 46.5199H109.359V45.4545H108.136V52ZM118.456 47.6364H122.47V46.7798H119.973V46.7415L120.961 45.9062C121.925 45.1392 122.346 44.6364 122.346 43.9205C122.346 43.0213 121.562 42.3352 120.39 42.3352C119.227 42.3352 118.4 42.9872 118.4 43.9972H119.41C119.41 43.4901 119.794 43.1662 120.373 43.1662C120.919 43.1662 121.341 43.4602 121.341 43.9375C121.341 44.3636 121.034 44.6619 120.48 45.1435L118.456 46.8778V47.6364Z" fill="black" fill-opacity="0.85"/>
<path d="M161.593 37.1193C163.536 37.1193 164.857 35.8537 164.853 34.0895C164.857 32.419 163.69 31.2173 162.117 31.2173C161.35 31.2173 160.69 31.5369 160.383 31.9673H160.332L160.558 29.7812H164.372V28.2727H159.036L158.623 32.875L160.264 33.169C160.532 32.8068 161.052 32.581 161.568 32.581C162.445 32.5852 163.076 33.2202 163.076 34.1364C163.076 35.044 162.458 35.6705 161.593 35.6705C160.86 35.6705 160.268 35.2102 160.225 34.5327H158.435C158.47 36.0412 159.786 37.1193 161.593 37.1193ZM172.393 31.9162H166.393V33.3565H172.393V31.9162ZM177.218 28.1534C175.266 28.1449 173.949 29.4233 173.958 31.179C173.962 32.8068 175.091 33.9872 176.638 33.9872C177.597 33.9872 178.449 33.5227 178.837 32.7557H178.897C178.892 34.4858 178.291 35.5384 177.154 35.5384C176.485 35.5384 176.003 35.1719 175.863 34.5369H174.043C174.213 36.0071 175.407 37.1193 177.154 37.1193C179.314 37.1193 180.708 35.3722 180.703 32.4105C180.699 29.2486 179.012 28.1619 177.218 28.1534ZM177.23 29.6023C178.078 29.6023 178.705 30.2926 178.713 31.1236C178.718 31.9588 178.057 32.6491 177.213 32.6491C176.361 32.6491 175.752 31.9844 175.747 31.1278C175.739 30.2756 176.374 29.6023 177.23 29.6023ZM183.609 35.8068H182.109L182.087 36.2841C182.036 37.4432 181.704 38.6321 181.58 39.1307H182.756C182.961 38.6151 183.447 37.4048 183.562 36.2756L183.609 35.8068ZM188.245 28.1534C186.293 28.1449 184.977 29.4233 184.985 31.179C184.989 32.8068 186.119 33.9872 187.665 33.9872C188.624 33.9872 189.477 33.5227 189.864 32.7557H189.924C189.92 34.4858 189.319 35.5384 188.181 35.5384C187.512 35.5384 187.03 35.1719 186.89 34.5369H185.07C185.241 36.0071 186.434 37.1193 188.181 37.1193C190.342 37.1193 191.735 35.3722 191.731 32.4105C191.727 29.2486 190.039 28.1619 188.245 28.1534ZM188.258 29.6023C189.106 29.6023 189.732 30.2926 189.741 31.1236C189.745 31.9588 189.084 32.6491 188.241 32.6491C187.388 32.6491 186.779 31.9844 186.775 31.1278C186.766 30.2756 187.401 29.6023 188.258 29.6023ZM157.909 52H159.183V47.9645C159.183 47.0824 159.801 46.4688 160.526 46.4688C161.233 46.4688 161.723 46.9375 161.723 47.6491V52H162.993V47.8281C162.993 47.0398 163.475 46.4688 164.306 46.4688C164.979 46.4688 165.533 46.8438 165.533 47.7301V52H166.807V47.6108C166.807 46.1151 165.972 45.3693 164.787 45.3693C163.845 45.3693 163.138 45.821 162.823 46.5199H162.754C162.469 45.804 161.868 45.3693 160.994 45.3693C160.129 45.3693 159.486 45.7997 159.213 46.5199H159.132V45.4545H157.909V52ZM170.253 47.7045C171.51 47.7045 172.41 47.0568 172.41 46.1705C172.41 45.5312 171.945 45.054 171.11 44.9474V44.9091C171.719 44.8153 172.201 44.4148 172.201 43.8011C172.201 42.9659 171.417 42.3352 170.275 42.3352C169.145 42.3352 168.263 42.9574 168.246 43.8651H169.256C169.273 43.4432 169.721 43.1662 170.27 43.1662C170.807 43.1662 171.174 43.456 171.174 43.8608C171.174 44.2912 170.735 44.5767 170.138 44.5767H169.657V45.3523H170.138C170.863 45.3523 171.319 45.6634 171.319 46.0938C171.319 46.5369 170.867 46.831 170.253 46.831C169.665 46.831 169.218 46.5668 169.201 46.1534H168.127C168.148 47.0696 169.039 47.7045 170.253 47.7045ZM177.053 42.8636H175.916L173.103 53.3125H174.241L177.053 42.8636ZM178.136 52H179.41V47.9645C179.41 47.0824 180.028 46.4688 180.752 46.4688C181.46 46.4688 181.95 46.9375 181.95 47.6491V52H183.22V47.8281C183.22 47.0398 183.701 46.4688 184.532 46.4688C185.205 46.4688 185.759 46.8438 185.759 47.7301V52H187.034V47.6108C187.034 46.1151 186.198 45.3693 185.014 45.3693C184.072 45.3693 183.365 45.821 183.049 46.5199H182.981C182.695 45.804 182.095 45.3693 181.221 45.3693C180.356 45.3693 179.713 45.7997 179.44 46.5199H179.359V45.4545H178.136V52ZM188.456 47.6364H192.47V46.7798H189.973V46.7415L190.961 45.9062C191.925 45.1392 192.346 44.6364 192.346 43.9205C192.346 43.0213 191.562 42.3352 190.39 42.3352C189.227 42.3352 188.4 42.9872 188.4 43.9972H189.41C189.41 43.4901 189.794 43.1662 190.373 43.1662C190.919 43.1662 191.341 43.4602 191.341 43.9375C191.341 44.3636 191.034 44.6619 190.48 45.1435L188.456 46.8778V47.6364Z" fill="black" fill-opacity="0.85"/>
<path d="M225.863 28.2727H224.128L221.968 29.6406V31.277L223.966 30.0241H224.017V37H225.863V28.2727ZM231.359 37.1918C233.553 37.1918 234.879 35.5213 234.883 32.6449C234.887 29.7898 233.545 28.1534 231.359 28.1534C229.168 28.1534 227.839 29.7855 227.835 32.6449C227.826 35.5128 229.16 37.1875 231.359 37.1918ZM231.359 35.6619C230.357 35.6619 229.71 34.6562 229.714 32.6449C229.718 30.6634 230.362 29.6662 231.359 29.6662C232.352 29.6662 232.999 30.6634 232.999 32.6449C233.004 34.6562 232.356 35.6619 231.359 35.6619ZM242.451 31.9162H236.451V33.3565H242.451V31.9162ZM247.915 28.2727H246.181L244.021 29.6406V31.277L246.019 30.0241H246.07V37H247.915V28.2727ZM249.858 35.4659H254.046V37H255.811V35.4659H256.893V33.9872H255.811V28.2727H253.501L249.858 34.0128V35.4659ZM254.081 33.9872H251.716V33.919L254.012 30.2841H254.081V33.9872ZM259.948 35.8068H258.448L258.427 36.2841C258.376 37.4432 258.044 38.6321 257.92 39.1307H259.096C259.301 38.6151 259.787 37.4048 259.902 36.2756L259.948 35.8068ZM264.585 28.1534C262.633 28.1449 261.316 29.4233 261.325 31.179C261.329 32.8068 262.458 33.9872 264.005 33.9872C264.964 33.9872 265.816 33.5227 266.204 32.7557H266.264C266.26 34.4858 265.659 35.5384 264.521 35.5384C263.852 35.5384 263.37 35.1719 263.23 34.5369H261.41C261.581 36.0071 262.774 37.1193 264.521 37.1193C266.681 37.1193 268.075 35.3722 268.071 32.4105C268.066 29.2486 266.379 28.1619 264.585 28.1534ZM264.598 29.6023C265.446 29.6023 266.072 30.2926 266.081 31.1236C266.085 31.9588 265.424 32.6491 264.581 32.6491C263.728 32.6491 263.119 31.9844 263.115 31.1278C263.106 30.2756 263.741 29.6023 264.598 29.6023ZM227.909 52H229.183V47.9645C229.183 47.0824 229.801 46.4688 230.526 46.4688C231.233 46.4688 231.723 46.9375 231.723 47.6491V52H232.993V47.8281C232.993 47.0398 233.475 46.4688 234.306 46.4688C234.979 46.4688 235.533 46.8438 235.533 47.7301V52H236.807V47.6108C236.807 46.1151 235.972 45.3693 234.787 45.3693C233.845 45.3693 233.138 45.821 232.823 46.5199H232.754C232.469 45.804 231.868 45.3693 230.994 45.3693C230.129 45.3693 229.486 45.7997 229.213 46.5199H229.132V45.4545H227.909V52ZM240.253 47.7045C241.51 47.7045 242.41 47.0568 242.41 46.1705C242.41 45.5312 241.945 45.054 241.11 44.9474V44.9091C241.719 44.8153 242.201 44.4148 242.201 43.8011C242.201 42.9659 241.417 42.3352 240.275 42.3352C239.145 42.3352 238.263 42.9574 238.246 43.8651H239.256C239.273 43.4432 239.721 43.1662 240.27 43.1662C240.807 43.1662 241.174 43.456 241.174 43.8608C241.174 44.2912 240.735 44.5767 240.138 44.5767H239.657V45.3523H240.138C240.863 45.3523 241.319 45.6634 241.319 46.0938C241.319 46.5369 240.867 46.831 240.253 46.831C239.665 46.831 239.218 46.5668 239.201 46.1534H238.127C238.148 47.0696 239.039 47.7045 240.253 47.7045ZM247.053 42.8636H245.916L243.103 53.3125H244.241L247.053 42.8636ZM248.136 52H249.41V47.9645C249.41 47.0824 250.028 46.4688 250.752 46.4688C251.46 46.4688 251.95 46.9375 251.95 47.6491V52H253.22V47.8281C253.22 47.0398 253.701 46.4688 254.532 46.4688C255.205 46.4688 255.759 46.8438 255.759 47.7301V52H257.034V47.6108C257.034 46.1151 256.198 45.3693 255.014 45.3693C254.072 45.3693 253.365 45.821 253.049 46.5199H252.981C252.695 45.804 252.095 45.3693 251.221 45.3693C250.356 45.3693 249.713 45.7997 249.44 46.5199H249.359V45.4545H248.136V52ZM258.456 47.6364H262.47V46.7798H259.973V46.7415L260.961 45.9062C261.925 45.1392 262.346 44.6364 262.346 43.9205C262.346 43.0213 261.562 42.3352 260.39 42.3352C259.227 42.3352 258.4 42.9872 258.4 43.9972H259.41C259.41 43.4901 259.794 43.1662 260.373 43.1662C260.919 43.1662 261.341 43.4602 261.341 43.9375C261.341 44.3636 261.034 44.6619 260.48 45.1435L258.456 46.8778V47.6364Z" fill="black" fill-opacity="0.85"/>
<path d="M309.809 32.4574V30.9574L303.809 29.3381V30.7358L307.712 31.6776V31.7372L303.809 32.679V34.0767L309.809 32.4574ZM303.809 35.9474H309.809V34.5028H303.809V35.9474ZM318.168 28.2727H316.434L314.273 29.6406V31.277L316.272 30.0241H316.323V37H318.168V28.2727ZM323.43 37.1193C325.373 37.1193 326.694 35.8537 326.69 34.0895C326.694 32.419 325.527 31.2173 323.954 31.2173C323.187 31.2173 322.527 31.5369 322.22 31.9673H322.169L322.395 29.7812H326.208V28.2727H320.873L320.46 32.875L322.1 33.169C322.369 32.8068 322.889 32.581 323.404 32.581C324.282 32.5852 324.913 33.2202 324.913 34.1364C324.913 35.044 324.295 35.6705 323.43 35.6705C322.697 35.6705 322.105 35.2102 322.062 34.5327H320.272C320.306 36.0412 321.623 37.1193 323.43 37.1193ZM297.909 52H299.183V47.9645C299.183 47.0824 299.801 46.4688 300.526 46.4688C301.233 46.4688 301.723 46.9375 301.723 47.6491V52H302.993V47.8281C302.993 47.0398 303.475 46.4688 304.306 46.4688C304.979 46.4688 305.533 46.8438 305.533 47.7301V52H306.807V47.6108C306.807 46.1151 305.972 45.3693 304.787 45.3693C303.845 45.3693 303.138 45.821 302.823 46.5199H302.754C302.469 45.804 301.868 45.3693 300.994 45.3693C300.129 45.3693 299.486 45.7997 299.213 46.5199H299.132V45.4545H297.909V52ZM310.253 47.7045C311.51 47.7045 312.41 47.0568 312.41 46.1705C312.41 45.5312 311.945 45.054 311.11 44.9474V44.9091C311.719 44.8153 312.201 44.4148 312.201 43.8011C312.201 42.9659 311.417 42.3352 310.275 42.3352C309.145 42.3352 308.263 42.9574 308.246 43.8651H309.256C309.273 43.4432 309.721 43.1662 310.27 43.1662C310.807 43.1662 311.174 43.456 311.174 43.8608C311.174 44.2912 310.735 44.5767 310.138 44.5767H309.657V45.3523H310.138C310.863 45.3523 311.319 45.6634 311.319 46.0938C311.319 46.5369 310.867 46.831 310.253 46.831C309.665 46.831 309.218 46.5668 309.201 46.1534H308.127C308.148 47.0696 309.039 47.7045 310.253 47.7045ZM317.053 42.8636H315.916L313.103 53.3125H314.241L317.053 42.8636ZM318.136 52H319.41V47.9645C319.41 47.0824 320.028 46.4688 320.752 46.4688C321.46 46.4688 321.95 46.9375 321.95 47.6491V52H323.22V47.8281C323.22 47.0398 323.701 46.4688 324.532 46.4688C325.205 46.4688 325.759 46.8438 325.759 47.7301V52H327.034V47.6108C327.034 46.1151 326.198 45.3693 325.014 45.3693C324.072 45.3693 323.365 45.821 323.049 46.5199H322.981C322.695 45.804 322.095 45.3693 321.221 45.3693C320.356 45.3693 319.713 45.7997 319.44 46.5199H319.359V45.4545H318.136V52ZM328.456 47.6364H332.47V46.7798H329.973V46.7415L330.961 45.9062C331.925 45.1392 332.346 44.6364 332.346 43.9205C332.346 43.0213 331.562 42.3352 330.39 42.3352C329.227 42.3352 328.4 42.9872 328.4 43.9972H329.41C329.41 43.4901 329.794 43.1662 330.373 43.1662C330.919 43.1662 331.341 43.4602 331.341 43.9375C331.341 44.3636 331.034 44.6619 330.48 45.1435L328.456 46.8778V47.6364Z" fill="black" fill-opacity="0.85"/>
</g>
<defs>
<clipPath id="clip0">
<rect width="350" height="55" fill="white"/>
</clipPath>
</defs>
</svg>
