<svg width="16" height="16" viewBox="0 0 16 16" fill="none" xmlns="http://www.w3.org/2000/svg">
<path d="M7.47366 2.89835L8.08143 3.34261L8.30034 3.24819L8.28755 3.01496L8.43467 2.82663L8.86 2.85723L9.17421 2.61669L8.64285 2.32562L8.8321 2.08689L9.24651 2.12185L9.47702 2L9.42144 2.42103L9.54787 2.58784L10.0535 2.91881L10.2826 2.92494L10.1841 3.49899L9.92023 3.6481L9.77287 4.20676L9.78986 4.41199L10.0107 4.88523L10.4494 4.86809L10.8927 5.01112L11.2353 5.28582L11.3689 5.4927L11.6838 5.60807L11.8418 6.40201L12.5516 6.57188L12.6963 6.79253L12.7256 7.08403L13.4279 7.0731L13.4684 7.21551L12.9721 7.66512L12.7318 8.41192L12.8618 8.45046L12.5434 8.91398L12.6052 9.26462L13.1826 8.94943L13.7296 9.1131L14.0896 9.40428L14.377 9.46384L14.4538 9.79064L14.5957 9.80437L14.5184 9.33532L14.8407 9.4947L15.1513 9.93168L15.608 9.99371L15.75 10.0872L15.5055 10.3887L15.215 11.2192L15.423 11.5293L15.2443 11.815L14.9184 11.8249L14.4719 12.2402L14.3505 12.4517L14.5911 12.7263L14.4353 12.9814L13.9673 13.0726L13.6537 13.643L13.4844 14.1386L13.2226 13.7832L13.2359 13.3114L13.389 13.1479L13.2966 12.6995L13.0852 12.7533L12.9723 12.5684L12.5044 12.8563L12.4761 12.6673L12.236 12.422L12.1492 12.1358L11.5126 12.3662L10.865 12.3556L10.7245 12.0533L10.4105 11.8978L9.68435 12.0998L9.5772 11.991L9.30764 11.2594L9.00775 11.29L8.20422 11.7714L8.43206 12.5503L8.293 12.9104L7.56051 12.869L7.52322 12.4748L7.1412 12.4918L7.17119 12.2928L6.88107 12.1277L6.50458 11.7998L6.50661 11.651L5.81496 12.1368L5.43476 11.5795L4.99116 11.9357L4.40418 11.9602L4.30124 11.3655L3.83041 11.3823L3.20899 11.604L2.36723 12.0947L2.36521 12.424L1.59346 12.3363L1.04412 11.8463L0.81237 11.8146L0.75 11.5184L1.29164 11.1514L1.49409 10.8257L1.19233 10.3629L1.20615 9.80825L1.35548 9.37381L1.59269 9.27541L2.0549 8.65433L2.47498 8.16659L1.84919 7.80016L1.31006 7.90853L1.34003 7.45314L1.56706 6.46444L1.70134 6.58286L1.94397 6.494L1.91121 6.27617L2.068 5.81469L1.96964 5.44462L1.59149 5.5933L1.5121 5.36167L1.94981 5.13467L2.28939 4.86635L3.10369 5.2142L3.48779 5.25131L3.49826 5.0401L3.13247 4.64229L3.5032 3.88695L3.52084 3.76209L4.49846 3.7696L4.6055 3.29241L4.92326 3.23135L4.87878 2.50855L5.42588 2.53429L5.28226 2.764L5.49509 3.15566L5.42944 3.38809L5.51558 3.64393L6.1284 3.87821L6.58624 3.84438L7.02612 3.60462L7.05833 3.41891L7.2903 3.28904L7.47366 2.89835Z" fill="black"/>
</svg>
