<svg width="202" height="107" viewBox="0 0 202 107" fill="none" xmlns="http://www.w3.org/2000/svg">
<path d="M100.237 89.7857L98.4011 88.19V86.9557L95.1908 89.1358L93.6511 90.1625L92.6926 91.066L92.1922 90.3432L89.3553 86.5943L89.5516 86.4405L89.6209 86.2329L89.4938 86.0522L88.2274 87.3287L86.8917 88.7167L86.0987 89.4511L85.2788 89.9241L84.4859 90.0779H84.0278L83.5274 89.9933L82.9308 89.6742L82.4996 89.5473H81.8722L80.7867 90.0894V89.8933C80.7867 89.8933 80.7867 89.5088 80.7867 89.4358C80.7443 89.2892 80.6929 89.1454 80.6327 89.0051L80.6058 88.5053C80.6058 88.5053 80.5519 87.7824 80.5519 87.7363C80.5519 87.6901 80.3556 86.9327 80.3556 86.9327L80.1323 86.2252L80.063 85.7177L79.7705 85.1217L78.7966 85.287L77.8227 85.3139C77.7804 85.3139 77.407 85.4677 77.407 85.4677L75.7942 85.3409L75.0243 85.7253L74.2044 86.1406L73.0073 86.8365L71.687 87.221L70.9633 87.4018L70.5052 87.4287L69.797 87.9439L63.7074 91.5966V92.1811L63.6535 92.8194L63.4726 93.7345L63.6804 93.7076L64.5965 93.5115L65.1932 93.373L66.0554 93.1077L66.1401 93.746L65.5435 94.2036L64.7082 94.2997L63.6111 94.4535L62.8182 94.2036L62.2215 94.1343L61.4016 94.0921L60.8165 93.869L60.7319 93.6614L60.1198 94.0921L59.4654 94.7457L58.838 95.4686L58.5724 95.8531C58.6778 95.9746 58.7937 96.0865 58.9188 96.1876C58.9881 96.2145 59.1421 96.4913 59.1421 96.4913L59.0728 96.8105L58.6879 96.8374L58.1182 96.4913C58.1182 96.4913 57.8141 96.2414 57.8141 96.1991C57.8141 96.1568 57.9103 95.5339 57.9103 95.5339L58.0643 95.3801L58.634 95.3263L58.9535 94.9802C58.9535 94.9802 59.4539 94.4804 59.4693 94.4381C59.4847 94.3958 59.9273 93.9536 59.9273 93.9536L59.4423 93.9805L59.3884 93.869L59.2614 93.646L59.8581 93.423L58.9535 93.077L58.8265 93.1616L58.6609 93.4269L58.3838 93.7037L57.9989 93.869L57.6139 94.0344C57.6139 94.0344 57.279 93.8383 57.229 93.8267C57.1789 93.8152 56.8441 93.5615 56.8441 93.5615L56.4822 93.0347L56.0357 92.5079L55.8548 92.3426L55.5353 92.2042L54.981 92.0388L54.5961 91.6774L54.5422 91.3852L54.2496 91.0391L54.0533 90.8853L54.0957 90.8007L54.292 90.5931L54.0957 90.4547H53.7107L53.7646 90.2317L53.9032 89.9971L54.0995 89.7472L54.265 89.3858V89.1628L53.7107 88.9551L53.6299 89.2089L53.7146 89.7511L53.5876 90.0433L53.2026 90.001H52.6175V89.5857L52.5328 89.0859L52.3673 89.0013L51.7399 89.2935L51.8246 89.5857L52.2095 89.9202V90.1702L51.7938 90.3355L51.5436 90.0856L51.0008 89.9587C50.836 89.9201 50.6804 89.8495 50.5428 89.7511C50.4157 89.6242 50.5851 89.2089 50.5851 89.2089L50.4196 88.7091L50.3349 88.0823L50 87.3748L50.2502 87.2903L51.0201 86.7058L51.6475 86.206L52.1056 85.437C52.2077 85.5009 52.3215 85.5441 52.4405 85.5639C52.6518 85.5925 52.8614 85.6336 53.0679 85.6869L53.3181 85.2293L54.0264 84.5219L54.5691 84.022L54.4036 83.1876L54.4883 82.9377L55.031 82.2725L55.8009 81.6458L56.4668 81.3536V80.9691L56.6323 80.6346L56.0896 80.177L55.5045 79.2619L55.2543 79.135L54.8694 79.0504L54.5345 78.6352L54.7 78.3852L54.2419 77.9277L53.6568 77.5124L53.7415 77.1779L53.9455 76.5627L54.0148 75.6476L53.9455 75.0209L53.5606 74.6864L53.6992 73.9789L53.6029 73.3829L53.4913 72.9984L54.1034 71.8026C54.1034 71.8026 54.4074 71.0106 54.4382 70.9683C54.469 70.926 54.6884 70.2608 54.6884 70.1993V69.8148V69.2457L56.3013 68.7305L57.5254 67.0079L58.8611 65.0854L60.4316 62.8092L61.6133 61.2712L62.7681 59.8255C62.8988 59.7071 63.0198 59.5785 63.13 59.441C63.2355 59.2726 63.3512 59.1108 63.4764 58.9565L63.6843 58.8873L61.9328 57.9837L61.4055 57.7607L60.4316 57.1647L59.4462 56.6649L59.0997 56.638L58.9458 56.2227L58.6263 55.9728L58.1105 56.0689L56.8595 56.4534C56.8595 56.4534 55.747 56.7879 55.7047 56.7879C55.6623 56.7879 54.8578 56.8994 54.8578 56.8994L53.8724 56.984L53.984 56.0381V55.3153V54.0734L54.0379 52.9199L54.1226 52.2239L54.5075 51.155L54.6461 50.5167L54.7308 49.4209L54.8424 48.8096L54.9964 47.5753L55.3813 45.9489L55.6046 44.8531L55.9895 45.1299C56.0969 45.2651 56.2126 45.3935 56.3359 45.5144L56.9056 45.722L57.56 45.8489L58.1028 45.8912C58.1748 45.8704 58.2445 45.842 58.3106 45.8066L58.4916 45.7528L58.5762 45.5182V45.3221L58.7572 45.0722V44.7685L58.6301 43.8534L58.3799 43.242L58.6571 42.8575L58.711 41.8309L59.0459 41.2195L59.2422 40.3852L59.5193 40.0238V39.4124L59.631 39.1894L59.604 37.9667C59.4748 37.5887 59.3257 37.2178 59.1575 36.8555C59.0535 36.677 58.9609 36.492 58.8803 36.3018L58.7418 36.1365L57.6293 36.7209L56.8248 37.0823H56.4399C56.1923 37.2136 55.9349 37.3254 55.67 37.4168C55.5584 37.4168 55.3659 37.0323 55.3659 37.0323L55.1696 36.4479L54.8347 36.421L54.9464 35.5866L54.6577 35.4636L54.6846 35.1868L54.8501 35.0483L55.2966 35.2713L56.1319 34.9676L56.4091 34.4947L57.4946 34.2716L58.3838 33.6872L59.1883 32.4376C59.3283 32.1648 59.4959 31.9071 59.6887 31.6686C59.8003 31.6147 60.5779 31.3341 60.5779 31.3341L61.3016 31.2226L61.8289 31.6955L62.0791 31.7801H62.4409L62.9144 32.1415L63.2493 32.2799L63.7497 32.3338L64.1962 32.4184L64.5311 32.5299H65.0508L65.3857 32.9143L65.8591 33.0528L66.3056 33.4142L66.8599 33.691L67.6644 33.7449L68.5806 34.1294L69.3851 34.5139L69.5506 33.9871L70.6361 33.9602L71.3328 34.1832L71.583 33.2373V32.7375L71.1981 32.1838L70.5861 31.7109L69.8162 31.1572L68.7499 29.8807L68.1187 29.0271L68.0455 28.3965L68.4536 28.062L68.954 27.6775L69.4005 26.6239L69.8278 25.6781L70.1241 24.9744L70.382 24.3631L70.767 23.9171L71.0634 22.9904L71.2674 22.2483V21.5063L72.2875 21.3948L72.326 21.5601H73.1228L73.8079 21.4486H74.3468C74.3468 21.4486 74.8857 21.3371 74.9589 21.3371C75.032 21.3371 75.3092 21.1717 75.3861 21.1717C75.4631 21.1717 75.8327 21.414 75.8866 21.414C75.9404 21.414 76.2368 21.4678 76.2368 21.4678L76.5332 21.3563H77.3493L78.073 21.2448C78.3263 21.1938 78.5844 21.1693 78.8428 21.1717C78.9929 21.2102 79.5857 21.3948 79.528 21.3755C79.4702 21.3563 79.4895 19.653 79.4895 19.653L79.4164 18.8378L79.2123 18.2649L78.8967 17.6536L78.8582 17.1153C78.8582 17.1153 79.859 17.3575 79.9322 17.3575C80.0053 17.3575 80.5057 17.3037 80.5057 17.3037L80.9522 17.1383L81.5835 17.1768C81.5835 17.1768 82.3534 16.9538 82.4342 16.9538C82.5859 16.9204 82.7351 16.8767 82.8807 16.8231L82.9539 13.2857H82.2879L82.4188 10.6749L83.5313 10.9518L84.3281 11.0248L85.402 10.9864L86.1257 10.8748L87.0149 10.7826L87.5538 11.3939L85.8293 12.7474L87.4614 15.635L87.6269 15.6734C87.6269 15.6734 87.4768 16.6347 87.4768 16.6923C87.4216 16.8111 87.3531 16.9233 87.2728 17.0268L87.3113 17.4882L87.2574 18.0611L87.777 19.1339L87.9272 19.7068L87.981 19.9836L86.7223 20.7526L87.8771 20.5873L88.5623 20.4566C88.8953 20.6027 89.2358 20.731 89.5824 20.8411C89.694 20.8411 90.4908 20.8795 90.4908 20.8795L92.1037 21.3601L93.2161 21.8792L93.7704 21.6562L94.5865 21.4717L95.9222 21.3409L96.0338 21.6562L96.719 21.3601L97.1655 21.4332L97.612 21.1564L98.0585 20.8988L98.9285 20.5835L99.1864 20.5104L99.5213 20.049L99.7445 19.9952L100.283 19.6799L100.668 19.1993L100.426 18.7532L100.965 17.7728L101.038 17.9227L101.296 17.6651L101.592 17.4998L101.519 17.3498L101.334 17.2768L101.719 17.0345H102.127L102.574 16.8115L102.759 16.5539L102.87 15.9618L102.832 15.312L103.24 14.7737L103.463 13.8124L103.544 13.624H103.971L104.025 13.4587L104.156 13.2549L105.249 14.2546L105.934 14.6391L106.269 14.9736C106.269 14.9736 107.039 14.566 107.085 14.6391C107.131 14.7122 107.308 14.9159 107.308 14.9159H107.586V15.3966C107.586 15.3966 108.217 16.0617 108.271 16.1002L109.529 16.8692L110.272 16.2386L110.958 16.3117L111.292 15.9772L111.108 15.1428V14.0316L112.262 13.6471L112.316 12.4936L112.855 12.309C112.855 12.309 113.467 12.1783 113.521 12.1783L114.391 12.1399L114.43 12.4167C114.903 12.4763 115.38 12.5071 115.858 12.509C115.896 12.4551 116.339 12.3782 116.339 12.3052C116.368 12.1495 116.405 11.9954 116.45 11.8438L116.859 11.6208L117.155 11.417L117.709 11.3247L117.952 10.8787L118.414 10.6365L118.34 10.0251L118.098 9.87515L116.173 9.74442C115.639 9.28365 115.076 8.85728 114.487 8.46789C114.207 8.39355 113.934 8.29447 113.671 8.17182L115.377 6.15319L116.581 6.5377L117.267 5.42649L117.471 5.48032L118.24 4.27684L118.518 4.4614L119.056 4L119.222 4.22301C119.222 4.22301 118.406 5.83407 118.425 5.8879L118.629 6.46079L120.816 5.23809L120.408 8.99465L121.612 10.2174L123.949 11.4747L124.469 11.64L125.897 12.8243L127.082 12.2706L127.398 12.8627H127.783L127.652 15.1043L127.132 17.5651L124.981 18.9724V20.8065L124.723 20.9718L123.833 23.5826L123.61 25.5051L124.057 25.3743L126.097 29.3001L128.841 28.9156L129.507 29.0271L130.489 29.2501L131.805 29.6576L133.457 30.1037V30.2882L134.531 30.8419L135.512 31.6109L136.421 32.3145L137.013 33.0374L137.514 33.7795L137.899 34.5754L139.03 34.1294L139.415 34.4062L139.619 34.9791L140.231 34.9407L140.678 36.0519L140.716 36.7555L140.959 37.3284L141.013 37.9013L141.105 38.455L141.49 39.0471L141.875 39.6008L141.783 40.2506V40.8427L141.69 41.4733L147.049 42.7499L148.642 42.9344L149.735 42.9729L151.368 43.2151L151.479 43.565L150.867 44.5839L150.421 44.5301C150.421 44.5301 150.347 44.6954 150.27 44.6954C150.175 44.6762 150.082 44.6452 149.993 44.6031C149.911 44.6427 149.824 44.6736 149.735 44.6954C149.682 44.6954 149.162 44.6416 149.162 44.6416L149.42 45.7528L149.289 45.9181L149.531 47.0101L150.217 46.9371L151.625 46.7525L153.073 46.9755L154.035 46.9217L155.39 46.7563L155.775 47.9406L154.924 48.7557L154.22 49.3286L153.535 49.9015L152.792 50.6244L151.995 51.5703L151.252 52.8276L150.917 53.8081L150.659 54.7155L150.436 55.8997L150.251 56.9379L150.07 57.8414L149.847 58.176L150.886 58.5105L150.182 59.7332L148.438 62.4247L148.307 64.0165L148.769 64.2741C148.769 64.2741 147.934 65.5314 147.999 65.5314C148.065 65.5314 148.704 65.7352 148.704 65.7352L149.089 65.3276L149.886 65.5853V66.1774H149.978V66.7503H150.22L150.274 66.6196L150.163 66.0467L150.548 65.9736L150.509 64.5279H151.102C151.102 64.5279 151.529 64.0665 151.583 64.028C151.637 63.9896 152.418 63.6782 152.418 63.6782L153.069 63.2706C153.307 63.0111 153.565 62.7695 153.839 62.5477C153.912 62.5477 154.655 62.64 154.655 62.64L155.602 63.086L156.083 63.1245L156.807 63.6243L157.438 63.9742C157.438 63.9742 157.753 63.9742 157.865 63.9742C158.08 63.9281 158.291 63.8664 158.496 63.7897L159.035 64.1242L159.924 64.7547L160.794 65.2161L161.145 65.8083C161.145 65.8083 161.626 66.1236 161.684 66.1428C161.741 66.162 162.257 66.2928 162.257 66.2928L163.443 66.4235L163.982 66.5158C163.982 66.5158 164.367 67.4424 164.367 67.4962C164.367 67.5501 164.42 68.1614 164.42 68.1614L164.717 68.6613V69.0688V69.3457L165.96 69.3995L166.091 68.8997V68.3268L165.979 67.8269L165.533 67.7346L165.31 66.4196L164.925 65.8275L164.701 65.2738H165.036L165.702 65.866L166.572 66.4196C166.788 66.5476 167.01 66.6644 167.238 66.7695H167.719L168.37 67.5847L168.87 68.5844C169.086 68.8082 169.315 69.0188 169.555 69.2149C169.774 69.411 169.978 69.6217 170.167 69.8455C170.167 69.8455 170.518 70.2723 170.614 70.2915C170.71 70.3108 171.522 70.33 171.522 70.33L171.673 70.1993L171.857 70.2377L171.911 70.403C171.911 70.403 173.282 70.6799 173.359 70.6799C173.436 70.6799 173.616 70.5146 173.616 70.5146C173.616 70.5146 174.802 70.9221 174.86 70.9221C174.917 70.9221 175.63 71.3066 175.63 71.3066L175.741 71.5296L175.926 71.4181L175.61 72.2871L176.184 72.3794L175.961 73.6944L177 73.8251L176.704 74.3634H175.649L175.891 72.7908L174.891 72.9753L173.736 74.0135L173.605 75.5515L172.835 75.6053L172.704 75.6591H171.934L171.23 75.4015L170.46 74.9401L169.829 74.4941L169.644 74.3288V74.7133L170.218 75.1747L170.849 75.5246L171.33 75.6553L171.85 75.7668L172.423 75.8053L172.977 75.936L172.939 76.9165L173.42 77.1395L173.308 77.5855L172.604 77.697L171.584 79.6772L171.638 80.0617L171.526 80.4116L171.395 80.9306L171.619 81.3574L171.934 81.7842L172.319 82.2841L172.265 82.5071L172.877 82.8224L173.12 83.2069L173.212 83.6875L172.75 84.0374L172.585 84.7602V85.2216L171.861 85.9906L171.657 85.9368L171.492 85.9753H171.326L170.991 86.1598L170.676 86.4751L170.175 86.5674L169.952 86.4367H169.567L169.344 86.2137L168.897 86.5097L168.562 86.8596L168.212 87.0634L168.139 87.321L167.896 87.5248L167.561 87.7478L167.265 87.9131L167.007 88.19H166.765L166.172 89.1358L166.118 88.8206L165.895 88.7821L165.822 89.3204L165.437 89.7818L165.14 90.2278L164.805 90.5777L164.509 90.893H164.174L163.989 90.9853L163.839 91.3698L164.116 91.6659L164.413 91.5736L165.467 92.1849L166.337 92.035L166.003 93.1885H166.503L166.634 93.2808V93.5961L166.411 94.0767L166.168 94.6688L165.783 95.3917L165.375 95.9107L165.487 96.2452C165.487 96.2452 165.152 96.2991 165.21 96.3183C165.267 96.3375 165.321 96.4836 165.321 96.4836L165.025 96.3721L164.748 96.4836H164.471L163.839 96.0761L163.412 95.8915L162.8 96.1145L161.984 96.6682L161.43 96.8182L161.206 97.3718L161.114 97.5564L160.891 97.6871L160.648 98.2062L160.556 99.279L160.594 99.7403C160.594 99.7403 160.167 99.7942 160.167 99.8518C160.138 99.9823 160.101 100.111 160.055 100.236L159.963 100.682L159.797 101.067L159.37 101.271V101.655L158.985 101.82V102.359L158.874 102.805L158.912 103.189L158.689 103.447L158.485 103.762L158.169 104.354V104.835C158.169 104.835 158.208 105.466 158.208 105.539C158.15 105.665 158.075 105.783 157.984 105.888L157.576 106L157.13 105.908L156.78 105.665H156.556C156.368 105.412 156.156 105.177 155.925 104.962C155.662 104.623 155.427 104.265 155.221 103.889L155.109 102.889V101.094C155.109 101.094 155.148 100.04 155.148 99.9826C155.148 99.9249 155.498 99.2405 155.498 99.2405L156.348 98.2024C156.532 98.006 156.699 97.7951 156.849 97.5718C156.849 97.4795 156.849 96.9989 156.849 96.9989L156.556 96.2914L155.706 96.1261L155.837 95.3109L155.594 93.9575L153.889 94.4573L152.815 92.9578L148.812 95.5685L148.904 94.9033L148.812 94.5535L148.7 94.3497L148.608 94.2574L148.792 93.9421L148.627 93.4038L148.219 93.1269C148.219 93.1269 148.069 92.7425 148.015 92.7194C147.9 92.6572 147.788 92.5892 147.68 92.5156L147.345 92.0888L146.771 91.9773L146.494 91.4967V91.2544L146.44 90.9968L146.236 90.9238L146.125 90.6469L146.236 90.297V90.0202L146.105 89.7626L145.882 89.5588L144.42 90.3278L143.511 90.5854C143.511 90.5854 142.741 90.8815 142.657 90.8815C142.469 90.9263 142.284 90.9815 142.102 91.0468C141.886 91.1748 141.664 91.2916 141.436 91.3967C141.382 91.3967 140.566 91.6736 140.566 91.6736H139.727H138.765C138.672 91.6736 137.949 91.712 137.949 91.712L137.179 91.7505H136.528L135.1 91.7889L135.046 91.216V90.5239L135.1 89.9702L135.285 89.1205L135.397 88.5091L135.528 88.1938C135.296 88.3522 135.055 88.4948 134.804 88.6206C134.536 88.7767 134.279 88.95 134.034 89.1397C134.034 89.1397 132.902 88.7129 132.791 88.6591L131.809 88.1592C131.658 88.106 131.504 88.0623 131.347 88.0285C131.274 88.0285 130.866 88.2707 130.774 88.2861C130.681 88.3015 129.661 88.6206 129.661 88.6206L128.53 88.8782L127.344 89.1743L125.77 89.7664L124.546 90.174L124.161 88.4322L123.587 87.1172C123.07 85.6982 122.476 84.3082 121.809 82.9531C121.624 82.9531 121.177 82.6955 121.039 82.6955C120.726 82.7476 120.417 82.8156 120.111 82.8993C120.111 82.8993 117.775 84.2527 117.702 84.2681C117.628 84.2835 116.331 84.9717 116.331 84.9717C115.908 85.2573 115.461 85.5056 114.995 85.7138C114.845 85.7138 112.717 86.5289 112.717 86.5289L112.678 87.3825L114.791 93.7883L114.641 94.4919L113.66 97.0642C113.66 97.0642 111.046 96.9527 110.823 96.9912C110.6 97.0296 107.578 96.8989 107.578 96.8989L107.17 93.623L103.983 93.7345C104.055 93.2066 104.098 92.6752 104.113 92.1426C104.06 92.1426 102.189 91.1429 102.189 91.1429L100.264 89.801L100.237 89.7857Z" fill="#EBE3DB"/>
</svg>
