<svg width="127" height="102" viewBox="0 0 127 102" fill="none" xmlns="http://www.w3.org/2000/svg">
<path d="M55.0566 8.32682L60.2752 11.8998L62.0885 11.0498L61.9204 9.0942L63.1065 7.47408L66.6855 7.62034L69.2609 5.51815L64.7238 3.21189L66.2505 1.1576L69.739 1.34326L71.6426 0.259766L71.2857 3.81042L72.3906 5.17855L76.7225 7.82652L78.6476 7.81832L77.9696 12.6654L75.7933 13.9865L74.7017 18.717L74.8978 20.4364L76.8757 24.3534L80.5545 24.0952L84.3138 25.181L87.2612 27.399L88.4371 29.1017L91.1112 29.9886L92.6444 36.6157L98.6478 37.8575L99.9205 39.673L100.242 42.1137L106.136 41.8389L106.514 43.0245L102.464 46.93L100.641 53.2649L101.742 53.5547L99.1894 57.5307L99.7999 60.4595L104.566 57.6619L109.201 58.8941L112.299 61.2458L114.728 61.6712L115.458 64.3959L116.653 64.4743L115.881 60.555L118.629 61.8096L121.351 65.3988L125.201 65.8008L126.418 66.5487L124.444 69.1448L122.221 76.1956L124.048 78.7459L122.623 81.1926L119.889 81.3607L116.248 84.9648L115.284 86.7731L117.375 89.0166L116.134 91.1997L112.228 92.0879L109.744 96.9603L108.452 101.167L106.161 98.2494L106.15 94.2841L107.393 92.8708L106.5 89.1287L104.739 89.6355L103.743 88.1118L99.8894 90.6518L99.6031 89.0721L97.5232 87.0743L96.72 84.6929L91.4349 86.7941L85.9951 86.8734L84.7365 84.371L82.0597 83.147L76.0155 85.0333L75.0875 84.1467L72.6336 78.0723L70.1237 78.4078L63.5029 82.6604L65.6188 89.1433L64.545 92.2034L58.3843 92.047L57.9685 88.7455L54.7655 88.9878L54.9655 87.3085L52.4866 85.998L49.2401 83.342L49.2184 82.0917L43.5379 86.3515L40.2006 81.7701L36.5689 84.877L31.6471 85.236L30.6278 80.2683L26.6791 80.5316L21.5194 82.5555L14.58 86.8966L14.6488 89.6624L8.14636 89.1273L3.40646 85.1547L1.45242 84.949L0.851562 82.4775L5.30355 79.2543L6.91836 76.4656L4.26421 72.6576L4.23566 67.9952L5.37621 64.3075L7.34222 63.4192L11.061 58.0825L14.4609 53.8765L9.11131 50.962L4.61298 52.0126L4.74597 48.18L6.39437 39.8169L7.55269 40.7765L9.56662 39.9669L9.23479 38.146L10.431 34.2292L9.50871 31.1467L6.37251 32.4939L5.64559 30.5691L9.26144 28.5486L12.0426 26.2065L18.97 28.9159L22.2047 29.1275L22.2375 27.3509L19.0626 24.105L21.9784 17.6644L22.094 16.6111L30.304 16.4195L31.0784 12.3837L33.7304 11.7882L33.1685 5.72899L37.7687 5.80261L36.6227 7.7694L38.5117 11.0034L38.0211 12.9727L38.8109 15.099L44.0172 16.907L47.8524 16.5037L51.4831 14.3753L51.7051 12.8072L53.619 11.656L55.0566 8.32682Z" fill="#EBE3DB"/>
</svg>
