<svg width="28" height="161" viewBox="0 0 28 161" fill="none" xmlns="http://www.w3.org/2000/svg">
<path d="M5.17307 67.4556L5.17307 66.5015C4.71626 66.5015 4.24752 66.4893 3.84897 66.479L3.84772 66.479L3.84711 66.479L3.83751 66.479L3.83662 66.479L3.83252 66.4789L3.831 66.4788L3.82738 66.4787C3.54065 66.4712 3.2915 66.4648 3.11108 66.4648C1.91729 66.4648 1.44701 66.8684 1.44701 67.6024C1.44701 68.0061 1.62789 68.3731 1.84494 68.63L-4.03762e-06 68.63L-3.99591e-06 69.5841L5.13689 69.5841L5.13689 68.63L2.45992 68.63C2.27904 68.3731 2.17052 68.1162 2.17052 67.9327C2.17052 67.6024 2.38757 67.4189 3.25578 67.4189C3.42275 67.4189 3.6534 67.4254 3.92103 67.4329L3.92155 67.4329C4.29164 67.4433 4.73235 67.4556 5.17307 67.4556Z" fill="black"/>
<path d="M0.252945 161L21.2346 161L21.2346 154.578L13.9272 154.578L13.9272 145.733L8.93503 145.733L8.93503 154.578L5.24514 154.578L5.24514 144.999L0.252944 144.999L0.252945 161Z" fill="black"/>
<path d="M3.54546 113.181L3.54546 119.787L10.1656 119.787L10.1656 113.181L3.54546 113.181Z" fill="black"/>
<path d="M20.6926 113.181C23.659 113.181 25.9018 113.878 28 116.594L25.5401 119.566C24.0931 118.025 23.0078 117.511 21.2352 117.475L21.2352 119.86L14.5789 119.86L14.5789 113.181L20.6926 113.181Z" fill="black"/>
<path d="M21.2346 130.063L13.0228 130.063L13.0228 136.302L21.2346 136.302L21.2346 142.871L0.252944 142.871L0.252944 136.302L7.63272 136.302L7.63272 130.1L0.252943 130.1L0.252943 123.495L21.2346 123.495L21.2346 130.063Z" fill="black"/>
<path fill-rule="evenodd" clip-rule="evenodd" d="M0.252943 109.438L21.2346 109.438L21.2346 102.906L14.6507 102.906L14.6507 99.6763C14.6507 96.3734 14.1443 94.4284 13.0952 92.9604C11.8652 91.2356 9.76706 90.2814 7.34331 90.2814C4.73869 90.2814 2.74904 91.1989 1.51908 93.0705C0.687048 94.355 0.252942 96.1532 0.252942 100.337L0.252943 109.438ZM9.18825 97.6946C9.58618 98.2084 9.76706 99.1258 9.76706 100.41L9.76706 102.906L5.28132 102.906L5.28132 100.3C5.28132 98.9423 5.42602 98.1717 5.86012 97.6946C6.29423 97.2175 6.87303 97.034 7.52419 97.034C8.21152 97.034 8.79033 97.2175 9.18825 97.6946Z" fill="black"/>
<path d="M1.01263 78.869L2.38729 78.869L2.38729 77.4744L3.1108 77.4744L3.1108 78.869L5.17279 78.869L5.17279 79.8598L0.252941 79.8598L0.252941 77.2909L1.01263 77.2909L1.01263 78.869Z" fill="black"/>
<path fill-rule="evenodd" clip-rule="evenodd" d="M4.81132 74.6113L5.17307 74.5379L5.17307 73.8039L2.56845 73.8039C1.88111 73.8039 1.44701 74.2443 1.44701 75.1985C1.44701 75.7857 1.59171 76.2628 1.77259 76.7031L2.35139 76.5931C2.24287 76.2628 2.13434 75.8224 2.13434 75.4554C2.13434 74.9783 2.31522 74.7581 2.67697 74.7581L2.96637 74.7581L2.96637 74.9783C2.96637 76.2628 3.47283 76.8866 4.23251 76.8866C4.91984 76.8866 5.2816 76.483 5.2816 75.749C5.2816 75.2719 5.06454 74.9416 4.81132 74.6113ZM3.509 75.0517L3.509 74.7581L4.23251 74.7581C4.44956 74.9783 4.55809 75.2352 4.55809 75.4554C4.55809 75.7857 4.37721 75.9692 4.08781 75.9692C3.72606 75.9692 3.509 75.7857 3.509 75.0517Z" fill="black"/>
<path d="M5.24542 71.4922C5.24542 72.4831 4.63044 72.9602 3.40048 72.9602C2.24287 72.9602 1.44701 72.373 1.44701 71.4188C1.44701 70.9417 1.62789 70.5747 1.91729 70.3178L2.38757 70.6481C2.24287 70.8316 2.13434 71.0151 2.13434 71.272C2.13434 71.7124 2.53227 71.9693 3.29195 71.9693C4.19634 71.9693 4.52191 71.7124 4.52191 71.3087C4.52191 71.0151 4.41339 70.7582 4.23251 70.538L4.70279 70.2444C4.99219 70.5013 5.24542 70.905 5.24542 71.4922Z" fill="black"/>
<path d="M5.17307 62.3542L5.17307 63.3084C4.73235 63.3084 4.29164 63.296 3.92155 63.2857L3.92103 63.2856C3.6534 63.2781 3.42275 63.2717 3.25578 63.2717C2.38757 63.2717 2.17052 63.4552 2.17052 63.7855C2.17052 63.9689 2.27904 64.2258 2.45992 64.4827L5.13689 64.4827L5.13689 65.4369L-4.1772e-06 65.4369L-4.2189e-06 64.4827L1.84494 64.4827C1.62789 64.2258 1.44701 63.8589 1.44701 63.4552C1.44701 62.7212 1.91729 62.3175 3.11108 62.3175C3.2915 62.3175 3.54065 62.324 3.82738 62.3315L3.831 62.3316L3.83252 62.3316L3.83662 62.3317L3.83751 62.3317L3.84711 62.3317L3.84763 62.3318L3.84897 62.3318C4.24752 62.3421 4.71626 62.3542 5.17307 62.3542Z" fill="black"/>
<path fill-rule="evenodd" clip-rule="evenodd" d="M3.40062 61.5104C4.70294 61.5104 5.24557 60.9232 5.24557 59.859C5.24557 58.758 4.63058 58.0607 3.25592 58.0607C1.95361 58.0607 1.41098 58.6479 1.41098 59.7122C1.41098 60.8131 2.06213 61.5104 3.40062 61.5104ZM3.25592 60.5195C2.42389 60.5195 2.13448 60.226 2.13448 59.7856C2.13448 59.3085 2.38771 59.0149 3.43679 59.0516C4.26883 59.0516 4.55823 59.3452 4.55823 59.7856C4.55823 60.2626 4.26883 60.5195 3.25592 60.5195Z" fill="black"/>
<path d="M5.24542 55.8952C5.24542 56.8861 4.63044 57.3632 3.40048 57.3632C2.24287 57.3632 1.44701 56.776 1.44701 55.8218C1.44701 55.3447 1.62789 54.9777 1.91729 54.7209L2.38757 55.0511C2.24287 55.2346 2.13434 55.4181 2.13434 55.675C2.13434 56.1154 2.53227 56.3723 3.29195 56.3723C4.19634 56.3723 4.52191 56.1154 4.52191 55.7117C4.52191 55.4181 4.41339 55.1612 4.23251 54.941L4.70279 54.6474C4.99219 54.941 5.24542 55.3447 5.24542 55.8952Z" fill="black"/>
<path d="M5.17307 51.8945L5.17307 50.9403C4.71626 50.9403 4.24752 50.9282 3.84897 50.9179L3.84772 50.9179L3.84711 50.9178L3.83751 50.9178L3.83662 50.9178L3.83252 50.9177L3.831 50.9177L3.82738 50.9176C3.54065 50.9101 3.2915 50.9036 3.11107 50.9036C1.91729 50.9036 1.44701 51.3073 1.44701 52.0413C1.44701 52.4449 1.62789 52.8119 1.84494 53.0688L-4.71782e-06 53.0688L-4.67611e-06 54.023L5.13689 54.023L5.13689 53.0688L2.45992 53.0688C2.27904 52.8119 2.17052 52.555 2.17052 52.3716C2.17052 52.0413 2.38757 51.8578 3.25578 51.8578C3.42274 51.8578 3.6534 51.8642 3.92103 51.8717L3.92155 51.8717C4.29164 51.8821 4.73235 51.8945 5.17307 51.8945Z" fill="black"/>
<path d="M5.24557 48.9961C5.24557 49.3998 5.13704 49.8035 4.95616 50.1338L4.44971 50.0604C4.55823 49.62 4.55823 49.3998 4.55823 49.1429C4.55823 48.6658 4.37736 48.4823 4.1603 48.4823C3.90708 48.4823 3.79855 48.5924 3.61767 49.1429C3.36444 49.8402 3.07504 50.1338 2.53241 50.1338C1.88125 50.1338 1.41097 49.5833 1.41097 48.7759C1.41097 48.4456 1.48333 48.1154 1.6642 47.7484L2.17066 47.8585C2.09831 48.152 2.06213 48.3722 2.06213 48.5924C2.06213 48.9594 2.24301 49.1429 2.42388 49.1429C2.64094 49.1429 2.74946 49.0328 2.93034 48.4823C3.18357 47.7484 3.50915 47.4915 4.05178 47.4915C4.73911 47.4915 5.24557 48.0419 5.24557 48.9961Z" fill="black"/>
<path d="M3.40048 46.8667C4.63044 46.8667 5.24542 46.3896 5.24542 45.3988C5.24542 44.8483 4.99219 44.4446 4.70279 44.151L4.23251 44.4446C4.41339 44.6648 4.52191 44.9217 4.52191 45.2153C4.52191 45.619 4.19634 45.8759 3.29195 45.8759C2.53227 45.8759 2.13434 45.619 2.13434 45.1786C2.13434 44.9217 2.24287 44.7382 2.38757 44.5547L1.91729 44.2244C1.62789 44.4813 1.44701 44.8483 1.44701 45.3254C1.44701 46.2795 2.24287 46.8667 3.40048 46.8667Z" fill="black"/>
<path d="M5.17307 40.4453L5.17307 41.3995C4.73235 41.3995 4.29164 41.3871 3.92155 41.3767C3.6537 41.3692 3.42285 41.3628 3.25578 41.3628C2.38757 41.3628 2.17052 41.5463 2.17052 41.8766C2.17052 42.06 2.27904 42.3169 2.45992 42.5738L5.13689 42.5738L5.13689 43.528L-5.13486e-06 43.528L-5.17657e-06 42.5738L1.84494 42.5738C1.62789 42.3169 1.44701 41.95 1.44701 41.5463C1.44701 40.8123 1.91729 40.4086 3.11107 40.4086C3.2915 40.4086 3.54065 40.4151 3.82738 40.4226L3.831 40.4227L3.83252 40.4227L3.83662 40.4228L3.83751 40.4228L3.84711 40.4228L3.84763 40.4229L3.84897 40.4229C4.24752 40.4332 4.71626 40.4453 5.17307 40.4453Z" fill="black"/>
<path d="M4.77486 37.1421L5.17279 37.0687L5.17279 36.2614L1.51908 36.2614L1.51908 37.2155L4.19605 37.2155C4.37693 37.4724 4.48545 37.6926 4.48545 37.9128C4.48545 38.2431 4.30458 38.4266 3.43637 38.4266C3.24947 38.4266 3.00222 38.4197 2.72349 38.4118L2.71982 38.4117L2.71898 38.4117L2.71063 38.4117C2.34499 38.4015 1.9263 38.3899 1.51908 38.3899L1.51908 39.3441C1.96845 39.3441 2.41782 39.3558 2.80859 39.366L2.80993 39.366C3.11059 39.3738 3.37668 39.3808 3.58107 39.3808C4.77486 39.3808 5.24514 39.0138 5.24514 38.2431C5.24514 37.8394 5.06426 37.4724 4.77486 37.1421Z" fill="black"/>
<path d="M5.24542 34.4995C5.24542 34.9766 5.10072 35.2335 4.52191 35.2335L-5.49743e-06 35.2335L-5.53914e-06 34.2793L4.12398 34.2793C4.52191 34.2793 4.59426 34.2426 4.59426 34.0224L4.59426 33.839L5.13689 33.8023C5.20924 33.9857 5.24542 34.2059 5.24542 34.4995Z" fill="black"/>
<path fill-rule="evenodd" clip-rule="evenodd" d="M3.58135 32.3713L3.54518 32.3713L3.54518 30.1694C1.98964 30.0592 1.44701 30.6831 1.44701 31.6373C1.44701 32.6649 2.13434 33.3254 3.43665 33.3254C4.77514 33.3254 5.24542 32.6649 5.24542 31.7107C5.24542 31.1602 5.06454 30.6097 4.84749 30.1694L4.30486 30.3162C4.44956 30.7565 4.52191 31.1969 4.52191 31.5272C4.52191 32.0777 4.26868 32.3713 3.58135 32.3713ZM2.06199 31.7107C2.06199 31.307 2.35139 31.1235 2.9302 31.1235L2.9302 32.3713C2.42374 32.3346 2.06199 32.1144 2.06199 31.7107Z" fill="black"/>
<path fill-rule="evenodd" clip-rule="evenodd" d="M3.50872 26.0949L3.50872 26.3151L5.17279 26.3151L5.17279 27.306L0.252939 27.306L0.252939 25.838C0.252939 24.4802 0.867922 24.0031 1.80848 24.0031C2.78521 24.0031 3.50872 24.5536 3.50872 26.0949ZM0.940272 26.0215L0.940272 26.3151L2.78521 26.3151L2.78521 26.0215C2.78521 25.361 2.45964 25.0674 1.88083 25.0674C1.26585 25.0674 0.940272 25.3242 0.940272 26.0215Z" fill="black"/>
<path fill-rule="evenodd" clip-rule="evenodd" d="M3.40062 23.5271C4.70293 23.5271 5.24556 22.94 5.24556 21.8757C5.24556 20.7747 4.63058 20.0775 3.25592 20.0775C1.9536 20.0775 1.41097 20.6647 1.41097 21.7289C1.41097 22.8299 2.06213 23.5271 3.40062 23.5271ZM3.25592 22.5363C2.42388 22.5363 2.13448 22.2427 2.13448 21.8023C2.13448 21.3252 2.38771 21.0683 3.43679 21.0683C4.26883 21.0683 4.55823 21.3619 4.55823 21.8023C4.55823 22.2794 4.26883 22.5363 3.25592 22.5363Z" fill="black"/>
<path d="M5.2457 18.2425C5.2457 18.9398 4.99247 19.1967 4.30514 19.1967L2.1708 19.1967L2.1708 19.6738L1.51964 19.6738L1.51964 19.16C1.19406 19.0866 0.868485 19.0132 0.470556 18.9398L0.470556 18.2425L1.51964 18.2425L1.51964 17.4352L2.1708 17.4352L2.1708 18.2425L4.05192 18.2425C4.41367 18.2425 4.55837 18.1691 4.55837 17.9122C4.55837 17.8021 4.55837 17.6553 4.48602 17.3985L5.02865 17.3251C5.17335 17.6553 5.2457 17.9489 5.2457 18.2425Z" fill="black"/>
<path d="M4.95616 16.8468C5.13704 16.5165 5.24556 16.1128 5.24556 15.7092C5.24556 14.755 4.73911 14.1678 4.05178 14.1678C3.50914 14.1678 3.18357 14.4247 2.93034 15.1587C2.74946 15.7092 2.64094 15.8192 2.42388 15.8192C2.24301 15.8192 2.06213 15.6358 2.06213 15.2688C2.06213 15.0486 2.09831 14.8284 2.17066 14.5348L1.6642 14.4614C1.48332 14.8284 1.41097 15.1587 1.41097 15.489C1.41097 16.2963 1.88125 16.8468 2.53241 16.8468C3.07504 16.8468 3.36444 16.5532 3.61767 15.8559C3.79855 15.3055 3.90708 15.1954 4.1603 15.1954C4.37736 15.1954 4.55823 15.3789 4.55823 15.8559C4.55823 16.1128 4.55823 16.333 4.44971 16.7734L4.95616 16.8468Z" fill="black"/>
<path fill-rule="evenodd" clip-rule="evenodd" d="M5.17307 11.1585L4.81131 11.2319C5.06454 11.5255 5.28159 11.8925 5.28159 12.2595C5.28159 13.1402 4.48574 13.5439 3.509 13.5439C2.02581 13.5439 1.44701 12.7366 1.44701 11.709C1.44701 11.5622 1.44701 11.3787 1.48318 11.3053L-6.54336e-06 11.3053L-6.58507e-06 10.3511L5.17307 10.3511L5.17307 11.1585ZM2.17051 11.342C2.13434 11.4888 2.09816 11.6356 2.09816 11.7824C2.09816 12.2595 2.49609 12.5898 3.3643 12.5898C4.12398 12.5898 4.52191 12.3696 4.52191 11.9659C4.52191 11.7824 4.41339 11.5622 4.23251 11.3053L2.17051 11.3053L2.17051 11.342Z" fill="black"/>
<path fill-rule="evenodd" clip-rule="evenodd" d="M4.81131 7.26903L5.17307 7.19562L5.17307 6.46164L2.56844 6.46164C1.88111 6.46164 1.44701 6.90202 1.44701 7.85619C1.44701 8.44336 1.59171 8.92046 1.77259 9.36084L2.35139 9.25075C2.24286 8.92047 2.13434 8.48007 2.13434 8.11308C2.13434 7.636 2.31522 7.41582 2.67697 7.41582L2.96637 7.41582L2.96637 7.636C2.96637 8.92047 3.47283 9.54434 4.23251 9.54434C4.91984 9.54434 5.28159 9.14064 5.28159 8.40666C5.28159 7.9296 5.06454 7.5993 4.81131 7.26903ZM3.509 7.7094L3.509 7.41582L4.23251 7.41582C4.44956 7.636 4.55809 7.8929 4.55809 8.11308C4.55809 8.44337 4.37721 8.62686 4.08781 8.62686C3.72605 8.62686 3.509 8.44337 3.509 7.7094Z" fill="black"/>
<path d="M5.17307 0.295975L5.17307 1.25014C4.76633 1.25014 4.34816 1.23854 3.98283 1.22841L3.98189 1.22836L3.98023 1.2283C3.69677 1.22043 3.44526 1.21344 3.25577 1.21344C2.38757 1.21344 2.17051 1.36023 2.17051 1.69052C2.17051 1.87401 2.31522 2.1676 2.49609 2.38779C2.60462 2.35109 2.78549 2.35109 3.03872 2.35109L5.13689 2.35109L5.13689 3.30527L3.25577 3.30527C2.38757 3.30527 2.17051 3.45207 2.17051 3.78235C2.17051 3.96584 2.27904 4.22273 2.45992 4.44293L5.13689 4.44293L5.13689 5.39709L1.51936 5.39709L1.51936 4.62642L1.91729 4.55302C1.66406 4.25945 1.44701 3.89244 1.44701 3.45207C1.44701 3.01167 1.66406 2.6814 1.98964 2.53461C1.66406 2.1676 1.44701 1.80061 1.44701 1.36023C1.44701 0.626251 1.91729 0.259262 3.11107 0.259262C3.29548 0.259262 3.55171 0.265869 3.84646 0.273498C4.24556 0.283829 4.7153 0.295975 5.17307 0.295975Z" fill="black"/>
<path d="M11.5402 79.8957C12.7702 79.8957 13.2766 79.2718 13.2766 78.0974C13.2766 76.9598 12.7702 76.1524 11.3955 76.1524L8.24826 76.1524L8.24826 77.1432L11.4679 77.1432C12.2999 77.1432 12.5531 77.4735 12.5531 78.024C12.5531 78.6479 12.2637 78.9048 11.4317 78.9048L8.28443 78.9048L8.28443 79.8957L11.5402 79.8957Z" fill="black"/>
<path d="M13.2037 71.9317L13.2037 72.8859C12.7965 72.8859 12.3779 72.8743 12.0123 72.8641L12.011 72.8641L12.0095 72.864L12.0037 72.8639C11.7232 72.8561 11.4743 72.8492 11.2864 72.8492C10.4182 72.8492 10.2373 73.0327 10.2373 73.363C10.2373 73.5465 10.3459 73.8034 10.5267 74.0603L13.2037 74.0603L13.2037 75.0144L9.55 75.0144L9.55 74.2438L9.94793 74.1704C9.65853 73.8401 9.47765 73.4731 9.47765 73.0327C9.47765 72.2987 9.94793 71.895 11.1417 71.895C11.3245 71.895 11.5779 71.9017 11.8694 71.9093L11.8774 71.9093L11.8783 71.9093L11.8795 71.9093C12.2781 71.9196 12.7469 71.9317 13.2037 71.9317Z" fill="black"/>
<path d="M8.57383 70.9417C8.97176 70.9417 9.08029 70.7949 9.08029 70.3545C9.08029 69.9142 8.93559 69.8041 8.57383 69.8041C8.17591 69.8041 8.06738 69.8775 8.06738 70.3545C8.06738 70.8316 8.21208 70.9417 8.57383 70.9417Z" fill="black"/>
<path d="M9.55057 70.8683L13.2043 70.8683L13.2043 69.9142L9.55057 69.9142L9.55057 70.8683Z" fill="black"/>
<path d="M13.2041 66.9051L13.2041 68.1529L9.55043 69.2172L9.55043 68.1896L11.6124 67.6024L12.3359 67.4556C11.3592 67.162 10.4548 66.9418 9.55043 66.8317L9.55043 65.8409C10.8166 66.0244 12.0465 66.3914 13.2041 66.9051Z" fill="black"/>
<path fill-rule="evenodd" clip-rule="evenodd" d="M11.576 64.4096L11.5398 64.4096L11.5398 62.2077C9.98425 62.0976 9.44162 62.7215 9.44162 63.6756C9.44162 64.7032 10.129 65.3638 11.4313 65.3638C12.7698 65.3638 13.24 64.7032 13.24 63.749C13.24 63.1986 13.0592 62.6481 12.8421 62.2077L12.2995 62.3545C12.4442 62.7949 12.5165 63.2353 12.5165 63.5656C12.5165 64.116 12.2633 64.4096 11.576 64.4096ZM10.0928 63.7123C10.0928 63.3087 10.3822 63.1252 10.961 63.1252L10.961 64.3729C10.4545 64.3362 10.0928 64.116 10.0928 63.7123Z" fill="black"/>
<path d="M10.382 59.2712C10.3459 59.418 10.3459 59.5281 10.3459 59.6015C10.3459 59.8217 10.4906 59.9685 10.8885 60.3355L13.2037 60.3355L13.2037 61.2896L9.55 61.2896L9.55 60.519L10.1288 60.4456C9.62235 60.0786 9.47765 59.8217 9.47765 59.5648C9.47765 59.4777 9.5003 59.3906 9.52768 59.2853C9.5349 59.2575 9.54245 59.2285 9.55 59.1978L10.382 59.2712Z" fill="black"/>
<path d="M12.9868 58.758C13.1677 58.4277 13.2762 58.024 13.2762 57.6203C13.2762 56.6662 12.7697 56.1157 12.0462 56.1157C11.5036 56.1157 11.178 56.3726 10.9248 57.1066C10.7439 57.657 10.6354 57.7671 10.4184 57.7671C10.2375 57.7671 10.0566 57.5836 10.0566 57.2167C10.0566 56.9965 10.0928 56.7763 10.1651 56.4827L9.69485 56.3726C9.51397 56.7396 9.44162 57.0699 9.44162 57.4001C9.44162 58.2075 9.9119 58.758 10.5631 58.758C11.1057 58.758 11.3951 58.4644 11.6483 57.7671C11.8292 57.2167 11.9377 57.1066 12.1909 57.1066C12.408 57.1066 12.5889 57.2901 12.5889 57.7671C12.5889 58.024 12.5889 58.2809 12.4803 58.6846L12.9868 58.758Z" fill="black"/>
<path d="M9.08029 54.8307C9.08029 55.271 8.97176 55.4178 8.57383 55.4178C8.21208 55.4178 8.06738 55.3077 8.06738 54.8307C8.06738 54.3536 8.17591 54.2802 8.57383 54.2802C8.93559 54.2802 9.08029 54.3903 9.08029 54.8307Z" fill="black"/>
<path d="M13.2043 55.3445L9.55057 55.3445L9.55057 54.3903L13.2043 54.3903L13.2043 55.3445Z" fill="black"/>
<path d="M12.3356 53.252C13.023 53.252 13.2762 52.9951 13.2762 52.2979C13.2762 52.0043 13.2039 51.7107 13.0953 51.3804L12.5527 51.4538C12.6251 51.7107 12.6251 51.8575 12.6251 51.9676C12.6251 52.2245 12.4803 52.2979 12.1186 52.2979L10.2375 52.2979L10.2375 51.4905L9.58632 51.4905L9.58632 52.2979L8.53724 52.2979L8.53724 52.9951C8.93498 53.0685 9.26043 53.1419 9.58586 53.2153L9.58632 53.7291L10.2375 53.7291L10.2375 53.252L12.3356 53.252Z" fill="black"/>
<path d="M14.5066 50.5008C14.5066 50.6476 14.4704 50.8678 14.3619 51.0513L13.8193 51.0513C13.8193 50.9906 13.8302 50.9078 13.8401 50.8333C13.8481 50.7725 13.8554 50.7173 13.8554 50.6843C13.8554 50.4641 13.8193 50.2806 13.7107 50.1338C13.566 49.987 13.4575 49.9136 13.2766 49.9136C13.1319 49.9136 12.9149 49.9503 12.5531 50.0971L9.58674 51.0146L9.58674 49.987L11.5764 49.4365C11.9381 49.3264 12.2637 49.253 12.4808 49.2897C11.6126 48.9961 10.4911 48.7392 9.51439 48.6658L9.51439 47.675C13.349 48.2621 14.5066 49.4732 14.5066 50.5008Z" fill="black"/>
<path fill-rule="evenodd" clip-rule="evenodd" d="M9.44162 43.784C9.44162 44.885 10.0928 45.5823 11.4313 45.5823C12.7336 45.5823 13.2762 44.9951 13.2762 43.9308C13.2762 42.8299 12.6612 42.1326 11.2866 42.1326C9.98425 42.1326 9.44162 42.7198 9.44162 43.784ZM11.2866 44.5914C10.4545 44.5914 10.1651 44.2978 10.1651 43.8574C10.1651 43.3803 10.4184 43.1235 11.4674 43.1235C12.2995 43.1235 12.5889 43.417 12.5889 43.8574C12.5889 44.3345 12.2995 44.5914 11.2866 44.5914Z" fill="black"/>
<path d="M8.71811 39.4177C8.64576 39.5645 8.64576 39.7113 8.64576 39.8581C8.64576 40.1517 8.79046 40.2618 9.11604 40.2618L9.58632 40.2618L9.58632 39.6012L10.2375 39.6012L10.2375 40.2618L13.24 40.2618L13.24 41.216L10.2375 41.216L10.2375 41.6931L9.58632 41.6931L9.58632 41.216L9.15222 41.216C8.42871 41.216 7.9946 40.9224 7.9946 40.1884C7.9946 39.8214 8.10313 39.5278 8.21166 39.3076L8.71811 39.4177Z" fill="black"/>
<path fill-rule="evenodd" clip-rule="evenodd" d="M20.7464 77.4371C20.9182 77.4004 21.0901 77.3637 21.2348 77.327L21.2348 76.2628C19.5707 76.6298 18.0152 77.0701 16.3149 77.6573L16.3149 78.9785C17.9066 79.529 19.6069 80.006 21.2348 80.373L21.2348 79.4189C21.1263 79.3944 21.0138 79.3699 20.9013 79.3455C20.6761 79.2966 20.451 79.2476 20.258 79.1987L20.258 77.5472C20.4027 77.5105 20.5746 77.4738 20.7464 77.4371ZM18.5767 78.7877C18.0862 78.6556 17.5956 78.5234 17.1831 78.3913C17.9428 78.1344 18.7749 77.9142 19.5345 77.7307L19.5345 79.0519C19.2307 78.9638 18.9037 78.8757 18.5767 78.7877Z" fill="black"/>
<path fill-rule="evenodd" clip-rule="evenodd" d="M21.3076 74.2443C21.3076 74.3544 21.3076 74.5012 21.2714 74.648L22.4652 74.648L22.4652 75.6022L17.5815 75.6022L17.5815 74.8315L17.9432 74.7581C17.69 74.4645 17.473 74.0975 17.473 73.7305C17.473 72.8498 18.2688 72.4094 19.2456 72.4094C20.6926 72.3727 21.3076 73.1801 21.3076 74.2443ZM18.1965 73.9507C18.1965 74.1342 18.305 74.3544 18.4859 74.6113L20.5117 74.6113C20.5479 74.5012 20.584 74.3177 20.584 74.1709C20.584 73.6938 20.1861 73.3636 19.3179 73.3636C18.6306 73.3636 18.1965 73.5837 18.1965 73.9507Z" fill="black"/>
<path fill-rule="evenodd" clip-rule="evenodd" d="M21.2714 70.5739C21.3076 70.4271 21.3076 70.2803 21.3076 70.1702C21.3076 69.1059 20.6926 68.3352 19.2456 68.3352C18.2688 68.3352 17.473 68.7756 17.473 69.6564C17.473 70.0234 17.69 70.3904 17.9432 70.684L17.5815 70.7574L17.5815 71.528L22.4652 71.528L22.4652 70.5739L21.2714 70.5739ZM18.4859 70.5739C18.305 70.317 18.1965 70.0968 18.1965 69.9133C18.1965 69.5096 18.6306 69.2894 19.3179 69.3261C20.1861 69.3261 20.584 69.6564 20.584 70.1335C20.584 70.2803 20.5479 70.4638 20.5117 70.5739L18.4859 70.5739Z" fill="black"/>
<path d="M21.2712 66.7214C21.2712 67.1984 21.1265 67.4553 20.5477 67.4553L16.062 67.4553L16.062 66.5012L20.186 66.5012C20.5839 66.5012 20.6563 66.4645 20.6563 66.2443L20.6563 66.0608L21.1989 66.0241C21.2351 66.2076 21.2712 66.4278 21.2712 66.7214Z" fill="black"/>
<path d="M16.6045 65.3996C17.0024 65.3996 17.1109 65.2528 17.1109 64.8124C17.1109 64.3721 16.9662 64.262 16.6045 64.262C16.2066 64.262 16.098 64.3354 16.098 64.8124C16.098 65.2895 16.2427 65.3996 16.6045 65.3996Z" fill="black"/>
<path d="M17.5812 65.2895L21.2349 65.2895L21.2349 64.3354L17.5812 64.3354L17.5812 65.2895Z" fill="black"/>
<path fill-rule="evenodd" clip-rule="evenodd" d="M19.5711 62.5001L19.6073 62.5001C20.2946 62.5001 20.5479 62.2065 20.5479 61.6561C20.5479 61.3258 20.4755 60.8854 20.3308 60.445L20.8735 60.2982C21.0905 60.7386 21.2714 61.2891 21.2714 61.8396C21.2714 62.7937 20.8011 63.4543 19.4626 63.4543C18.1603 63.4543 17.473 62.7937 17.473 61.7662C17.473 60.812 18.0156 60.1881 19.5711 60.2982L19.5711 62.5001ZM18.9923 61.2524C18.4135 61.2524 18.1241 61.4359 18.1241 61.8396C18.1241 62.2432 18.4859 62.4634 18.9923 62.5001L18.9923 61.2524Z" fill="black"/>
<path fill-rule="evenodd" clip-rule="evenodd" d="M20.8732 57.2531L21.2349 57.1797L21.2711 57.1797L21.2711 56.3723L16.098 56.3723L16.098 57.3265L17.545 57.3265C17.5089 57.3999 17.5089 57.5834 17.5089 57.7301C17.5089 58.7577 18.0877 59.5651 19.5709 59.5651C20.5476 59.5651 21.3434 59.1614 21.3434 58.2806C21.3434 57.9136 21.1264 57.5467 20.8732 57.2531ZM18.16 57.8035C18.16 57.6568 18.1962 57.51 18.2324 57.3632L18.2324 57.3265L20.2944 57.3265C20.4752 57.5834 20.5838 57.8035 20.5838 57.9871C20.5838 58.3907 20.1858 58.6109 19.4262 58.6109C18.5579 58.6109 18.16 58.2806 18.16 57.8035Z" fill="black"/>
<path d="M21.3074 52.1514C21.3074 52.7385 21.1265 53.2156 20.8371 53.656L20.3307 53.4358C20.4754 53.0321 20.5839 52.6284 20.5839 52.3716C20.5839 51.8578 20.3669 51.5275 19.9328 51.5275C19.5009 51.5275 19.3025 51.9363 19.081 52.3925C18.8015 52.9682 18.4854 53.6193 17.6175 53.6193C16.7855 53.6193 16.2429 52.9587 16.2429 52.0046C16.2429 51.5275 16.3514 51.0871 16.6408 50.6834L17.1472 50.9036C17.0387 51.2339 16.9664 51.5642 16.9664 51.8211C16.9664 52.3349 17.1834 52.555 17.5452 52.555C17.9798 52.555 18.1852 52.1336 18.4132 51.6657C18.6976 51.0822 19.0171 50.4265 19.8604 50.4265C20.6563 50.4265 21.3074 51.0504 21.3074 52.1514Z" fill="black"/>
<path d="M19.4625 49.8026C20.6924 49.8026 21.3074 49.3256 21.3074 48.3347C21.3074 47.7475 21.0542 47.3438 20.7648 47.0869L20.2945 47.3805C20.4754 47.6007 20.5839 47.8576 20.5839 48.1512C20.5839 48.5549 20.2583 48.8118 19.3539 48.8118C18.5943 48.8118 18.1963 48.5549 18.1963 48.1145C18.1963 47.8576 18.3049 47.6741 18.4496 47.4906L17.9793 47.1603C17.6899 47.4172 17.509 47.7842 17.509 48.2613C17.509 49.2155 18.3049 49.8026 19.4625 49.8026Z" fill="black"/>
<path d="M17.1109 45.8767C17.1109 46.3171 17.0024 46.4639 16.6045 46.4639C16.2427 46.4639 16.098 46.3538 16.098 45.8767C16.098 45.3996 16.2065 45.3262 16.6045 45.3262C16.9662 45.2895 17.1109 45.3996 17.1109 45.8767Z" fill="black"/>
<path d="M21.2349 46.3538L17.5812 46.3538L17.5812 45.3996L21.2349 45.3996L21.2349 46.3538Z" fill="black"/>
<path fill-rule="evenodd" clip-rule="evenodd" d="M19.6073 43.5644L19.5711 43.5644L19.5711 41.3625C18.0156 41.2524 17.473 41.8763 17.473 42.8305C17.473 43.858 18.1603 44.5186 19.4626 44.5186C20.8011 44.5186 21.2714 43.858 21.2714 42.9038C21.2714 42.3534 21.0905 41.8029 20.8734 41.3625L20.3308 41.5093C20.4755 41.9497 20.5479 42.3901 20.5479 42.7204C20.5479 43.2708 20.2946 43.5644 19.6073 43.5644ZM18.1241 42.8671C18.1241 42.4635 18.4135 42.28 18.9923 42.28L18.9923 43.5277C18.4859 43.491 18.1241 43.2708 18.1241 42.8671Z" fill="black"/>
<path d="M21.2351 37.3617L21.2351 38.3159C20.8275 38.3159 20.4084 38.3043 20.0425 38.2941L20.0376 38.294C19.7561 38.2861 19.5062 38.2792 19.3178 38.2792C18.4496 38.2792 18.2687 38.4627 18.2687 38.793C18.2687 38.9765 18.3772 39.2334 18.5581 39.4903L21.2351 39.4903L21.2351 40.4444L17.5814 40.4444L17.5814 39.6738L17.9793 39.6004C17.6899 39.2701 17.509 38.9031 17.509 38.4627C17.509 37.7287 17.9793 37.325 19.1731 37.325C19.3573 37.325 19.6133 37.3317 19.9077 37.3393L19.9091 37.3393L19.9096 37.3393C20.3084 37.3496 20.7777 37.3617 21.2351 37.3617Z" fill="black"/>
<path d="M19.4625 36.4807C20.6924 36.4807 21.3074 36.0036 21.3074 35.0127C21.3074 34.4623 21.0542 34.0586 20.7648 33.765L20.2945 34.0586C20.4754 34.2788 20.5839 34.5357 20.5839 34.8292C20.5839 35.2329 20.2583 35.4898 19.3539 35.4898C18.5943 35.4898 18.1963 35.2329 18.1963 34.7925C18.1963 34.5357 18.3049 34.3521 18.4496 34.1687L17.9793 33.8384C17.6899 34.0953 17.509 34.4622 17.509 34.9393C17.509 35.8935 18.3049 36.4807 19.4625 36.4807Z" fill="black"/>
<path fill-rule="evenodd" clip-rule="evenodd" d="M19.5711 32.4071L19.6073 32.4071C20.2946 32.4071 20.5479 32.1135 20.5479 31.563C20.5479 31.2328 20.4755 30.7924 20.3308 30.352L20.8734 30.2052C21.0905 30.6456 21.2714 31.1961 21.2714 31.7465C21.2714 32.7007 20.8011 33.3613 19.4626 33.3613C18.1603 33.3613 17.473 32.7007 17.473 31.6731C17.473 30.719 18.0156 30.0951 19.5711 30.2052L19.5711 32.4071ZM18.9923 31.1227C18.4135 31.1227 18.1241 31.3062 18.1241 31.7098C18.1241 32.1135 18.4859 32.3337 18.9923 32.3704L18.9923 31.1227Z" fill="black"/>
<path d="M21.0182 29.5452C21.199 29.2149 21.3076 28.8112 21.3076 28.4075C21.3076 27.4534 20.8011 26.9029 20.0776 26.9029C19.535 26.9029 19.2094 27.1598 18.9562 27.8938C18.7753 28.4442 18.6668 28.5543 18.4497 28.5543C18.2688 28.5543 18.0879 28.3708 18.0879 28.0038C18.0879 27.7836 18.1241 27.5635 18.1965 27.2699L17.7262 27.1598C17.5453 27.5267 17.473 27.8571 17.473 28.1873C17.473 28.9947 17.9432 29.5452 18.5944 29.5452C19.137 29.5452 19.4264 29.2516 19.6797 28.5543C19.8605 28.0038 19.9691 27.8938 20.2223 27.8938C20.4393 27.8938 20.6202 28.0773 20.6202 28.5543C20.6202 28.8112 20.6202 29.0681 20.5117 29.4718L21.0182 29.5452Z" fill="black"/>
</svg>
