<svg viewBox="0 0 170 81" fill="none" xmlns="http://www.w3.org/2000/svg">
<g clip-path="url(#clip0)">
<path d="M34.9971 71.8776L34.0574 71.0485V70.4072L32.4143 71.54L31.6263 72.0734L31.1357 72.5429L30.8796 72.1673L29.4276 70.2194L29.5281 70.1395L29.5635 70.0316L29.4985 69.9377L28.8504 70.601L28.1667 71.3222L27.7609 71.7038L27.3413 71.9496L26.9354 72.0295H26.701L26.4449 71.9855L26.1395 71.8197L25.9188 71.7538H25.5977L25.0421 72.0355V71.9336C25.0421 71.9336 25.0421 71.7338 25.0421 71.6958C25.0204 71.6197 24.9941 71.5449 24.9633 71.4721L24.9495 71.2123C24.9495 71.2123 24.922 70.8367 24.922 70.8128C24.922 70.7888 24.8215 70.3952 24.8215 70.3952L24.7072 70.0276L24.6718 69.7639L24.522 69.4542L24.0236 69.5401L23.5251 69.5541C23.5035 69.5541 23.3124 69.634 23.3124 69.634L22.4869 69.5681L22.0929 69.7679L21.6732 69.9836L21.0605 70.3453L20.3848 70.545L20.0144 70.6389L19.78 70.6529L19.4175 70.9206L16.3007 72.8186V73.1223L16.2732 73.454L16.1806 73.9295L16.2869 73.9155L16.7558 73.8136L17.0612 73.7417L17.5025 73.6038L17.5458 73.9355L17.2405 74.1732L16.813 74.2232L16.2515 74.3031L15.8456 74.1732L15.5403 74.1372L15.1206 74.1153L14.8212 73.9994L14.7778 73.8915L14.4646 74.1153L14.1297 74.4549L13.8085 74.8305L13.6726 75.0303C13.7265 75.0934 13.7859 75.1516 13.8499 75.2041C13.8854 75.2181 13.9642 75.3619 13.9642 75.3619L13.9287 75.5278L13.7317 75.5418L13.4401 75.3619C13.4401 75.3619 13.2845 75.2321 13.2845 75.2101C13.2845 75.1881 13.3337 74.8645 13.3337 74.8645L13.4125 74.7846L13.7041 74.7566L13.8676 74.5768C13.8676 74.5768 14.1238 74.3171 14.1316 74.2951C14.1395 74.2731 14.3661 74.0433 14.3661 74.0433L14.1178 74.0573L14.0903 73.9994L14.0253 73.8835L14.3306 73.7676L13.8676 73.5878L13.8026 73.6318L13.7179 73.7696L13.5761 73.9135L13.3791 73.9994L13.182 74.0853C13.182 74.0853 13.0106 73.9834 12.985 73.9774C12.9594 73.9714 12.788 73.8396 12.788 73.8396L12.6028 73.5658L12.3743 73.2921L12.2817 73.2062L12.1182 73.1343L11.8345 73.0484L11.6375 72.8606L11.6099 72.7088L11.4602 72.5289L11.3597 72.449L11.3814 72.4051L11.4818 72.2972L11.3814 72.2253H11.1843L11.2119 72.1094L11.2829 71.9875L11.3833 71.8577L11.468 71.6699V71.554L11.1843 71.4461L11.143 71.578L11.1863 71.8597L11.1213 72.0115L10.9243 71.9895H10.6248V71.7737L10.5815 71.514L10.4968 71.4701L10.1756 71.6219L10.219 71.7737L10.416 71.9476V72.0774L10.2032 72.1633L10.0752 72.0335L9.79739 71.9675C9.71303 71.9475 9.63338 71.9108 9.56294 71.8597C9.49793 71.7937 9.58461 71.578 9.58461 71.578L9.4999 71.3182L9.45656 70.9926L9.28516 70.625L9.41321 70.581L9.80724 70.2773L10.1284 70.0176L10.3628 69.618C10.4151 69.6513 10.4733 69.6737 10.5342 69.684C10.6424 69.6988 10.7496 69.7202 10.8553 69.7479L10.9834 69.5101L11.3459 69.1425L11.6237 68.8828L11.539 68.4493L11.5823 68.3194L11.8601 67.9738L12.2541 67.6481L12.5949 67.4963V67.2965L12.6797 67.1227L12.4019 66.8849L12.1024 66.4094L11.9744 66.3435L11.7773 66.2995L11.606 66.0838L11.6907 65.9539L11.4562 65.7161L11.1568 65.5004L11.2001 65.3266L11.3045 65.0069L11.34 64.5314L11.3045 64.2057L11.1075 64.0319L11.1784 63.6643L11.1292 63.3546L11.072 63.1549L11.3853 62.5335C11.3853 62.5335 11.5409 62.1219 11.5567 62.1C11.5725 62.078 11.6848 61.7324 11.6848 61.7004V61.5006V61.2049L12.5102 60.9372L13.1367 60.0421L13.8204 59.0432L14.6242 57.8604L15.229 57.0613L15.82 56.3101C15.8869 56.2486 15.9488 56.1818 16.0052 56.1103C16.0592 56.0228 16.1185 55.9388 16.1825 55.8586L16.2889 55.8226L15.3925 55.3531L15.1226 55.2372L14.6242 54.9275L14.1198 54.6678L13.9425 54.6538L13.8637 54.4381L13.7002 54.3082L13.4362 54.3582L12.7959 54.5579C12.7959 54.5579 12.2265 54.7318 12.2049 54.7318C12.1832 54.7318 11.7714 54.7897 11.7714 54.7897L11.2671 54.8336L11.3242 54.3422V53.9666V53.3212L11.3518 52.7219L11.3952 52.3603L11.5922 51.8048L11.6631 51.4732L11.7064 50.9038L11.7636 50.5861L11.8424 49.9448L12.0394 49.0997L12.1536 48.5303L12.3507 48.6742C12.4056 48.7444 12.4649 48.8111 12.528 48.8739L12.8195 48.9818L13.1545 49.0478L13.4322 49.0697C13.4691 49.0589 13.5048 49.0442 13.5386 49.0258L13.6312 48.9978L13.6746 48.8759V48.774L13.7672 48.6442V48.4863L13.7022 48.0109L13.5741 47.6932L13.7159 47.4934L13.7435 46.96L13.9149 46.6423L14.0154 46.2088L14.1572 46.021V45.7033L14.2144 45.5874L14.2006 44.9521C14.1344 44.7557 14.0582 44.563 13.9721 44.3747C13.9188 44.2819 13.8714 44.1858 13.8302 44.087L13.7593 44.0011L13.1899 44.3048L12.7782 44.4926H12.5812C12.4544 44.5608 12.3227 44.6189 12.1871 44.6664C12.13 44.6664 12.0315 44.4666 12.0315 44.4666L11.931 44.1629L11.7596 44.1489L11.8168 43.7154L11.669 43.6515L11.6828 43.5076L11.7675 43.4357L11.996 43.5516L12.4235 43.3937L12.5654 43.148L13.121 43.0321L13.5761 42.7284L13.9878 42.0791C14.0595 41.9374 14.1453 41.8035 14.2439 41.6795C14.3011 41.6516 14.699 41.5057 14.699 41.5057L15.0694 41.4478L15.3393 41.6935L15.4674 41.7375H15.6526L15.8949 41.9253L16.0663 41.9972L16.3224 42.0252L16.5509 42.0691L16.7223 42.1271H16.9883L17.1597 42.3269L17.402 42.3988L17.6306 42.5866L17.9143 42.7304L18.326 42.7584L18.7949 42.9582L19.2067 43.158L19.2914 42.8843L19.8469 42.8703L20.2035 42.9862L20.3316 42.4947V42.235L20.1346 41.9473L19.8213 41.7015L19.4273 41.4138L18.8816 40.7505L18.5585 40.307L18.5211 39.9793L18.7299 39.8055L18.986 39.6057L19.2145 39.0583L19.4332 38.5668L19.5849 38.2012L19.7169 37.8836L19.9139 37.6518L20.0656 37.1703L20.17 36.7847V36.3991L20.6921 36.3412L20.7118 36.4271H21.1196L21.4703 36.3692H21.7461C21.7461 36.3692 22.0219 36.3112 22.0594 36.3112C22.0968 36.3112 22.2387 36.2253 22.2781 36.2253C22.3175 36.2253 22.5066 36.3512 22.5342 36.3512C22.5618 36.3512 22.7135 36.3791 22.7135 36.3791L22.8652 36.3212H23.2828L23.6532 36.2633C23.7829 36.2368 23.9149 36.2241 24.0472 36.2253C24.1241 36.2453 24.4275 36.3412 24.3979 36.3312C24.3684 36.3212 24.3782 35.4361 24.3782 35.4361L24.3408 35.0126L24.2364 34.7149L24.0748 34.3972L24.0551 34.1175C24.0551 34.1175 24.5673 34.2434 24.6048 34.2434C24.6422 34.2434 24.8983 34.2154 24.8983 34.2154L25.1268 34.1295L25.4499 34.1495C25.4499 34.1495 25.844 34.0336 25.8853 34.0336C25.963 34.0163 26.0393 33.9936 26.1139 33.9657L26.1513 32.1276H25.8105L25.8775 30.7711L26.4468 30.9149L26.8546 30.9529L27.4043 30.9329L27.7747 30.875L28.2298 30.827L28.5056 31.1447L27.623 31.8479L28.4583 33.3483L28.543 33.3683C28.543 33.3683 28.4662 33.8678 28.4662 33.8978C28.4379 33.9595 28.4029 34.0178 28.3618 34.0716L28.3815 34.3113L28.3539 34.609L28.6199 35.1664L28.6967 35.4641L28.7243 35.608L28.08 36.0075L28.6711 35.9216L29.0218 35.8537C29.1922 35.9296 29.3665 35.9963 29.5438 36.0535C29.601 36.0535 30.0088 36.0735 30.0088 36.0735L30.8343 36.3232L31.4036 36.5929L31.6873 36.477L32.105 36.3811L32.7886 36.3132L32.8458 36.477L33.1964 36.3232L33.425 36.3612L33.6535 36.2173L33.882 36.0835L34.3273 35.9196L34.4593 35.8817L34.6307 35.6419L34.7449 35.614L35.0208 35.4501L35.2178 35.2004L35.0937 34.9686L35.3695 34.4592L35.4069 34.5371L35.5389 34.4032L35.6906 34.3173L35.6532 34.2394L35.5586 34.2014L35.7556 34.0756H35.9645L36.193 33.9597L36.2875 33.8258L36.3447 33.5182L36.325 33.1805L36.5338 32.9008L36.6481 32.4013L36.6895 32.3035H36.9081L36.9357 32.2175L37.0027 32.1117L37.5622 32.6311L37.9129 32.8309L38.0843 33.0047C38.0843 33.0047 38.4783 32.7929 38.502 32.8309C38.5256 32.8689 38.6162 32.9747 38.6162 32.9747H38.7581V33.2245C38.7581 33.2245 39.0812 33.5701 39.1087 33.5901L39.753 33.9897L40.1332 33.662L40.4839 33.7L40.6553 33.5262L40.5607 33.0926V32.5152L41.1518 32.3154L41.1793 31.7161L41.4552 31.6202C41.4552 31.6202 41.7684 31.5522 41.796 31.5522L42.2412 31.5323L42.2609 31.6761C42.5034 31.7071 42.7475 31.7231 42.9918 31.7241C43.0115 31.6961 43.2381 31.6561 43.2381 31.6182C43.2528 31.5373 43.2719 31.4572 43.2952 31.3784L43.5041 31.2626L43.6558 31.1567L43.9395 31.1087L44.0636 30.877L44.3 30.7511L44.2626 30.4334L44.1385 30.3555L43.1534 30.2876C42.8799 30.0482 42.5917 29.8266 42.2905 29.6243C42.147 29.5857 42.0073 29.5342 41.8728 29.4704L42.7456 28.4216L43.3622 28.6213L43.7129 28.044L43.8173 28.0719L44.2113 27.4466L44.3532 27.5425L44.629 27.3027L44.7137 27.4186C44.7137 27.4186 44.2961 28.2557 44.3059 28.2837L44.4103 28.5814L45.5294 27.9461L45.3205 29.898L45.9372 30.5333L47.133 31.1866L47.399 31.2725L48.1299 31.8879L48.7367 31.6002L48.8983 31.9079H49.0953L49.0283 33.0726L48.7623 34.3513L47.661 35.0825V36.0355L47.529 36.1214L47.0739 37.478L46.9597 38.4769L47.1882 38.409L48.2323 40.4488L49.637 40.2491L49.9779 40.307L50.4803 40.4229L51.154 40.6346L51.9992 40.8664V40.9623L52.5489 41.25L53.0513 41.6496L53.5162 42.0152L53.8196 42.3908L54.0757 42.7764L54.2727 43.1899L54.8519 42.9582L55.049 43.102L55.1534 43.3997L55.4666 43.3797L55.6951 43.9571L55.7148 44.3227L55.839 44.6204L55.8665 44.9181L55.9138 45.2058L56.1108 45.5135L56.3079 45.8012L56.2606 46.1388V46.4465L56.2133 46.7742L58.9557 47.4375L59.7713 47.5334L60.3308 47.5533L61.1662 47.6792L61.2233 47.861L60.91 48.3904L60.6815 48.3625C60.6815 48.3625 60.6441 48.4484 60.6047 48.4484C60.5556 48.4384 60.508 48.4223 60.4628 48.4004C60.4206 48.421 60.3763 48.4371 60.3308 48.4484C60.3032 48.4484 60.0373 48.4204 60.0373 48.4204L60.1693 48.9978L60.1023 49.0837L60.2264 49.6511L60.5771 49.6132L61.2981 49.5173L62.0389 49.6331L62.5314 49.6052L63.2249 49.5193L63.4219 50.1346L62.9865 50.5582L62.626 50.8558L62.2753 51.1535L61.8951 51.5291L61.4873 52.0206L61.107 52.6739L60.9357 53.1834L60.8037 53.6549L60.6894 54.2702L60.5948 54.8097L60.5022 55.2792L60.388 55.453L60.9199 55.6268L60.5594 56.2621L59.6669 57.6607L59.5999 58.4878L59.8363 58.6216C59.8363 58.6216 59.4088 59.275 59.4423 59.275C59.4758 59.275 59.8028 59.3808 59.8028 59.3808L59.9998 59.1691L60.4077 59.3029V59.6106H60.4549V59.9083H60.5791L60.6066 59.8404L60.5495 59.5427L60.7465 59.5047L60.7268 58.7535H61.0302C61.0302 58.7535 61.2489 58.5138 61.2765 58.4938C61.3041 58.4738 61.704 58.312 61.704 58.312L62.0369 58.1002C62.159 57.9653 62.2907 57.8398 62.431 57.7246C62.4684 57.7246 62.8486 57.7725 62.8486 57.7725L63.3333 58.0043L63.5795 58.0243L63.9499 58.284L64.273 58.4658C64.273 58.4658 64.4346 58.4658 64.4917 58.4658C64.6016 58.4418 64.7095 58.4098 64.8148 58.3699L65.0906 58.5437L65.5457 58.8714L65.991 59.1111L66.1702 59.4188C66.1702 59.4188 66.4165 59.5826 66.4461 59.5926C66.4756 59.6026 66.7396 59.6705 66.7396 59.6705L67.3464 59.7385L67.6222 59.7864C67.6222 59.7864 67.8192 60.2679 67.8192 60.2959C67.8192 60.3238 67.8468 60.6415 67.8468 60.6415L67.9985 60.9012V61.113V61.2569L68.6349 61.2848L68.7018 61.0251V60.7274L68.6447 60.4677L68.4162 60.4197L68.3019 59.7365L68.1049 59.4288L67.9906 59.1411H68.162L68.5029 59.4488L68.9481 59.7365C69.0586 59.803 69.1723 59.8636 69.2889 59.9183H69.5352L69.8682 60.3418L70.1243 60.8613C70.2345 60.9776 70.3516 61.087 70.4749 61.1889C70.5866 61.2908 70.6913 61.4003 70.7882 61.5166C70.7882 61.5166 70.9675 61.7383 71.0167 61.7483C71.066 61.7583 71.4817 61.7683 71.4817 61.7683L71.5585 61.7004L71.6531 61.7204L71.6807 61.8063C71.6807 61.8063 72.382 61.9501 72.4214 61.9501C72.4608 61.9501 72.5534 61.8642 72.5534 61.8642C72.5534 61.8642 73.1602 62.076 73.1898 62.076C73.2193 62.076 73.5838 62.2758 73.5838 62.2758L73.6409 62.3917L73.7355 62.3337L73.5739 62.7852L73.8675 62.8332L73.7532 63.5165L74.2852 63.5844L74.1334 63.8641H73.5936L73.7178 63.047L73.2055 63.1429L72.6145 63.6823L72.5475 64.4814L72.1535 64.5094L72.0865 64.5374H71.6925L71.3319 64.4035L70.9379 64.1638L70.6148 63.932L70.5203 63.8461V64.0459L70.8138 64.2857L71.1369 64.4675L71.3832 64.5354L71.6491 64.5933L71.9427 64.6133L72.2264 64.6812L72.2067 65.1907L72.4529 65.3066L72.3958 65.5383L72.0353 65.5963L71.5132 66.6252L71.5408 66.825L71.4836 67.0068L71.4167 67.2765L71.5309 67.4983L71.6925 67.72L71.8895 67.9798L71.8619 68.0956L72.1752 68.2595L72.2993 68.4592L72.3466 68.709L72.1101 68.8908L72.0254 69.2664V69.5061L71.655 69.9057L71.5506 69.8777L71.4659 69.8977H71.3812L71.2098 69.9936L71.0482 70.1574L70.7921 70.2054L70.6779 70.1375H70.4809L70.3666 70.0216L70.1381 70.1754L69.9667 70.3572L69.7874 70.4631L69.7499 70.597L69.6258 70.7029L69.4544 70.8188L69.3027 70.9047L69.1707 71.0485H69.0466L68.7432 71.54L68.7156 71.3762L68.6014 71.3562L68.5639 71.6359L68.3669 71.8756L68.2152 72.1074L68.0438 72.2892L67.8921 72.453H67.7207L67.6262 72.501L67.5493 72.7008L67.6912 72.8546L67.8429 72.8067L68.3827 73.1243L68.8279 73.0464L68.6565 73.6458H68.9126L68.9796 73.6937V73.8575L68.8654 74.1073L68.7412 74.415L68.5442 74.7906L68.3354 75.0603L68.3925 75.2341C68.3925 75.2341 68.2211 75.2621 68.2507 75.272C68.2802 75.282 68.3078 75.358 68.3078 75.358L68.1561 75.3L68.0143 75.358H67.8724L67.5493 75.1462L67.3306 75.0503L67.0174 75.1662L66.5997 75.4539L66.316 75.5318L66.2018 75.8195L66.1545 75.9154L66.0402 75.9833L65.9161 76.253L65.8688 76.8104L65.8885 77.0502C65.8885 77.0502 65.6698 77.0781 65.6698 77.1081C65.6551 77.1759 65.636 77.2426 65.6127 77.3079L65.5654 77.5396L65.4807 77.7394L65.262 77.8453V78.0451L65.065 78.131V78.4107L65.0079 78.6425L65.0276 78.8423L64.9133 78.9761L64.8089 79.14L64.6473 79.4476V79.6974C64.6473 79.6974 64.6671 80.025 64.6671 80.063C64.6378 80.1288 64.5993 80.1901 64.5528 80.2448L64.3439 80.3027L64.1154 80.2548L63.9361 80.1289H63.8219C63.7253 79.9974 63.6171 79.875 63.4988 79.7633C63.3644 79.5874 63.2438 79.401 63.1382 79.2059L63.0811 78.6864V77.7534C63.0811 77.7534 63.1008 77.206 63.1008 77.176C63.1008 77.1461 63.2801 76.7904 63.2801 76.7904L63.7155 76.251C63.8094 76.149 63.8951 76.0394 63.9716 75.9234C63.9716 75.8754 63.9716 75.6257 63.9716 75.6257L63.8219 75.2581L63.3865 75.1722L63.4535 74.7486L63.3293 74.0453L62.4566 74.3051L61.9069 73.5259L59.858 74.8825L59.9053 74.5368L59.858 74.355L59.8009 74.2491L59.7536 74.2012L59.8481 74.0374L59.7634 73.7576L59.5546 73.6138C59.5546 73.6138 59.4778 73.414 59.4502 73.402C59.3913 73.3697 59.3341 73.3344 59.2788 73.2961L59.1074 73.0744L58.8138 73.0164L58.672 72.7667V72.6408L58.6444 72.507L58.54 72.469L58.4829 72.3252L58.54 72.1434V71.9995L58.473 71.8656L58.3587 71.7598L57.6101 72.1593L57.1452 72.2932C57.1452 72.2932 56.7511 72.447 56.7078 72.447C56.6117 72.4703 56.517 72.499 56.4241 72.5329C56.3136 72.5994 56.1999 72.6601 56.0833 72.7148C56.0557 72.7148 55.638 72.8586 55.638 72.8586H55.2085H54.716C54.6687 72.8586 54.2983 72.8786 54.2983 72.8786L53.9043 72.8986H53.5714L52.8405 72.9185L52.8129 72.6208V72.2612L52.8405 71.9735L52.935 71.532L52.9921 71.2143L53.0591 71.0505C52.9407 71.1328 52.817 71.2069 52.6888 71.2723C52.5517 71.3533 52.4201 71.4434 52.2947 71.542C52.2947 71.542 51.7155 71.3202 51.6584 71.2923L51.156 71.0325C51.0787 71.0049 50.9997 70.9822 50.9196 70.9646C50.8822 70.9646 50.6733 71.0905 50.626 71.0985C50.5788 71.1064 50.0567 71.2723 50.0567 71.2723L49.4775 71.4061L48.8707 71.56L48.0649 71.8676L47.4384 72.0794L47.2414 71.1744L46.9478 70.4911C46.683 69.7538 46.3792 69.0315 46.0376 68.3274C45.9431 68.3274 45.7145 68.1935 45.6436 68.1935C45.4837 68.2206 45.3252 68.2559 45.1688 68.2994C45.1688 68.2994 43.973 69.0027 43.9355 69.0107C43.8981 69.0187 43.2342 69.3763 43.2342 69.3763C43.0178 69.5247 42.789 69.6537 42.5505 69.7619C42.4737 69.7619 41.3842 70.1854 41.3842 70.1854L41.3645 70.629L42.4461 73.9574L42.3693 74.3231L41.8669 75.6596C41.8669 75.6596 40.5292 75.6017 40.4149 75.6217C40.3007 75.6417 38.7541 75.5737 38.7541 75.5737L38.5453 73.8715L36.914 73.9295C36.9509 73.6552 36.9732 73.3791 36.981 73.1023C36.9534 73.1023 35.996 72.5829 35.996 72.5829L35.0109 71.8856L34.9971 71.8776Z" fill="#29955A" fill-opacity="0.43"/>
<path fill-rule="evenodd" clip-rule="evenodd" d="M35.9266 17.3944L35.9127 17.4212C35.2433 17.3046 35.2517 16.8517 35.2614 16.3301C35.2623 16.2804 35.2632 16.23 35.2636 16.1792C35.2931 12.0728 34.3317 8.18488 32.5555 4.49639C32.5255 4.43419 32.4958 4.371 32.466 4.30755C32.0697 3.46468 31.6516 2.57535 30.2432 3.31439C30.22 3.19091 30.1968 3.06849 30.1736 2.94607C30.4963 2.60724 30.819 2.26808 31.1445 1.92589L31.8991 1.13296C31.0379 1.41791 30.2422 1.24905 29.7398 0.311889C29.7269 0.288226 29.469 0.396103 29.2099 0.50444C29.1006 0.550164 28.991 0.595968 28.8996 0.632001L28.8739 0.644859C28.4617 1.09465 28.0504 1.54385 27.6482 1.9831L26.7722 2.93974L25.3094 2.36984C25.5774 2.8495 25.7836 3.21934 25.9633 3.5416L25.9641 3.54304L25.9649 3.54434C26.1016 3.78962 26.2231 4.00739 26.3447 4.22517C26.1906 4.31382 26.0366 4.40141 25.8825 4.49006C25.8254 4.40212 25.7664 4.31528 25.7074 4.2285C25.5746 4.03303 25.4419 3.83783 25.3316 3.631C24.901 2.82365 24.329 2.735 23.7876 3.45159C23.5322 3.7893 23.3422 4.18717 23.1797 4.58082C21.6748 8.22287 21.3582 12.0011 22.0663 15.8479C22.2214 16.6943 22.5855 17.7021 23.2029 18.2235L23.4073 18.3964C24.7007 19.4926 26.0366 20.6248 27.8581 20.8313C28.7805 20.9357 29.1351 21.4223 29.1098 22.4016C29.0013 26.5603 28.9416 30.7206 28.882 34.8804C28.8732 35.495 28.8644 36.1104 28.8554 36.725C28.841 37.738 28.8448 38.7515 28.8487 39.7652C28.8505 40.231 28.8523 40.697 28.8523 41.1628C28.6689 41.2165 28.4861 41.2715 28.3024 41.3253C28.1029 40.935 27.9005 40.546 27.6982 40.157C27.248 39.2914 26.7975 38.4252 26.3774 37.545C26.0823 36.9266 25.8048 36.2988 25.5274 35.6711C25.0232 34.5303 24.5193 33.3901 23.91 32.3083C23.6657 31.8747 23.1657 31.5851 22.6656 31.2953C22.4378 31.1633 22.2099 31.0313 22.0061 30.8857C21.9652 31.1244 21.9068 31.3649 21.8484 31.6054C21.7217 32.1273 21.595 32.6494 21.6463 33.1537C21.9703 36.3598 22.309 39.5703 22.8283 42.749C23.2842 45.5383 23.9406 48.2991 24.6044 51.0494C24.7854 51.8001 25.0899 52.5212 25.3944 53.2422C25.5321 53.5682 25.6697 53.8942 25.7959 54.2229C25.719 54.323 25.6431 54.424 25.5669 54.5247C19.0216 49.6289 12.3844 44.9019 4.29297 42.5844C4.91035 44.8534 5.69343 46.7858 7.53187 48.2611C11.6446 51.5613 15.8893 54.6566 20.8146 56.6017C23.7855 57.7752 25.9754 59.6253 27.3853 62.442C27.6829 63.0372 27.9911 63.1934 28.7024 63.013C30.0227 62.6784 31.3883 62.4916 32.7465 62.3523C33.4009 62.2848 33.8061 62.1708 33.8473 61.4289C34.0805 57.2686 35.1718 53.2899 36.5131 49.3767L36.5664 49.2211C37.6215 46.1404 38.6769 43.0588 41.3256 40.8388C42.2107 40.0968 43.0279 39.2745 43.8453 38.4519C44.2998 37.9946 44.7545 37.5371 45.2209 37.0933C45.8894 36.4576 46.572 35.8369 47.2547 35.2161C47.5615 34.9372 47.8682 34.6582 48.1738 34.3779C39.1251 36.8168 34.4298 43.5943 30.8416 51.5855C30.5218 50.717 30.2411 49.897 30.2348 49.0738C30.2005 44.4618 30.1803 39.8495 30.16 35.2372C30.141 30.9016 30.1219 26.566 30.0913 22.2307C30.086 21.4159 30.3604 21.0677 31.1403 20.9357C33.3154 20.5692 34.8958 19.3665 35.9127 17.4212C35.9281 17.4239 35.9439 17.4265 35.9601 17.4288L35.9511 17.4189L35.9578 17.4256C35.9639 17.3988 35.9699 17.372 35.9759 17.3452C37.1179 16.342 37.4278 14.9673 36.7283 13.9746C36.4778 15.0981 36.2273 16.2216 35.9759 17.3452C35.9584 17.3605 35.9408 17.3757 35.923 17.3908L35.9266 17.3944ZM28.7202 1.17166C28.7773 0.99617 28.8344 0.820774 28.8945 0.646882C29.9598 0.756556 29.8911 1.56525 29.8314 2.26783L29.8253 2.34029C29.7926 2.735 29.5235 3.15187 29.2628 3.48114C25.9796 7.61815 24.2477 12.3018 24.214 17.5955C24.2129 17.662 24.1359 17.7296 23.8773 18.1517C23.8232 17.8558 23.7651 17.5937 23.7119 17.3538C23.6096 16.892 23.5255 16.5123 23.5227 16.1317C23.5005 12.9973 24.672 10.189 25.988 7.42713C26.0166 7.36747 26.0652 7.30655 26.1123 7.24736C26.187 7.15368 26.2581 7.06435 26.2413 6.99126C25.9349 5.63014 26.6401 4.72286 27.3444 3.81676C27.6978 3.36202 28.051 2.90759 28.276 2.39623C28.4507 1.99985 28.5856 1.58541 28.7202 1.17166Z" fill="#46493E"/>
<path d="M33.0243 1.34375C33.2632 1.43146 33.4582 1.51303 33.6248 1.58277C33.9375 1.71358 34.1505 1.80269 34.3667 1.81233C34.5627 1.82121 34.7622 1.74479 35.0643 1.62912C35.229 1.56604 35.4241 1.4913 35.6658 1.41235C36.0057 4.96891 36.3339 8.40939 36.6621 11.8499C36.4774 11.8857 36.2927 11.9206 36.108 11.9565C36.0442 11.7551 35.9811 11.5536 35.9179 11.352C35.1927 9.03735 34.3946 6.7458 33.6296 4.44408C33.5646 4.24914 33.4702 3.96613 33.5329 3.91883C34.4777 3.20899 34.0244 2.63688 33.4568 1.92054C33.313 1.73907 33.1618 1.54832 33.0243 1.34375Z" fill="#46493E"/>
<path d="M45.6153 36.0497L45.3884 35.75C45.0612 35.921 44.7277 36.0814 44.4079 36.265C41.0403 38.2079 38.366 40.9223 35.984 43.9364C33.0174 47.6893 30.8666 51.7165 31.8428 56.7675C31.9913 57.5366 32.0605 58.3204 32.1297 59.1049C32.1776 59.6476 32.2255 60.1907 32.2998 60.7293C32.3214 60.884 32.4656 61.0215 32.61 61.1593C32.6775 61.2236 32.7449 61.2879 32.8 61.3541C32.9383 61.2158 33.1768 61.0924 33.2011 60.9362L33.249 60.62C33.4363 59.3869 33.624 58.1515 33.7319 56.91C33.7996 56.1325 33.814 55.341 33.8285 54.5502C33.8567 53.0096 33.8848 51.4721 34.306 50.048C35.7297 45.2356 38.7121 41.3793 42.7626 38.3694C43.4335 37.87 44.0759 37.3322 44.718 36.7947C45.016 36.5451 45.3145 36.2953 45.6153 36.0497Z" fill="#F8F4EC"/>
<path d="M25.0548 56.9706L25.0533 56.9693C23.5882 55.7765 22.1229 54.5836 20.6327 53.4228C20.2194 53.1012 19.8074 52.7771 19.3953 52.4529L19.3944 52.4522C17.6132 51.0513 15.829 49.648 13.9301 48.4278C12.3511 47.4135 10.6743 46.5511 8.99746 45.6887C8.2612 45.31 7.52491 44.9314 6.79688 44.5398L6.79956 44.5344L6.80313 44.5271C6.88654 44.3583 6.96996 44.1894 7.05439 44.0195C8.4084 44.639 9.84477 45.1256 11.1017 45.9012C12.9917 47.0678 14.8615 48.267 16.7313 49.4661C19.2342 51.0712 21.737 52.6762 24.2874 54.2027C25.7469 55.0765 26.8118 56.039 27.2213 57.6759C27.2688 57.8637 27.2624 58.0653 27.2804 58.2595C27.1802 58.3533 27.0811 58.444 26.982 58.5347C26.3383 58.0151 25.6964 57.493 25.0548 56.9706Z" fill="#F8F4EC"/>
<path d="M27.881 44.4331C28.1179 44.8585 28.3548 45.284 28.5906 45.71C28.6005 45.6271 28.6107 45.5444 28.6208 45.462C28.7815 44.1528 28.9336 42.9133 27.8435 41.8569C27.2197 41.2522 26.8113 40.3826 26.4367 39.5721C26.0008 38.6294 25.5929 37.6738 25.1849 36.7183C24.785 35.7813 24.385 34.8444 23.9587 33.9196C23.6762 33.306 23.3258 32.7239 22.9755 32.142C22.8167 31.8781 22.6579 31.6143 22.5054 31.3477C22.3376 31.4363 22.1688 31.5239 22.001 31.6126C23.2878 36.184 25.5826 40.3052 27.881 44.4331Z" fill="#F8F4EC"/>
<g filter="url(#filter0_d)">
<path d="M55.7455 38.4175C56.4658 33.4355 60.1254 23.5064 69.0018 23.6466C76.2733 23.7614 84.8896 23.3767 94.1226 22.9644C98.9782 22.7476 104.004 22.5232 109.095 22.3598L153.409 20.9375C158.01 21.6754 166.853 25.1817 165.424 33.3035C163.637 43.4558 162.106 45.0989 154.176 44.8221C151.224 44.7191 147.546 44.7866 143.14 44.9425C146.266 47.3166 148.285 51.0735 148.285 55.3019C148.285 62.4816 142.465 68.3019 135.285 68.3019H52.2852C45.1055 68.3019 39.2852 62.4816 39.2852 55.3019C39.2852 48.1222 45.1055 42.3019 52.2852 42.3019H57.0884C56.2927 41.2203 55.7943 39.9358 55.7455 38.4175Z" fill="white"/>
</g>
<path d="M69.0018 23.6474C60.1254 23.5072 56.4658 33.4362 55.7455 38.4183C55.9636 45.212 65.1849 47.3248 69.7684 47.532L114.61 46.0928C133.074 45.5002 146.245 44.5461 154.176 44.8229C162.106 45.0997 163.637 43.4566 165.424 33.3043C166.853 25.1825 158.01 21.6762 153.409 20.9383L109.095 22.3605C94.324 22.8346 80.0973 23.8226 69.0018 23.6474Z" fill="#C9FE53"/>
<path d="M75.8646 29.7644L73.417 29.8429L73.6517 37.1573L73.5495 37.1606L68.2946 30.0073L66.1366 30.0766L66.5099 41.707L68.9689 41.628L68.7339 34.3079L68.8191 34.3052L74.1139 41.4629L76.2378 41.3947L75.8646 29.7644ZM80.7167 41.4158C82.0058 41.3745 82.8225 40.7855 83.2224 39.9597L83.2905 39.9575L83.3294 41.1671L85.6236 41.0935L85.4348 35.2102C85.3681 33.1317 83.5796 32.3136 81.6374 32.376C79.5476 32.4431 78.2053 33.4866 77.9213 35.0875L80.1646 35.1974C80.3107 34.6129 80.8138 34.1704 81.6827 34.1425C82.5062 34.1161 82.9908 34.5155 83.0138 35.231L83.0149 35.2651C83.0329 35.8273 82.439 35.9203 80.9275 36.1166C79.2062 36.331 77.6744 36.96 77.737 38.9079C77.7924 40.6343 79.0528 41.4693 80.7167 41.4158ZM81.3559 39.724C80.612 39.7479 80.067 39.4186 80.0457 38.7542C80.0239 38.0727 80.5753 37.7196 81.4233 37.573C81.9491 37.4822 82.8083 37.3296 83.0917 37.1272L83.1214 38.0529C83.1507 38.9672 82.4179 39.6899 81.3559 39.724ZM89.7579 35.9128C89.7275 34.7882 90.3935 34.1074 91.3816 34.0756C92.364 34.0441 92.9635 34.6559 92.9923 35.7294L93.1567 40.8517L95.5759 40.7741L95.3976 35.2201C95.3377 33.1755 94.094 31.9762 92.2768 32.0345C90.9536 32.077 90.0878 32.7301 89.7232 33.7707L89.621 33.774L89.4783 29.3274L87.1272 29.4029L87.5005 41.0333L89.9197 40.9556L89.7579 35.9128ZM101.46 40.7558C103.618 40.6865 105.038 39.5892 105.327 37.9598L103.085 37.884C102.862 38.5563 102.249 38.9227 101.442 38.9486C100.233 38.9874 99.4403 38.2113 99.3985 36.9108L99.3984 36.9052L105.338 36.7145L105.317 36.0501C105.222 33.0857 103.38 31.6781 101.075 31.7521C98.508 31.8345 96.9026 33.7108 96.989 36.4026C97.0777 39.1683 98.7743 40.842 101.46 40.7558ZM99.3502 35.4059C99.3695 34.4105 100.099 33.5912 101.173 33.5567C102.223 33.523 102.974 34.2493 103.013 35.2884L99.3502 35.4059ZM114.095 33.9379C113.827 32.3377 112.501 31.3854 110.297 31.4561C108.066 31.5278 106.628 32.6085 106.688 34.2893C106.724 35.5956 107.574 36.4154 109.289 36.7014L110.809 36.9539C111.575 37.0828 111.93 37.35 111.956 37.7869C111.961 38.304 111.411 38.6912 110.565 38.7183C109.701 38.7461 109.116 38.3953 108.945 37.6902L106.57 37.8915C106.851 39.5538 108.304 40.5361 110.615 40.4619C112.875 40.3894 114.457 39.1846 114.407 37.4638C114.361 36.2032 113.513 35.4744 111.81 35.1823L110.221 34.9149C109.403 34.7649 109.093 34.4963 109.085 34.0759C109.063 33.5536 109.643 33.1939 110.392 33.1699C111.233 33.1429 111.747 33.5869 111.884 34.1452L114.095 33.9379ZM127.223 31.8793L129.722 31.7991C129.33 29.5094 127.251 27.9559 124.621 28.0403C121.549 28.1389 119.252 30.4297 119.373 34.2005C119.491 37.8804 121.779 40.0923 125.056 39.9871C127.992 39.8929 130.028 37.9686 129.93 34.9077L129.883 33.4425L125.016 33.5987L125.075 35.45L127.574 35.3699C127.586 36.8134 126.633 37.7592 124.997 37.8117C123.152 37.8709 121.943 36.5283 121.865 34.0978C121.788 31.6786 122.953 30.2711 124.731 30.2141C125.997 30.1734 126.876 30.799 127.223 31.8793ZM131.884 39.6088L134.303 39.5311L134.145 34.5962C134.11 33.5229 134.87 32.7594 135.938 32.7252C136.273 32.7144 136.735 32.7565 136.964 32.823L136.895 30.6764C136.678 30.6322 136.376 30.6078 136.132 30.6156C135.155 30.647 134.372 31.2405 134.089 32.3297L133.998 32.3327L133.949 30.8107L131.604 30.886L131.884 39.6088ZM143.902 35.5052C143.945 36.6749 143.164 37.3139 142.295 37.3418C141.381 37.3712 140.77 36.7484 140.731 35.7207L140.567 30.5983L138.147 30.676L138.326 36.2299C138.397 38.2685 139.629 39.4739 141.384 39.4176C142.696 39.3755 143.617 38.6694 143.976 37.6346L144.067 37.6317L144.118 39.2161L146.44 39.1416L146.16 30.4188L143.741 30.4964L143.902 35.5052ZM140.398 29.41C141.057 29.3888 141.562 28.8439 141.542 28.2135C141.521 27.5718 140.982 27.0775 140.324 27.0986C139.671 27.1196 139.147 27.648 139.168 28.2897C139.188 28.9201 139.745 29.4309 140.398 29.41ZM143.873 29.2984C144.532 29.2773 145.038 28.7324 145.017 28.102C144.997 27.4603 144.458 26.966 143.799 26.9871C143.146 27.0081 142.623 27.5365 142.644 28.1782C142.664 28.8085 143.22 29.3194 143.873 29.2984ZM150.633 33.959C150.602 32.8344 151.251 32.1541 152.228 32.1228C153.199 32.0916 153.805 32.7089 153.833 33.7767L153.998 38.899L156.417 38.8214L156.238 33.2674C156.173 31.2344 154.941 30.0233 153.123 30.0816C151.829 30.1232 150.912 30.7893 150.553 31.8184L150.45 31.8217L150.401 30.2827L148.095 30.3567L148.375 39.0795L150.795 39.0018L150.633 33.959Z" fill="#324015"/>
<path d="M48.5636 61.3027H50.3192V56.2289H55.2624V54.7232H50.3192V51.1777H55.7795V49.6664H48.5636V61.3027ZM60.9229 61.4789C62.8263 61.4789 64.1729 60.5414 64.5593 59.1209L62.9513 58.8311C62.6445 59.655 61.9059 60.0755 60.94 60.0755C59.4854 60.0755 58.5082 59.1323 58.4627 57.4505H64.6673V56.8482C64.6673 53.6948 62.7809 52.4618 60.8036 52.4618C58.3718 52.4618 56.7695 54.3141 56.7695 56.9959C56.7695 59.7061 58.3491 61.4789 60.9229 61.4789ZM58.4684 56.1777C58.5366 54.9391 59.4343 53.8652 60.815 53.8652C62.1332 53.8652 62.9968 54.8425 63.0025 56.1777H58.4684ZM66.5522 61.3027H68.2511V55.9732C68.2511 54.8311 69.1317 54.0073 70.3363 54.0073C70.6886 54.0073 71.0863 54.0698 71.2227 54.1096V52.4846C71.0522 52.4618 70.717 52.4448 70.5011 52.4448C69.4783 52.4448 68.6033 53.0243 68.2852 53.9618H68.1942V52.5755H66.5522V61.3027ZM74.3917 56.1209C74.3917 54.7289 75.244 53.9334 76.4258 53.9334C77.5792 53.9334 78.2781 54.6891 78.2781 55.9561V61.3027H79.9769V55.7516C79.9769 53.5925 78.7894 52.4618 77.0053 52.4618C75.6928 52.4618 74.8349 53.0698 74.4315 53.9959H74.3235V52.5755H72.6928V61.3027H74.3917V56.1209ZM86.0167 61.4789C87.9201 61.4789 89.2667 60.5414 89.6531 59.1209L88.0451 58.8311C87.7383 59.655 86.9996 60.0755 86.0337 60.0755C84.5792 60.0755 83.6019 59.1323 83.5565 57.4505H89.761V56.8482C89.761 53.6948 87.8746 52.4618 85.8974 52.4618C83.4656 52.4618 81.8633 54.3141 81.8633 56.9959C81.8633 59.7061 83.4428 61.4789 86.0167 61.4789ZM83.5621 56.1777C83.6303 54.9391 84.5281 53.8652 85.9087 53.8652C87.2269 53.8652 88.0906 54.8425 88.0962 56.1777H83.5621ZM98.1857 54.7061C97.8335 53.3482 96.771 52.4618 94.8846 52.4618C92.913 52.4618 91.5153 53.5016 91.5153 55.0471C91.5153 56.2857 92.2653 57.1096 93.9016 57.4732L95.3789 57.7971C96.2198 57.9846 96.6119 58.3596 96.6119 58.905C96.6119 59.5811 95.8903 60.1096 94.7766 60.1096C93.7596 60.1096 93.1062 59.6721 92.9016 58.8141L91.2596 59.0641C91.5437 60.6096 92.8278 61.4789 94.788 61.4789C96.896 61.4789 98.3562 60.3596 98.3562 58.78C98.3562 57.5471 97.5721 56.7857 95.9698 56.4164L94.5835 56.0982C93.6232 55.8709 93.2085 55.5471 93.2141 54.9561C93.2085 54.2857 93.9357 53.8084 94.9016 53.8084C95.9585 53.8084 96.4471 54.3936 96.646 54.9789L98.1857 54.7061ZM112.47 53.3425H114.271C113.879 51.0755 111.941 49.5073 109.43 49.5073C106.419 49.5073 104.22 51.7743 104.22 55.4902C104.22 59.1721 106.356 61.4618 109.51 61.4618C112.333 61.4618 114.35 59.6096 114.35 56.6721V55.3482H109.777V56.7971H112.652C112.612 58.6721 111.373 59.8596 109.51 59.8596C107.458 59.8596 105.964 58.3084 105.964 55.4789C105.964 52.6607 107.47 51.1096 109.441 51.1096C110.987 51.1096 112.032 51.9618 112.47 53.3425ZM116.443 61.3027H118.142V55.9732C118.142 54.8311 119.022 54.0073 120.227 54.0073C120.579 54.0073 120.977 54.0698 121.113 54.1096V52.4846C120.943 52.4618 120.608 52.4448 120.392 52.4448C119.369 52.4448 118.494 53.0243 118.176 53.9618H118.085V52.5755H116.443V61.3027ZM128.112 57.6834C128.118 59.1664 127.015 59.8709 126.061 59.8709C125.01 59.8709 124.282 59.1096 124.282 57.9221V52.5755H122.583V58.1266C122.583 60.2914 123.771 61.4164 125.447 61.4164C126.76 61.4164 127.652 60.7232 128.055 59.7914H128.146V61.3027H129.816V52.5755H128.112V57.6834ZM124.544 51.2061C125.112 51.2061 125.544 50.7459 125.544 50.2175C125.544 49.655 125.112 49.2232 124.544 49.2232C124.01 49.2232 123.538 49.655 123.538 50.2175C123.538 50.7459 124.01 51.2061 124.544 51.2061ZM127.885 51.2061C128.453 51.2061 128.885 50.7459 128.885 50.2175C128.885 49.655 128.453 49.2232 127.885 49.2232C127.35 49.2232 126.879 49.655 126.879 50.2175C126.879 50.7459 127.35 51.2061 127.885 51.2061ZM133.798 56.1209C133.798 54.7289 134.65 53.9334 135.832 53.9334C136.985 53.9334 137.684 54.6891 137.684 55.9561V61.3027H139.383V55.7516C139.383 53.5925 138.196 52.4618 136.412 52.4618C135.099 52.4618 134.241 53.0698 133.838 53.9959H133.73V52.5755H132.099V61.3027H133.798V56.1209Z" fill="#29955A"/>
</g>
<defs>
<filter id="filter0_d" x="31.2852" y="15.9375" width="142.293" height="63.3644" filterUnits="userSpaceOnUse" color-interpolation-filters="sRGB">
<feFlood flood-opacity="0" result="BackgroundImageFix"/>
<feColorMatrix in="SourceAlpha" type="matrix" values="0 0 0 0 0 0 0 0 0 0 0 0 0 0 0 0 0 0 127 0"/>
<feOffset dy="3"/>
<feGaussianBlur stdDeviation="4"/>
<feColorMatrix type="matrix" values="0 0 0 0 0 0 0 0 0 0 0 0 0 0 0 0 0 0 0.05 0"/>
<feBlend mode="normal" in2="BackgroundImageFix" result="effect1_dropShadow"/>
<feBlend mode="normal" in="SourceGraphic" in2="effect1_dropShadow" result="shape"/>
</filter>
<clipPath id="clip0">
<rect width="170" height="81" fill="white"/>
</clipPath>
</defs>
</svg>
