<svg viewBox="0 0 135 60" fill="none" xmlns="http://www.w3.org/2000/svg">
<g clip-path="url(#clip0)">
<g filter="url(#filter0_d)">
<path d="M20.7455 20.4175C21.4658 15.4355 25.1254 5.50641 34.0018 5.64657C41.2733 5.76139 49.8896 5.37666 59.1226 4.96439C63.9782 4.74758 69.0044 4.52315 74.0953 4.35976L118.409 2.9375C123.01 3.67541 131.853 7.18169 130.424 15.3035C128.637 25.4558 127.106 27.0989 119.176 26.8221C116.224 26.7191 112.546 26.7866 108.14 26.9425C111.266 29.3166 113.285 33.0735 113.285 37.3019C113.285 44.4816 107.465 50.3019 100.285 50.3019H17.2852C10.1055 50.3019 4.28516 44.4816 4.28516 37.3019C4.28516 30.1222 10.1055 24.3019 17.2852 24.3019H22.0884C21.2927 23.2203 20.7943 21.9358 20.7455 20.4175Z" fill="white"/>
</g>
<path d="M34.0018 5.64736C25.1254 5.5072 21.4658 15.4362 20.7455 20.4183C20.9636 27.212 30.1849 29.3248 34.7684 29.532L79.6098 28.0928C98.0739 27.5002 111.245 26.5461 119.176 26.8229C127.106 27.0997 128.637 25.4566 130.424 15.3043C131.853 7.18248 123.01 3.6762 118.409 2.93829L74.0953 4.36055C59.324 4.83464 45.0973 5.82256 34.0018 5.64736Z" fill="#C9FE53"/>
<path d="M40.8646 11.7644L38.417 11.8429L38.6517 19.1573L38.5495 19.1606L33.2946 12.0073L31.1366 12.0766L31.5099 23.707L33.9689 23.628L33.7339 16.3079L33.8191 16.3052L39.1139 23.4629L41.2378 23.3947L40.8646 11.7644ZM45.7167 23.4158C47.0058 23.3745 47.8225 22.7855 48.2224 21.9597L48.2905 21.9575L48.3294 23.1671L50.6236 23.0935L50.4348 17.2102C50.3681 15.1317 48.5796 14.3136 46.6374 14.376C44.5476 14.4431 43.2053 15.4866 42.9213 17.0875L45.1646 17.1974C45.3107 16.6129 45.8138 16.1704 46.6827 16.1425C47.5062 16.1161 47.9908 16.5155 48.0138 17.231L48.0149 17.2651C48.0329 17.8273 47.439 17.9203 45.9275 18.1166C44.2062 18.331 42.6744 18.96 42.737 20.9079C42.7924 22.6343 44.0528 23.4693 45.7167 23.4158ZM46.3559 21.724C45.612 21.7479 45.067 21.4186 45.0457 20.7542C45.0239 20.0727 45.5753 19.7196 46.4233 19.573C46.9491 19.4822 47.8083 19.3296 48.0917 19.1272L48.1214 20.0529C48.1507 20.9672 47.4179 21.6899 46.3559 21.724ZM54.7579 17.9128C54.7275 16.7882 55.3935 16.1074 56.3816 16.0756C57.364 16.0441 57.9635 16.6559 57.9923 17.7294L58.1567 22.8517L60.5759 22.7741L60.3976 17.2201C60.3377 15.1755 59.094 13.9762 57.2768 14.0345C55.9536 14.077 55.0878 14.7301 54.7232 15.7707L54.621 15.774L54.4783 11.3274L52.1272 11.4029L52.5005 23.0333L54.9197 22.9556L54.7579 17.9128ZM66.4604 22.7558C68.6184 22.6865 70.0385 21.5892 70.3273 19.9598L68.0851 19.884C67.8622 20.5563 67.2486 20.9227 66.4422 20.9486C65.2326 20.9874 64.4403 20.2113 64.3985 18.9108L64.3984 18.9052L70.3385 18.7145L70.3172 18.0501C70.222 15.0857 68.3805 13.6781 66.0748 13.7521C63.508 13.8345 61.9026 15.7108 61.989 18.4026C62.0777 21.1683 63.7743 22.842 66.4604 22.7558ZM64.3502 17.4059C64.3695 16.4105 65.0992 15.5912 66.1725 15.5567C67.2231 15.523 67.9741 16.2493 68.0131 17.2884L64.3502 17.4059ZM79.0948 15.9379C78.8274 14.3377 77.5008 13.3854 75.2974 13.4561C73.0655 13.5278 71.6279 14.6085 71.6875 16.2893C71.7238 17.5956 72.5744 18.4154 74.289 18.7014L75.8092 18.9539C76.5751 19.0828 76.9304 19.35 76.9558 19.7869C76.9611 20.304 76.4107 20.6912 75.5645 20.7183C74.7013 20.7461 74.1159 20.3953 73.9455 19.6902L71.5701 19.8915C71.8508 21.5538 73.3035 22.5361 75.6148 22.4619C77.875 22.3894 79.4565 21.1846 79.407 19.4638C79.3608 18.2032 78.5131 17.4744 76.8097 17.1823L75.2208 16.9149C74.403 16.7649 74.0931 16.4963 74.0853 16.0759C74.0629 15.5536 74.6425 15.1939 75.3921 15.1699C76.2326 15.1429 76.7471 15.5869 76.8844 16.1452L79.0948 15.9379ZM92.223 13.8793L94.7218 13.7991C94.3299 11.5094 92.2506 9.95595 89.6213 10.0403C86.549 10.1389 84.252 12.4297 84.373 16.2005C84.4911 19.8804 86.7792 22.0923 90.0559 21.9871C92.9919 21.8929 95.0278 19.9686 94.9295 16.9077L94.8825 15.4425L90.0157 15.5987L90.0751 17.45L92.5738 17.3699C92.5861 18.8134 91.633 19.7592 89.9974 19.8117C88.1518 19.8709 86.9433 18.5283 86.8653 16.0978C86.7877 13.6786 87.9534 12.2711 89.7308 12.2141C90.9972 12.1734 91.8757 12.799 92.223 13.8793ZM96.8839 21.6088L99.3031 21.5311L99.1447 16.5962C99.1103 15.5229 99.8703 14.7594 100.938 14.7252C101.273 14.7144 101.735 14.7565 101.964 14.823L101.895 12.6764C101.678 12.6322 101.376 12.6078 101.132 12.6156C100.155 12.647 99.3724 13.2405 99.089 14.3297L98.9982 14.3327L98.9493 12.8107L96.6039 12.886L96.8839 21.6088ZM108.902 17.5052C108.945 18.6749 108.164 19.3139 107.295 19.3418C106.381 19.3712 105.77 18.7484 105.731 17.7207L105.567 12.5983L103.147 12.676L103.326 18.2299C103.397 20.2685 104.629 21.4739 106.384 21.4176C107.696 21.3755 108.617 20.6694 108.976 19.6346L109.067 19.6317L109.118 21.2161L111.44 21.1416L111.16 12.4188L108.741 12.4964L108.902 17.5052ZM105.398 11.41C106.057 11.3888 106.562 10.8439 106.542 10.2135C106.521 9.57183 105.982 9.0775 105.324 9.09864C104.671 9.1196 104.147 9.64802 104.168 10.2897C104.188 10.9201 104.745 11.4309 105.398 11.41ZM108.873 11.2984C109.532 11.2773 110.038 10.7324 110.017 10.102C109.997 9.46029 109.458 8.96596 108.799 8.9871C108.146 9.00806 107.623 9.53647 107.644 10.1782C107.664 10.8085 108.22 11.3194 108.873 11.2984ZM115.633 15.959C115.602 14.8344 116.251 14.1541 117.228 14.1228C118.199 14.0916 118.805 14.7089 118.833 15.7767L118.998 20.899L121.417 20.8214L121.238 15.2674C121.173 13.2344 119.941 12.0233 118.123 12.0816C116.829 12.1232 115.912 12.7893 115.553 13.8184L115.45 13.8217L115.401 12.2827L113.095 12.3567L113.375 21.0795L115.795 21.0018L115.633 15.959Z" fill="#324015"/>
<path d="M13.5636 43.3027H15.3192V38.2289H20.2624V36.7232H15.3192V33.1777H20.7795V31.6664H13.5636V43.3027ZM25.9229 43.4789C27.8263 43.4789 29.1729 42.5414 29.5593 41.1209L27.9513 40.8311C27.6445 41.655 26.9059 42.0755 25.94 42.0755C24.4854 42.0755 23.5082 41.1323 23.4627 39.4505H29.6673V38.8482C29.6673 35.6948 27.7809 34.4618 25.8036 34.4618C23.3718 34.4618 21.7695 36.3141 21.7695 38.9959C21.7695 41.7061 23.3491 43.4789 25.9229 43.4789ZM23.4684 38.1777C23.5366 36.9391 24.4343 35.8652 25.815 35.8652C27.1332 35.8652 27.9968 36.8425 28.0025 38.1777H23.4684ZM31.5522 43.3027H33.2511V37.9732C33.2511 36.8311 34.1317 36.0073 35.3363 36.0073C35.6886 36.0073 36.0863 36.0698 36.2227 36.1096V34.4846C36.0522 34.4618 35.717 34.4448 35.5011 34.4448C34.4783 34.4448 33.6033 35.0243 33.2852 35.9618H33.1942V34.5755H31.5522V43.3027ZM39.3917 38.1209C39.3917 36.7289 40.244 35.9334 41.4258 35.9334C42.5792 35.9334 43.2781 36.6891 43.2781 37.9561V43.3027H44.9769V37.7516C44.9769 35.5925 43.7894 34.4618 42.0053 34.4618C40.6928 34.4618 39.8349 35.0698 39.4315 35.9959H39.3235V34.5755H37.6928V43.3027H39.3917V38.1209ZM51.0167 43.4789C52.9201 43.4789 54.2667 42.5414 54.6531 41.1209L53.0451 40.8311C52.7383 41.655 51.9996 42.0755 51.0337 42.0755C49.5792 42.0755 48.6019 41.1323 48.5565 39.4505H54.761V38.8482C54.761 35.6948 52.8746 34.4618 50.8974 34.4618C48.4656 34.4618 46.8633 36.3141 46.8633 38.9959C46.8633 41.7061 48.4428 43.4789 51.0167 43.4789ZM48.5621 38.1777C48.6303 36.9391 49.5281 35.8652 50.9087 35.8652C52.2269 35.8652 53.0906 36.8425 53.0962 38.1777H48.5621ZM63.1857 36.7061C62.8335 35.3482 61.771 34.4618 59.8846 34.4618C57.913 34.4618 56.5153 35.5016 56.5153 37.0471C56.5153 38.2857 57.2653 39.1096 58.9016 39.4732L60.3789 39.7971C61.2198 39.9846 61.6119 40.3596 61.6119 40.905C61.6119 41.5811 60.8903 42.1096 59.7766 42.1096C58.7596 42.1096 58.1062 41.6721 57.9016 40.8141L56.2596 41.0641C56.5437 42.6096 57.8278 43.4789 59.788 43.4789C61.896 43.4789 63.3562 42.3596 63.3562 40.78C63.3562 39.5471 62.5721 38.7857 60.9698 38.4164L59.5835 38.0982C58.6232 37.8709 58.2085 37.5471 58.2141 36.9561C58.2085 36.2857 58.9357 35.8084 59.9016 35.8084C60.9585 35.8084 61.4471 36.3936 61.646 36.9789L63.1857 36.7061ZM77.4698 35.3425H79.271C78.8789 33.0755 76.9414 31.5073 74.43 31.5073C71.4187 31.5073 69.2198 33.7743 69.2198 37.4902C69.2198 41.1721 71.3562 43.4618 74.5096 43.4618C77.3335 43.4618 79.3505 41.6096 79.3505 38.6721V37.3482H74.7766V38.7971H77.6516C77.6119 40.6721 76.3732 41.8596 74.5096 41.8596C72.4585 41.8596 70.9641 40.3084 70.9641 37.4789C70.9641 34.6607 72.4698 33.1096 74.4414 33.1096C75.9869 33.1096 77.0323 33.9618 77.4698 35.3425ZM81.4428 43.3027H83.1417V37.9732C83.1417 36.8311 84.0224 36.0073 85.2269 36.0073C85.5792 36.0073 85.9769 36.0698 86.1133 36.1096V34.4846C85.9428 34.4618 85.6076 34.4448 85.3917 34.4448C84.369 34.4448 83.494 35.0243 83.1758 35.9618H83.0849V34.5755H81.4428V43.3027ZM93.1119 39.6834C93.1175 41.1664 92.0153 41.8709 91.0607 41.8709C90.0096 41.8709 89.2823 41.1096 89.2823 39.9221V34.5755H87.5835V40.1266C87.5835 42.2914 88.771 43.4164 90.4471 43.4164C91.7596 43.4164 92.6516 42.7232 93.055 41.7914H93.146V43.3027H94.8164V34.5755H93.1119V39.6834ZM89.5437 33.2061C90.1119 33.2061 90.5437 32.7459 90.5437 32.2175C90.5437 31.655 90.1119 31.2232 89.5437 31.2232C89.0096 31.2232 88.538 31.655 88.538 32.2175C88.538 32.7459 89.0096 33.2061 89.5437 33.2061ZM92.8846 33.2061C93.4528 33.2061 93.8846 32.7459 93.8846 32.2175C93.8846 31.655 93.4528 31.2232 92.8846 31.2232C92.3505 31.2232 91.8789 31.655 91.8789 32.2175C91.8789 32.7459 92.3505 33.2061 92.8846 33.2061ZM98.7979 38.1209C98.7979 36.7289 99.6502 35.9334 100.832 35.9334C101.985 35.9334 102.684 36.6891 102.684 37.9561V43.3027H104.383V37.7516C104.383 35.5925 103.196 34.4618 101.412 34.4618C100.099 34.4618 99.2411 35.0698 98.8377 35.9959H98.7298V34.5755H97.0991V43.3027H98.7979V38.1209Z" fill="#29955A"/>
</g>
<defs>
<filter id="filter0_d" x="-3.71484" y="-2.0625" width="142.293" height="63.3644" filterUnits="userSpaceOnUse" color-interpolation-filters="sRGB">
<feFlood flood-opacity="0" result="BackgroundImageFix"/>
<feColorMatrix in="SourceAlpha" type="matrix" values="0 0 0 0 0 0 0 0 0 0 0 0 0 0 0 0 0 0 127 0"/>
<feOffset dy="3"/>
<feGaussianBlur stdDeviation="4"/>
<feColorMatrix type="matrix" values="0 0 0 0 0 0 0 0 0 0 0 0 0 0 0 0 0 0 0.05 0"/>
<feBlend mode="normal" in2="BackgroundImageFix" result="effect1_dropShadow"/>
<feBlend mode="normal" in="SourceGraphic" in2="effect1_dropShadow" result="shape"/>
</filter>
<clipPath id="clip0">
<rect width="135" height="60" fill="white"/>
</clipPath>
</defs>
</svg>
