<svg viewBox="0 0 170 81" fill="none" xmlns="http://www.w3.org/2000/svg">
<g clip-path="url(#clip0)">
<path d="M37.0717 32.5475L39.7525 34.3801L40.6835 33.9433L40.5966 32.9394L41.2052 32.1074L43.0432 32.1815L44.3651 31.1016L42.0346 29.919L42.818 28.864L44.6094 28.9583L45.5867 28.4016L45.4044 30.2244L45.9722 30.9264L48.1974 32.2844L49.1859 32.2797L48.8391 34.768L47.7219 35.4468L47.1627 37.8755L47.2639 38.7581L48.2806 40.7683L50.1697 40.6347L52.1005 41.1909L53.6147 42.3287L54.219 43.2024L55.5924 43.6569L56.3816 47.0584L59.4647 47.6942L60.1188 48.6258L60.2847 49.8786L63.3113 49.7358L63.5054 50.3443L61.4268 52.3503L60.4926 55.6028L61.058 55.7512L59.7484 57.793L60.0626 59.2963L62.5092 57.8589L64.8897 58.49L66.4815 59.6964L67.7289 59.914L68.1046 61.3125L68.7179 61.3524L68.3209 59.3407L69.7322 59.984L71.1309 61.8257L73.1081 62.0309L73.7332 62.4145L72.72 63.7477L71.5808 67.3678L72.5197 68.6764L71.7884 69.9329L70.3846 70.02L68.5158 71.8711L68.0215 72.7997L69.0958 73.9507L68.4593 75.0718L66.4537 75.5288L65.1795 78.0307L64.5168 80.1904L63.3399 78.6935L63.3328 76.658L63.9707 75.9321L63.5111 74.0114L62.607 74.2721L62.0953 73.4902L60.117 74.7952L59.9695 73.9843L58.9009 72.9594L58.4878 71.7372L55.7743 72.8173L52.9809 72.8596L52.3339 71.5754L50.959 70.9478L47.8558 71.9179L47.379 71.463L46.1172 68.3455L44.8284 68.5185L41.4296 70.7034L42.518 74.0307L41.9674 75.6019L38.8037 75.5234L38.5893 73.8287L36.9446 73.954L37.0468 73.0919L35.7735 72.4199L34.1056 71.0574L34.0941 70.4156L31.1783 72.604L29.4632 70.2531L27.5992 71.849L25.0718 72.0347L24.547 69.4849L22.5193 69.6212L19.8703 70.6616L16.308 72.8921L16.3441 74.3119L13.0048 74.0391L10.5697 72.0012L9.5662 71.8961L9.25697 70.6276L11.5423 68.9717L12.3707 67.5397L11.0067 65.5856L10.9907 63.1923L11.5754 61.2989L12.5848 60.8423L14.493 58.1017L16.2377 55.9416L13.4898 54.447L11.1801 54.9877L11.2473 53.0202L12.0915 48.7266L12.6866 49.2189L13.7205 48.8027L13.5496 47.868L14.1628 45.8571L13.6883 44.275L12.0782 44.9674L11.7044 43.9796L13.5606 42.9413L14.9882 41.7382L18.5463 43.1271L20.2074 43.2348L20.2238 42.3227L18.5925 40.6574L20.088 37.3504L20.1471 36.8096L24.363 36.7089L24.7596 34.637L26.1212 34.3305L25.831 31.2202L28.1933 31.2567L27.6054 32.2667L28.5763 33.9263L28.3249 34.9373L28.7311 36.0286L31.4051 36.9552L33.3745 36.7471L35.2383 35.6535L35.3519 34.8484L36.3344 34.2569L37.0717 32.5475Z" fill="#29955A" fill-opacity="0.43"/>
<path fill-rule="evenodd" clip-rule="evenodd" d="M35.9266 17.3944L35.9127 17.4212C35.2433 17.3046 35.2517 16.8517 35.2614 16.3301C35.2623 16.2804 35.2632 16.23 35.2636 16.1792C35.2931 12.0728 34.3317 8.18488 32.5555 4.49639C32.5255 4.43419 32.4958 4.371 32.466 4.30755C32.0697 3.46468 31.6516 2.57535 30.2432 3.31439C30.22 3.19091 30.1968 3.06849 30.1736 2.94607C30.4963 2.60724 30.819 2.26808 31.1445 1.92589L31.8991 1.13296C31.0379 1.41791 30.2422 1.24905 29.7398 0.311889C29.7269 0.288226 29.469 0.396103 29.2099 0.50444C29.1006 0.550164 28.991 0.595968 28.8996 0.632001L28.8739 0.644859C28.4617 1.09465 28.0504 1.54385 27.6482 1.9831L26.7722 2.93974L25.3094 2.36984C25.5774 2.8495 25.7836 3.21934 25.9633 3.5416L25.9641 3.54304L25.9649 3.54434C26.1016 3.78962 26.2231 4.00739 26.3447 4.22517C26.1906 4.31382 26.0366 4.40141 25.8825 4.49006C25.8254 4.40212 25.7664 4.31528 25.7074 4.2285C25.5746 4.03303 25.4419 3.83783 25.3316 3.631C24.901 2.82365 24.329 2.735 23.7876 3.45159C23.5322 3.7893 23.3422 4.18717 23.1797 4.58082C21.6748 8.22287 21.3582 12.0011 22.0663 15.8479C22.2214 16.6943 22.5855 17.7021 23.2029 18.2235L23.4073 18.3964C24.7007 19.4926 26.0366 20.6248 27.8581 20.8313C28.7805 20.9357 29.1351 21.4223 29.1098 22.4016C29.0013 26.5603 28.9416 30.7206 28.882 34.8804C28.8732 35.495 28.8644 36.1104 28.8554 36.725C28.841 37.738 28.8448 38.7515 28.8487 39.7652C28.8505 40.231 28.8523 40.697 28.8523 41.1628C28.6689 41.2165 28.4861 41.2715 28.3024 41.3253C28.1029 40.935 27.9005 40.546 27.6982 40.157C27.248 39.2914 26.7975 38.4252 26.3774 37.545C26.0823 36.9266 25.8048 36.2988 25.5274 35.6711C25.0232 34.5303 24.5193 33.3901 23.91 32.3083C23.6657 31.8747 23.1657 31.5851 22.6656 31.2953C22.4378 31.1633 22.2099 31.0313 22.0061 30.8857C21.9652 31.1244 21.9068 31.3649 21.8484 31.6054C21.7217 32.1273 21.595 32.6494 21.6463 33.1537C21.9703 36.3598 22.309 39.5703 22.8283 42.749C23.2842 45.5383 23.9406 48.2991 24.6044 51.0494C24.7854 51.8001 25.0899 52.5212 25.3944 53.2422C25.5321 53.5682 25.6697 53.8942 25.7959 54.2229C25.719 54.323 25.6431 54.424 25.5669 54.5247C19.0216 49.6289 12.3844 44.9019 4.29297 42.5844C4.91035 44.8534 5.69343 46.7858 7.53187 48.2611C11.6446 51.5613 15.8893 54.6566 20.8146 56.6017C23.7855 57.7752 25.9754 59.6253 27.3853 62.442C27.6829 63.0372 27.9911 63.1934 28.7024 63.013C30.0227 62.6784 31.3883 62.4916 32.7465 62.3523C33.4009 62.2848 33.8061 62.1708 33.8473 61.4289C34.0805 57.2686 35.1718 53.2899 36.5131 49.3767L36.5664 49.2211C37.6215 46.1404 38.6769 43.0588 41.3256 40.8388C42.2107 40.0968 43.0279 39.2745 43.8453 38.4519C44.2998 37.9946 44.7545 37.5371 45.2209 37.0933C45.8894 36.4576 46.572 35.8369 47.2547 35.2161C47.5615 34.9372 47.8682 34.6582 48.1738 34.3779C39.1251 36.8168 34.4298 43.5943 30.8416 51.5855C30.5218 50.717 30.2411 49.897 30.2348 49.0738C30.2005 44.4618 30.1803 39.8495 30.16 35.2372C30.141 30.9016 30.1219 26.566 30.0913 22.2307C30.086 21.4159 30.3604 21.0677 31.1403 20.9357C33.3154 20.5692 34.8958 19.3665 35.9127 17.4212C35.9281 17.4239 35.9439 17.4265 35.9601 17.4288L35.9511 17.4189L35.9578 17.4256C35.9639 17.3988 35.9699 17.372 35.9759 17.3452C37.1179 16.342 37.4278 14.9673 36.7283 13.9746C36.4778 15.0981 36.2273 16.2216 35.9759 17.3452C35.9584 17.3605 35.9408 17.3757 35.923 17.3908L35.9266 17.3944ZM28.7202 1.17166C28.7773 0.99617 28.8344 0.820774 28.8945 0.646882C29.9598 0.756556 29.8911 1.56525 29.8314 2.26783L29.8253 2.34029C29.7926 2.735 29.5235 3.15187 29.2628 3.48114C25.9796 7.61815 24.2477 12.3018 24.214 17.5955C24.2129 17.662 24.1359 17.7296 23.8773 18.1517C23.8232 17.8558 23.7651 17.5937 23.7119 17.3538C23.6096 16.892 23.5255 16.5123 23.5227 16.1317C23.5005 12.9973 24.672 10.189 25.988 7.42713C26.0166 7.36747 26.0652 7.30655 26.1123 7.24736C26.187 7.15368 26.2581 7.06435 26.2413 6.99126C25.9349 5.63014 26.6401 4.72286 27.3444 3.81676C27.6978 3.36202 28.051 2.90759 28.276 2.39623C28.4507 1.99985 28.5856 1.58541 28.7202 1.17166Z" fill="#46493E"/>
<path d="M33.0243 1.34375C33.2632 1.43146 33.4582 1.51303 33.6248 1.58277C33.9375 1.71358 34.1505 1.80269 34.3667 1.81233C34.5627 1.82121 34.7622 1.74479 35.0643 1.62912C35.229 1.56604 35.4241 1.4913 35.6658 1.41235C36.0057 4.96891 36.3339 8.40939 36.6621 11.8499C36.4774 11.8857 36.2927 11.9206 36.108 11.9565C36.0442 11.7551 35.9811 11.5536 35.9179 11.352C35.1927 9.03735 34.3946 6.7458 33.6296 4.44408C33.5646 4.24914 33.4702 3.96613 33.5329 3.91883C34.4777 3.20899 34.0244 2.63688 33.4568 1.92054C33.313 1.73907 33.1618 1.54832 33.0243 1.34375Z" fill="#46493E"/>
<path d="M45.6153 36.0497L45.3884 35.75C45.0612 35.921 44.7277 36.0814 44.4079 36.265C41.0403 38.2079 38.366 40.9223 35.984 43.9364C33.0174 47.6893 30.8666 51.7165 31.8428 56.7675C31.9913 57.5366 32.0605 58.3204 32.1297 59.1049C32.1776 59.6476 32.2255 60.1907 32.2998 60.7293C32.3214 60.884 32.4656 61.0215 32.61 61.1593C32.6775 61.2236 32.7449 61.2879 32.8 61.3541C32.9383 61.2158 33.1768 61.0924 33.2011 60.9362L33.249 60.62C33.4363 59.3869 33.624 58.1515 33.7319 56.91C33.7996 56.1325 33.814 55.341 33.8285 54.5502C33.8567 53.0096 33.8848 51.4721 34.306 50.048C35.7297 45.2356 38.7121 41.3793 42.7626 38.3694C43.4335 37.87 44.0759 37.3322 44.718 36.7947C45.016 36.5451 45.3145 36.2953 45.6153 36.0497Z" fill="#F8F4EC"/>
<path d="M25.0548 56.9706L25.0533 56.9693C23.5882 55.7765 22.1229 54.5836 20.6327 53.4228C20.2194 53.1012 19.8074 52.7771 19.3953 52.4529L19.3944 52.4522C17.6132 51.0513 15.829 49.648 13.9301 48.4278C12.3511 47.4135 10.6743 46.5511 8.99746 45.6887C8.2612 45.31 7.52491 44.9314 6.79688 44.5398L6.79956 44.5344L6.80313 44.5271C6.88654 44.3583 6.96996 44.1894 7.05439 44.0195C8.4084 44.639 9.84477 45.1256 11.1017 45.9012C12.9917 47.0678 14.8615 48.267 16.7313 49.4661C19.2342 51.0712 21.737 52.6762 24.2874 54.2027C25.7469 55.0765 26.8118 56.039 27.2213 57.6759C27.2688 57.8637 27.2624 58.0653 27.2804 58.2595C27.1802 58.3533 27.0811 58.444 26.982 58.5347C26.3383 58.0151 25.6964 57.493 25.0548 56.9706Z" fill="#F8F4EC"/>
<path d="M27.881 44.4331C28.1179 44.8585 28.3548 45.284 28.5906 45.71C28.6005 45.6271 28.6107 45.5444 28.6208 45.462C28.7815 44.1528 28.9336 42.9133 27.8435 41.8569C27.2197 41.2522 26.8113 40.3826 26.4367 39.5721C26.0008 38.6294 25.5929 37.6738 25.1849 36.7183C24.785 35.7813 24.385 34.8444 23.9587 33.9196C23.6762 33.306 23.3258 32.7239 22.9755 32.142C22.8167 31.8781 22.6579 31.6143 22.5054 31.3477C22.3376 31.4363 22.1688 31.5239 22.001 31.6126C23.2878 36.184 25.5826 40.3052 27.881 44.4331Z" fill="#F8F4EC"/>
<g filter="url(#filter0_d)">
<path d="M55.7455 38.4175C56.4658 33.4355 60.1254 23.5064 69.0018 23.6466C76.2733 23.7614 84.8896 23.3767 94.1226 22.9644C98.9782 22.7476 104.004 22.5232 109.095 22.3598L153.409 20.9375C158.01 21.6754 166.853 25.1817 165.424 33.3035C163.637 43.4558 162.106 45.0989 154.176 44.8221C151.224 44.7191 147.546 44.7866 143.14 44.9425C146.266 47.3166 148.285 51.0735 148.285 55.3019C148.285 62.4816 142.465 68.3019 135.285 68.3019H52.2852C45.1055 68.3019 39.2852 62.4816 39.2852 55.3019C39.2852 48.1222 45.1055 42.3019 52.2852 42.3019H57.0884C56.2927 41.2203 55.7943 39.9358 55.7455 38.4175Z" fill="white"/>
</g>
<path d="M69.0018 23.6474C60.1254 23.5072 56.4658 33.4362 55.7455 38.4183C55.9636 45.212 65.1849 47.3248 69.7684 47.532L114.61 46.0928C133.074 45.5002 146.245 44.5461 154.176 44.8229C162.106 45.0997 163.637 43.4566 165.424 33.3043C166.853 25.1825 158.01 21.6762 153.409 20.9383L109.095 22.3605C94.324 22.8346 80.0973 23.8226 69.0018 23.6474Z" fill="#C9FE53"/>
<path d="M75.8646 29.7644L73.417 29.8429L73.6517 37.1573L73.5495 37.1606L68.2946 30.0073L66.1366 30.0766L66.5099 41.707L68.9689 41.628L68.7339 34.3079L68.8191 34.3052L74.1139 41.4629L76.2378 41.3947L75.8646 29.7644ZM80.7167 41.4158C82.0058 41.3745 82.8225 40.7855 83.2224 39.9597L83.2905 39.9575L83.3294 41.1671L85.6236 41.0935L85.4348 35.2102C85.3681 33.1317 83.5796 32.3136 81.6374 32.376C79.5476 32.4431 78.2053 33.4866 77.9213 35.0875L80.1646 35.1974C80.3107 34.6129 80.8138 34.1704 81.6827 34.1425C82.5062 34.1161 82.9908 34.5155 83.0138 35.231L83.0149 35.2651C83.0329 35.8273 82.439 35.9203 80.9275 36.1166C79.2062 36.331 77.6744 36.96 77.737 38.9079C77.7924 40.6343 79.0528 41.4693 80.7167 41.4158ZM81.3559 39.724C80.612 39.7479 80.067 39.4186 80.0457 38.7542C80.0239 38.0727 80.5753 37.7196 81.4233 37.573C81.9491 37.4822 82.8083 37.3296 83.0917 37.1272L83.1214 38.0529C83.1507 38.9672 82.4179 39.6899 81.3559 39.724ZM89.7579 35.9128C89.7275 34.7882 90.3935 34.1074 91.3816 34.0756C92.364 34.0441 92.9635 34.6559 92.9923 35.7294L93.1567 40.8517L95.5759 40.7741L95.3976 35.2201C95.3377 33.1755 94.094 31.9762 92.2768 32.0345C90.9536 32.077 90.0878 32.7301 89.7232 33.7707L89.621 33.774L89.4783 29.3274L87.1272 29.4029L87.5005 41.0333L89.9197 40.9556L89.7579 35.9128ZM101.46 40.7558C103.618 40.6865 105.038 39.5892 105.327 37.9598L103.085 37.884C102.862 38.5563 102.249 38.9227 101.442 38.9486C100.233 38.9874 99.4403 38.2113 99.3985 36.9108L99.3984 36.9052L105.338 36.7145L105.317 36.0501C105.222 33.0857 103.38 31.6781 101.075 31.7521C98.508 31.8345 96.9026 33.7108 96.989 36.4026C97.0777 39.1683 98.7743 40.842 101.46 40.7558ZM99.3502 35.4059C99.3695 34.4105 100.099 33.5912 101.173 33.5567C102.223 33.523 102.974 34.2493 103.013 35.2884L99.3502 35.4059ZM114.095 33.9379C113.827 32.3377 112.501 31.3854 110.297 31.4561C108.066 31.5278 106.628 32.6085 106.688 34.2893C106.724 35.5956 107.574 36.4154 109.289 36.7014L110.809 36.9539C111.575 37.0828 111.93 37.35 111.956 37.7869C111.961 38.304 111.411 38.6912 110.565 38.7183C109.701 38.7461 109.116 38.3953 108.945 37.6902L106.57 37.8915C106.851 39.5538 108.304 40.5361 110.615 40.4619C112.875 40.3894 114.457 39.1846 114.407 37.4638C114.361 36.2032 113.513 35.4744 111.81 35.1823L110.221 34.9149C109.403 34.7649 109.093 34.4963 109.085 34.0759C109.063 33.5536 109.643 33.1939 110.392 33.1699C111.233 33.1429 111.747 33.5869 111.884 34.1452L114.095 33.9379ZM127.223 31.8793L129.722 31.7991C129.33 29.5094 127.251 27.9559 124.621 28.0403C121.549 28.1389 119.252 30.4297 119.373 34.2005C119.491 37.8804 121.779 40.0923 125.056 39.9871C127.992 39.8929 130.028 37.9686 129.93 34.9077L129.883 33.4425L125.016 33.5987L125.075 35.45L127.574 35.3699C127.586 36.8134 126.633 37.7592 124.997 37.8117C123.152 37.8709 121.943 36.5283 121.865 34.0978C121.788 31.6786 122.953 30.2711 124.731 30.2141C125.997 30.1734 126.876 30.799 127.223 31.8793ZM131.884 39.6088L134.303 39.5311L134.145 34.5962C134.11 33.5229 134.87 32.7594 135.938 32.7252C136.273 32.7144 136.735 32.7565 136.964 32.823L136.895 30.6764C136.678 30.6322 136.376 30.6078 136.132 30.6156C135.155 30.647 134.372 31.2405 134.089 32.3297L133.998 32.3327L133.949 30.8107L131.604 30.886L131.884 39.6088ZM143.902 35.5052C143.945 36.6749 143.164 37.3139 142.295 37.3418C141.381 37.3712 140.77 36.7484 140.731 35.7207L140.567 30.5983L138.147 30.676L138.326 36.2299C138.397 38.2685 139.629 39.4739 141.384 39.4176C142.696 39.3755 143.617 38.6694 143.976 37.6346L144.067 37.6317L144.118 39.2161L146.44 39.1416L146.16 30.4188L143.741 30.4964L143.902 35.5052ZM140.398 29.41C141.057 29.3888 141.562 28.8439 141.542 28.2135C141.521 27.5718 140.982 27.0775 140.324 27.0986C139.671 27.1196 139.147 27.648 139.168 28.2897C139.188 28.9201 139.745 29.4309 140.398 29.41ZM143.873 29.2984C144.532 29.2773 145.038 28.7324 145.017 28.102C144.997 27.4603 144.458 26.966 143.799 26.9871C143.146 27.0081 142.623 27.5365 142.644 28.1782C142.664 28.8085 143.22 29.3194 143.873 29.2984ZM150.633 33.959C150.602 32.8344 151.251 32.1541 152.228 32.1228C153.199 32.0916 153.805 32.7089 153.833 33.7767L153.998 38.899L156.417 38.8214L156.238 33.2674C156.173 31.2344 154.941 30.0233 153.123 30.0816C151.829 30.1232 150.912 30.7893 150.553 31.8184L150.45 31.8217L150.401 30.2827L148.095 30.3567L148.375 39.0795L150.795 39.0018L150.633 33.959Z" fill="#324015"/>
<path d="M48.5636 61.3027H50.3192V56.2289H55.2624V54.7232H50.3192V51.1777H55.7795V49.6664H48.5636V61.3027ZM60.9229 61.4789C62.8263 61.4789 64.1729 60.5414 64.5593 59.1209L62.9513 58.8311C62.6445 59.655 61.9059 60.0755 60.94 60.0755C59.4854 60.0755 58.5082 59.1323 58.4627 57.4505H64.6673V56.8482C64.6673 53.6948 62.7809 52.4618 60.8036 52.4618C58.3718 52.4618 56.7695 54.3141 56.7695 56.9959C56.7695 59.7061 58.3491 61.4789 60.9229 61.4789ZM58.4684 56.1777C58.5366 54.9391 59.4343 53.8652 60.815 53.8652C62.1332 53.8652 62.9968 54.8425 63.0025 56.1777H58.4684ZM66.5522 61.3027H68.2511V55.9732C68.2511 54.8311 69.1317 54.0073 70.3363 54.0073C70.6886 54.0073 71.0863 54.0698 71.2227 54.1096V52.4846C71.0522 52.4618 70.717 52.4448 70.5011 52.4448C69.4783 52.4448 68.6033 53.0243 68.2852 53.9618H68.1942V52.5755H66.5522V61.3027ZM74.3917 56.1209C74.3917 54.7289 75.244 53.9334 76.4258 53.9334C77.5792 53.9334 78.2781 54.6891 78.2781 55.9561V61.3027H79.9769V55.7516C79.9769 53.5925 78.7894 52.4618 77.0053 52.4618C75.6928 52.4618 74.8349 53.0698 74.4315 53.9959H74.3235V52.5755H72.6928V61.3027H74.3917V56.1209ZM86.0167 61.4789C87.9201 61.4789 89.2667 60.5414 89.6531 59.1209L88.0451 58.8311C87.7383 59.655 86.9996 60.0755 86.0337 60.0755C84.5792 60.0755 83.6019 59.1323 83.5565 57.4505H89.761V56.8482C89.761 53.6948 87.8746 52.4618 85.8974 52.4618C83.4656 52.4618 81.8633 54.3141 81.8633 56.9959C81.8633 59.7061 83.4428 61.4789 86.0167 61.4789ZM83.5621 56.1777C83.6303 54.9391 84.5281 53.8652 85.9087 53.8652C87.2269 53.8652 88.0906 54.8425 88.0962 56.1777H83.5621ZM98.1857 54.7061C97.8335 53.3482 96.771 52.4618 94.8846 52.4618C92.913 52.4618 91.5153 53.5016 91.5153 55.0471C91.5153 56.2857 92.2653 57.1096 93.9016 57.4732L95.3789 57.7971C96.2198 57.9846 96.6119 58.3596 96.6119 58.905C96.6119 59.5811 95.8903 60.1096 94.7766 60.1096C93.7596 60.1096 93.1062 59.6721 92.9016 58.8141L91.2596 59.0641C91.5437 60.6096 92.8278 61.4789 94.788 61.4789C96.896 61.4789 98.3562 60.3596 98.3562 58.78C98.3562 57.5471 97.5721 56.7857 95.9698 56.4164L94.5835 56.0982C93.6232 55.8709 93.2085 55.5471 93.2141 54.9561C93.2085 54.2857 93.9357 53.8084 94.9016 53.8084C95.9585 53.8084 96.4471 54.3936 96.646 54.9789L98.1857 54.7061ZM112.47 53.3425H114.271C113.879 51.0755 111.941 49.5073 109.43 49.5073C106.419 49.5073 104.22 51.7743 104.22 55.4902C104.22 59.1721 106.356 61.4618 109.51 61.4618C112.333 61.4618 114.35 59.6096 114.35 56.6721V55.3482H109.777V56.7971H112.652C112.612 58.6721 111.373 59.8596 109.51 59.8596C107.458 59.8596 105.964 58.3084 105.964 55.4789C105.964 52.6607 107.47 51.1096 109.441 51.1096C110.987 51.1096 112.032 51.9618 112.47 53.3425ZM116.443 61.3027H118.142V55.9732C118.142 54.8311 119.022 54.0073 120.227 54.0073C120.579 54.0073 120.977 54.0698 121.113 54.1096V52.4846C120.943 52.4618 120.608 52.4448 120.392 52.4448C119.369 52.4448 118.494 53.0243 118.176 53.9618H118.085V52.5755H116.443V61.3027ZM128.112 57.6834C128.118 59.1664 127.015 59.8709 126.061 59.8709C125.01 59.8709 124.282 59.1096 124.282 57.9221V52.5755H122.583V58.1266C122.583 60.2914 123.771 61.4164 125.447 61.4164C126.76 61.4164 127.652 60.7232 128.055 59.7914H128.146V61.3027H129.816V52.5755H128.112V57.6834ZM124.544 51.2061C125.112 51.2061 125.544 50.7459 125.544 50.2175C125.544 49.655 125.112 49.2232 124.544 49.2232C124.01 49.2232 123.538 49.655 123.538 50.2175C123.538 50.7459 124.01 51.2061 124.544 51.2061ZM127.885 51.2061C128.453 51.2061 128.885 50.7459 128.885 50.2175C128.885 49.655 128.453 49.2232 127.885 49.2232C127.35 49.2232 126.879 49.655 126.879 50.2175C126.879 50.7459 127.35 51.2061 127.885 51.2061ZM133.798 56.1209C133.798 54.7289 134.65 53.9334 135.832 53.9334C136.985 53.9334 137.684 54.6891 137.684 55.9561V61.3027H139.383V55.7516C139.383 53.5925 138.196 52.4618 136.412 52.4618C135.099 52.4618 134.241 53.0698 133.838 53.9959H133.73V52.5755H132.099V61.3027H133.798V56.1209Z" fill="#29955A"/>
</g>
<defs>
<filter id="filter0_d" x="31.2852" y="15.9375" width="142.293" height="63.3644" filterUnits="userSpaceOnUse" color-interpolation-filters="sRGB">
<feFlood flood-opacity="0" result="BackgroundImageFix"/>
<feColorMatrix in="SourceAlpha" type="matrix" values="0 0 0 0 0 0 0 0 0 0 0 0 0 0 0 0 0 0 127 0"/>
<feOffset dy="3"/>
<feGaussianBlur stdDeviation="4"/>
<feColorMatrix type="matrix" values="0 0 0 0 0 0 0 0 0 0 0 0 0 0 0 0 0 0 0.05 0"/>
<feBlend mode="normal" in2="BackgroundImageFix" result="effect1_dropShadow"/>
<feBlend mode="normal" in="SourceGraphic" in2="effect1_dropShadow" result="shape"/>
</filter>
<clipPath id="clip0">
<rect width="170" height="81" fill="white"/>
</clipPath>
</defs>
</svg>
